<svg id="Layer_1" data-name="Layer 1" xmlns="http://www.w3.org/2000/svg" viewBox="0 0 4000 4000"><defs><style>.cls-1{opacity:0.3;}.cls-2{fill:#371a45;}.cls-3{fill:#fff;}.cls-4{opacity:0.35;}.cls-5{fill:#4a83ff;}.cls-6{fill:#a34f31;}.cls-7{fill:#6b184e;}.cls-8{fill:#bf943d;}.cls-9{fill:#ec1c24;}.cls-10{fill:#ffce00;}.cls-11{opacity:0.7;}.cls-12{fill:#220f2d;}</style></defs><g class="cls-1"><ellipse class="cls-2" cx="2065" cy="3430" rx="830" ry="150"/></g><path class="cls-3" d="M1775.35,1816.64l-78.15,247.51c-119.83,33.85-419.75-20-626.59-162.54-89.21-61.44-161.09-139.41-193.8-233.94-95.68-276.57,151.71-293.4,247-233.33,74.09,46.72,128.74,108.86,195.51,170.26C1415.13,1692.74,1536,1779.35,1775.35,1816.64Z"/><g class="cls-4"><path class="cls-2" d="M1723.87,1979.75l-26.67,84.4c-119.84,33.85-419.76-20-626.6-162.54-89.2-61.44-161.09-139.41-193.79-233.95-35.48-102.56-23.8-169.37,9.83-209.83-2,33.85,4.19,74.92,21.24,124.24q.75,2.17,1.61,4.42c27,70.6,118.19,89.49,172.83,37.22,10.56-10.09,17.69-15.15,17.71-10.44.57,94.44-29.42,168.69,1.65,202.75C1268.92,1999.37,1601.21,2011.09,1723.87,1979.75Z"/></g><path class="cls-5" d="M1775.34,1816.63l-36,114-42.14,133.5c-20.71,5.86-46.81,9.08-76.86,9.7-143.86,2.91-378.64-54.3-549.74-172.24,140.25-69.64,213.81-206.93,248.67-297,44.69,41.13,94.89,81.89,160,117.55,59,32.22,130.23,60.2,220.76,80.35Q1735.59,1810.41,1775.34,1816.63Z"/><g class="cls-4"><path class="cls-2" d="M1775.34,1816.63l-78.14,247.52c-119.84,33.85-419.76-20-626.6-162.54a416,416,0,0,0,61.31-37.42c107.06,61.28,230.2,101.82,338.48,121.74a252.51,252.51,0,0,0,286.49-172.34h0C1763,1814.65,1769.09,1815.66,1775.34,1816.63Z"/></g><path class="cls-2" d="M1608.52,2090.71c-115.14,0-272.16-36-406.7-97-51.59-23.35-98.9-49.8-140.61-78.62C960,1845.35,892.68,1763.91,861.28,1673,812,1530.71,852.41,1460.61,895,1426.87c65.65-52.07,175.85-45.37,237.58-6.44,55.67,35.13,99.78,77.88,146.49,123.14,16.61,16.11,33.8,32.76,51.63,49.14,34.07,31.34,64.45,55.94,95.61,77.42,96.37,66.52,208.09,107.91,351.61,130.26a16.44,16.44,0,1,1-5,32.49c-148.6-23.14-264.65-66.26-365.22-135.69-32.46-22.36-64-47.88-99.2-80.28-18.14-16.66-35.49-33.47-52.26-49.73-45.45-44-88.37-85.63-141.16-118.94-51.12-32.25-145.68-38.38-199.6,4.39-49.06,38.91-57,111.41-23,209.66,29.06,84.1,92.16,160,187.54,225.74,40.1,27.71,85.68,53.19,135.49,75.73,186.7,84.6,389.32,109.45,477.36,84.57a16.44,16.44,0,1,1,8.93,31.64C1675.94,2087.24,1644.24,2090.71,1608.52,2090.71Z"/><path class="cls-3" d="M1425.32,1703.29c-33.9,125.42-121.37,216.86-198.83,276.28a42.59,42.59,0,0,1-44.37,4.58c-22.95-11-45.49-22.89-67.39-35.54-26.87-15.53-28.35-53.95-2.81-71.6a488,488,0,0,0,85.66-74.93c52.85-58.74,86.22-114.77,107.11-159.74a42.54,42.54,0,0,1,65.8-14.94c12.39,10.3,25.26,20.48,38.76,30.49A42.75,42.75,0,0,1,1425.32,1703.29Z"/><g class="cls-4"><path class="cls-2" d="M1399,1774.41c-42.18,89.56-110.58,157.61-172.55,205.16a42.56,42.56,0,0,1-44.38,4.59c-22.92-11.06-45.48-22.92-67.39-35.57-26.84-15.51-28.34-53.95-2.82-71.58,9.87-6.78,19.75-14.14,29.49-22a41.8,41.8,0,0,0,17.27,19.09c21.91,12.64,44.47,24.46,67.39,35.52a42.57,42.57,0,0,0,44.38-4.58C1313.89,1871.73,1360.52,1828.27,1399,1774.41Z"/></g><path class="cls-2" d="M1200.64,2004.84A59.17,59.17,0,0,1,1175,1999c-23.67-11.39-46.71-23.54-68.48-36.12a58.9,58.9,0,0,1-3.94-99.35,472.92,472.92,0,0,0,82.79-72.41c44-48.94,79.17-101.32,104.42-155.67a59,59,0,0,1,91.22-20.65c12.91,10.73,25.35,20.52,38,29.93a58.87,58.87,0,0,1,22.15,62.89h0c-36.07,133.47-131.23,228.67-204.7,285A58.77,58.77,0,0,1,1200.64,2004.84ZM1343.42,1634a26.23,26.23,0,0,0-23.82,15.24c-26.63,57.32-63.57,112.43-109.8,163.82a505.81,505.81,0,0,1-88.54,77.46,26,26,0,0,0,1.69,43.83c21.06,12.17,43.37,23.93,66.3,35a26,26,0,0,0,27.23-2.8c69.45-53.28,159.3-142.94,193-267.53h0a26.17,26.17,0,0,0-10-27.91c-13.17-9.78-26.08-19.93-39.47-31.06A25.83,25.83,0,0,0,1343.42,1634Zm81.9,69.27h0Z"/><path class="cls-3" d="M2744,2607.42c-94.54,123.26-340.71,80.53-340.71,80.53L2401.09,1855l-.44-168.23s140.43,3.73,247.14,47.82c51.42,21.21,95,51.82,111.27,95.86C2815.79,1983.52,2821.63,2506.12,2744,2607.42Z"/><g class="cls-4"><path class="cls-2" d="M2801.54,2178c3.31,182.64-14,372.51-57.58,429.4-94.54,123.27-340.74,80.55-340.74,80.55l-2.54-1001.11s2.61.06,7.41.32l2,780.56s246.2,42.72,340.73-80.55C2776.39,2353.77,2792.92,2274.6,2801.54,2178Z"/></g><path class="cls-2" d="M2500.12,2711.75c-54.4,0-95.56-6.88-99.7-7.59a16.44,16.44,0,0,1,5.61-32.4c2.37.41,237.55,39.52,324.88-74.35,72-93.85,70.39-605.65,12.74-761.2-45.77-123.49-340.45-132.89-343.43-133a16.44,16.44,0,0,1,.89-32.87c13,.35,319.91,10.18,373.37,154.42,27.47,74.12,45.09,240.37,43.86,413.68-.65,90.73-7.92,309.27-61.35,378.94C2696.93,2695.74,2583.11,2711.75,2500.12,2711.75Z"/><path class="cls-3" d="M2783.48,2254.79l-167.78,12.6a33,33,0,0,0-30,27c-9.79,54.12-25.92,180.31,26.73,222,43.69,34.59,114.64,30.53,156.22-4.66,46.5-39.36,51.05-163.12,50.29-224.38A33,33,0,0,0,2783.48,2254.79Z"/><g class="cls-4"><path class="cls-2" d="M2585.72,2294.38c-9.82,54.1-25.92,180.29,26.73,221.94,43.7,34.6,114.64,30.54,156.23-4.66,28.59-24.22,41.31-80.36,46.7-134.23-7.56,26.91-19.43,48.77-34.19,63.11-84.56,82.16-147.69-14.71-147.69-14.71s-10.95,23.52-19.68,24.86c-36.51,5.57-29-108.72-23.68-167.77A31.84,31.84,0,0,0,2585.72,2294.38Z"/></g><path class="cls-2" d="M2686.36,2556.77c-30.59,0-60.85-9.12-84.12-27.54-57.64-45.62-45.23-168.57-32.71-237.8a49.4,49.4,0,0,1,44.94-40.43l167.78-12.6h0a49.43,49.43,0,0,1,53.14,48.69c1.05,85.62-7.83,196.27-56.11,237.13C2753.74,2545.83,2719.85,2556.77,2686.36,2556.77Zm98.35-285.58-167.78,12.59a16.54,16.54,0,0,0-15,13.51c-18.8,103.92-11,181,20.76,206.16,36.5,28.89,98.51,26.9,135.4-4.33,29.18-24.69,45.8-103.8,44.48-211.63a16.55,16.55,0,0,0-17.81-16.3Z"/><path class="cls-2" d="M2648.47,2391.4c1.87,21,1.76,41.12,3.14,61s3.51,39.46,8.38,57.87,12.45,35.5,23.92,48.41,26.6,21.23,43.64,25.29h.06a16.45,16.45,0,0,1-7.63,32c-.35-.08-.73-.19-1.07-.29a124.56,124.56,0,0,1-31.66-14.72,107.22,107.22,0,0,1-25.77-23.89c-14.35-18.55-21.85-40.22-26-61.22-4.14-21.15-5.11-42.16-5.13-62.78s1.26-41.07.76-60.5v-.23a8.71,8.71,0,0,1,17.38-1Z"/><path class="cls-2" d="M2684.39,1824.41c-15.45,1.2-31.17,3-46.68,5.13s-31,4.63-46.41,7.51-30.68,6.09-45.81,9.77-30.1,7.84-44.91,12.26l-.28.08a16.46,16.46,0,1,1-9.42-31.55,14.4,14.4,0,0,1,1.57-.39c15.92-3.09,31.82-6,47.8-8.11s31.92-4,47.9-5.37,31.95-2.38,47.93-3,31.89-.86,48.07-.52a7.08,7.08,0,0,1,.44,14.14Z"/><g class="cls-4"><path class="cls-2" d="M2647.79,1734.63A707.73,707.73,0,0,1,2401.09,1855l-.44-168.23S2541.08,1690.54,2647.79,1734.63Z"/></g><path class="cls-3" d="M2073.46,3293.15C2001.71,3459.4,1694.52,3432,1617,3363.23c-79.42-70.56,64.17-158.62,64.17-158.62-30-51-46.41-123.63-54.61-200.23-9.34-86.87-8.19-178.76-4.62-249.68,3.65-73.12,9.91-123.93,9.91-123.93l452.82-245.05c-.31,92.15-15.74,171-29.53,234.12-29.4,134.24-27.5,237.51-15.6,321.87,5.77,40.94,13.88,77.43,21.94,110.84C2084.22,3146.91,2106.38,3216.82,2073.46,3293.15Z"/><path class="cls-5" d="M2039.53,2941.71c5.77,40.94,13.88,77.43,21.94,110.84-203.26,35.66-358.84-14.28-434.92-48.17-9.34-86.87-8.19-178.76-4.62-249.68,3.65-73.12,9.91-123.93,9.91-123.93l452.82-245.05c-.31,92.15-15.74,171-29.53,234.12C2025.73,2754.08,2027.63,2857.35,2039.53,2941.71Z"/><g class="cls-4"><path class="cls-2" d="M2049.14,2648.87q-2.7,14.3-5,28.1Q2046.36,2663.14,2049.14,2648.87Z"/></g><path class="cls-2" d="M1821.1,3433.51c-91.73,0-178.11-25.24-215-58-21.55-19.13-31.36-41.35-29.18-66,4.36-49.42,56.92-92.12,82.59-110.18-91-177.83-46-554.16-44-570.51a16.44,16.44,0,0,1,32.63,4c-.49,4-48.07,401.74,47.16,563.49a16.43,16.43,0,0,1-5.57,22.35c-21.13,13-76.73,55.2-80.11,93.75-1.22,13.93,4.76,26.54,18.27,38.54,43.87,39,174.26,64.49,283.1,40.31,51.57-11.45,119-38.9,147.36-104.62,27.86-64.56,13.27-123.8-6.91-205.78-26.91-109.28-60.39-245.28-12.41-464.49,15-68.41,28.86-143.71,29.14-230.7a16.45,16.45,0,0,1,16.44-16.39h.06a16.44,16.44,0,0,1,16.38,16.49c-.3,90.08-14.55,167.44-29.9,237.63-46.35,211.74-13.88,343.63,12.21,449.6,20.91,84.9,37.41,152,5.17,226.67-26.8,62.11-85.73,104.88-170.41,123.68A450.12,450.12,0,0,1,1821.1,3433.51Z"/><path class="cls-2" d="M1948.55,3075.38c-99.84,0-236-11.12-328.31-63a12.33,12.33,0,1,1,12.08-21.5c151.14,85,439.6,54.08,442.49,53.75a12.33,12.33,0,1,1,2.73,24.51C2072.48,3069.72,2019.76,3075.38,1948.55,3075.38Z"/><g class="cls-4"><path class="cls-2" d="M1615.16,2230.13c-10.67,95.94-16.87,179.11-18.14,248.49C1595.26,2414,1601.54,2330.6,1615.16,2230.13Z"/></g><g class="cls-4"><path class="cls-2" d="M2567.69,2349.61c-.44-37.28-2.72-77.28-6.89-119.66C2566,2273,2568.26,2313.08,2567.69,2349.61Z"/></g><path class="cls-3" d="M1978.82,2874.29c162.77,11.42,286.45-39.05,328.77-57.88,108.68-48.35,192.24-136.09,233.11-251.9,63.09-178.82,17.72-574.2-153.65-1023.09L1830,1506c-253.45,484.34-309.74,1014.16-205.29,1188.41,10.54,17.57,22.11,34.54,36.61,49.52,59.72,61.65,154.17,98,230.6,116.18"/><path class="cls-5" d="M2566.07,2422c-3.39,56.33-11.94,104.32-25.39,142.49-40.85,115.78-124.42,203.53-233.1,251.88-42.31,18.82-166,69.33-328.75,57.87l-86.91-14.19c-76.43-18.2-170.88-54.52-230.6-116.18-14.5-15-26-32-36.58-49.54-63.37-105.73-67.56-342.45-4.4-620.51,13.26-58.44,22.75-116.39,42.1-177.65,9.52-30.24,26.52-63,37.58-93.71A2370.69,2370.69,0,0,1,1830,1506L2387,1541.44c33.9,88.81,62.9,175.54,87.05,258.89a.33.33,0,0,1,0,.17C2546.06,2048.51,2575.5,2266.76,2566.07,2422Z"/><path class="cls-2" d="M1654.49,1962a116.34,116.34,0,0,1,.63,17.5c-.09,5.73-.57,11.35-1.15,16.94-1,11.21-3.29,22.07-5.45,33-4.21,21.78-10,43.17-15.28,64.68s-9.7,43.23-13.69,65-7.64,43.62-11,65.49c-12.84,87.49-20.14,176.08-15.83,263.78,2.27,43.74,7.39,87.41,18.55,128.91,5.62,20.66,12.65,40.87,22.29,59.17a309.13,309.13,0,0,0,16.41,27.05,220.79,220.79,0,0,0,19.12,24.61c28.3,30.45,64.93,54.38,103.73,73.06q14.6,7.05,29.69,13.15c10,4.13,20.48,7.23,30.86,10.45a289.73,289.73,0,0,1,30.63,11.38,124.35,124.35,0,0,1,14.85,7.82,84.55,84.55,0,0,1,14.35,10.77l.19.18a6.24,6.24,0,0,1,.11,8.81,6.3,6.3,0,0,1-2.85,1.67c-12.36,3.32-24.13,3.06-35.55,1.43a168.12,168.12,0,0,1-33.2-8.9c-10.73-4.07-21.2-8.79-31.82-13.14s-21.16-9-31.53-14c-41.44-20.05-81.16-45.5-113.84-80.61a254,254,0,0,1-22-28.23,337,337,0,0,1-18.31-30.21c-11.17-21.26-18.82-43.52-24.92-65.9-12-44.85-17.26-90.43-19.64-135.79-4.45-90.84,3.08-181.18,16.14-270.3,3.41-22.27,7-44.5,11.18-66.63q3-16.61,6.41-33.15l6.43-33.14c4.14-22.13,8.76-44.19,15.34-65.74,6.35-21.59,14.38-42.79,28.54-62a5.85,5.85,0,0,1,10.52,2.73Z"/><path class="cls-2" d="M2027,2892.41c-16.06,0-32.49-.54-49.31-1.72a16.44,16.44,0,0,1,2.3-32.8,676.34,676.34,0,0,0,320.94-56.5c106.15-47.22,185.8-133.29,224.28-242.35,55.27-156.63,30.14-526.57-149.75-1001.88L1829,1522.38a16.44,16.44,0,0,1,2.09-32.82l557,35.46a16.45,16.45,0,0,1,14.32,10.54C2563.67,1958,2625.47,2373.66,2556.2,2570c-41.52,117.67-127.44,210.52-241.93,261.45A710.51,710.51,0,0,1,2027,2892.41Z"/><path class="cls-2" d="M2027,2892.4q-24.07,0-49.27-1.73a16.44,16.44,0,1,1,2.3-32.79,676.54,676.54,0,0,0,320.91-56.49c106.15-47.22,185.81-133.29,224.28-242.33,60.93-172.7,15.06-530.36-116.87-911.18a16.44,16.44,0,0,1,31.07-10.76c134.21,387.41,180.06,753.59,116.81,932.87-41.52,117.66-127.44,210.5-241.93,261.44A710.83,710.83,0,0,1,2027,2892.4Z"/><path class="cls-2" d="M1903.64,3211.87a317,317,0,0,0-55.33-12.74,288.16,288.16,0,0,0-55.27-2.67c-9.12,0-18.11,1.63-27,2.43-8.86,1.73-17.76,2.75-26.4,5.13-4.3,1.19-8.76,1.75-13,3.14s-8.52,2.63-12.83,3.83a128.21,128.21,0,0,0-12.71,4.28c-4.23,1.5-8.5,2.92-12.86,4.22l-1.56.46a16.42,16.42,0,0,1-12.45-30.21c18.13-9.71,37.76-17.28,58.25-20.66,10.12-2.32,20.52-2.68,30.79-3.47,5.15-.19,10.31.08,15.44.17a142.65,142.65,0,0,1,15.33,1,240.26,240.26,0,0,1,59.12,13.31c18.85,6.93,36.81,15.74,52.86,27.64a2.36,2.36,0,0,1-2.13,4.15Z"/><g class="cls-4"><path class="cls-2" d="M2567.69,2349.61c-.88,62.75-216.17-262.11-216.17-219,0,94.56,31.21,236.18,23.36,365.37-2,33.19-5.16,64.72-8.27,92.88-7,63-24,109.36-59,122.14-37.39,13.65-138.3,47.53-273.49,48.78-17.86.17-36.29-.21-55.28-1.31-79.45-4.56-264.37-40.14-341.4-130.68a166.47,166.47,0,0,1-12.7-16.87c-17-26.08-26-70.65-27.71-132.26-2,103.77,6.85,176.75,27.71,215.79.29.53.63,1.05.92,1.58-1.32,17.09-2.64,36.89-3.73,58.71.88,2,1.84,3.86,2.81,5.66,47.17,88.36,161.45,138.48,254.43,162.48,43.82,11.31,78.49,45.31,89.87,89.12,27,103.86,76.51,157,51.21,234-51.72,157.16-318.62,110.43-423.35,48.7-7.82,22.39-4.92,46.36,20.11,68.59,77.51,68.81,384.71,96.16,456.46-70.09,44.62-103.37-11.85-194.92-33.94-351.42-1.32-9.36-2.5-18.93-3.56-28.81-.26-2.28-.48-4.61-.7-6.94-.26-2.5-.48-5-.7-7.51-.27-2.85-.49-5.75-.75-8.69-.31-4.39-.61-8.87-.92-13.39,0-.17,0-.34,0-.5,135.81-1.29,237.23-42.8,274.73-59.49,108.68-48.34,192.25-136.08,233.09-251.87C2559.61,2510.9,2568.79,2437.79,2567.69,2349.61Z"/></g><path class="cls-3" d="M2514.73,3355.08c-71.8,166.29-379,138.92-456.47,70.12-79.42-70.57,64.12-158.62,64.12-158.62-50.59-59.15-74.57-140.51-84.44-220.9-18-146.11,10.62-288.95,10.62-288.95l477.32-309.09c-.31,92.2-15.69,171-29.53,234.21-34.95,159.68-25.65,275.55-7.85,367.93C2513.36,3179,2554.79,3262.3,2514.73,3355.08Z"/><path class="cls-5" d="M2496.35,2681.85c-34.95,159.68-25.65,275.55-7.85,367.93-274.71,96.21-446.07-1.55-450.56-4.1-18-146.11,10.62-288.95,10.62-288.95l181.58-141.82,295.74-167.27C2525.57,2539.84,2510.19,2618.65,2496.35,2681.85Z"/><g class="cls-4"><path class="cls-2" d="M2496.35,2681.85c-34.95,159.68-25.65,275.55-7.85,367.92-274.71,96.22-446.07-1.54-450.56-4.09-1.24-9.83-2.21-19.66-3-29.4l2.27.63c174.32,47.84,350.53-74.36,365.06-254.55a1026.4,1026.4,0,0,1,20.87-137.19c8.46-38.57,17.45-82.91,23.27-132.58l79.47-45C2525.57,2539.84,2510.19,2618.64,2496.35,2681.85Z"/></g><g class="cls-4"><path class="cls-2" d="M2496.33,2682.77c-83.82,383.13,87,514.16,18.36,673.3-71.75,166.25-379,138.89-456.46,70.08-20.82-18.49-26.31-38.16-23.06-57.17,104.25,55,365.57,64.46,431-87.17,23.62-54.74-119.16-161.18-120.11-280.16-.8-99.71,27.11-201.59,56.35-280.44,23.54-63.46,38-261,165-330.23-1.8,67.66-10.28,124.88-25.3,169.27-7.33,2.33-15.58,4.75-24.67,7.12C2511.7,2610.14,2503.8,2648.74,2496.33,2682.77Z"/></g><path class="cls-2" d="M2054,2758.75c.26,44.36-1.95,87.92-3.44,131.38-1,43.46-1.38,86.87,1.85,130a586,586,0,0,0,8.17,64.08,462.14,462.14,0,0,0,15.51,62.21c6.68,20.16,14.25,40.06,24.22,58.55a297.78,297.78,0,0,0,34.64,51.93,16.57,16.57,0,0,1-2.06,23.35,15.86,15.86,0,0,1-1.72,1.27l-.12.08c-6.27,4-13.18,8.86-19.51,13.68s-12.65,10.05-18.57,15.42c-11.75,10.76-22.71,22.41-30.62,35s-12.72,25.82-11.31,37.5,8.59,22.76,19.79,32c10.91,9,25.07,16.37,39.79,22.3a330.12,330.12,0,0,0,46.27,14.38,474,474,0,0,0,97.67,11.68q24.67.29,49.21-1.85c16.28-1.71,32.52-3.88,48.36-7.51,31.66-7,62.29-18.42,88.48-35.8a179.16,179.16,0,0,0,35-30.49,164.24,164.24,0,0,0,24.27-38.86c12.28-28.95,17-60.2,14.48-92.27-2.24-32.07-9.85-64.64-17.82-97.51S2480,3093,2473.4,3059a904.67,904.67,0,0,1-14.51-102.88,830.21,830.21,0,0,1-1.77-104,1005.5,1005.5,0,0,1,10.2-103.31c5.27-34,12.77-68.26,19.62-101,6.82-33,10.64-66.37,15.33-99.44s8.87-66.09,18.13-99.82v0a5.67,5.67,0,0,1,11,.08c8.93,34.33,8.8,69.41,5.53,103.84s-11,68.31-17.72,102c-7.13,33.88-14.18,66.16-19.35,99.38a975.35,975.35,0,0,0-9.86,99.75c-3.17,66.74,2.54,133.46,15.69,199.12,6.4,32.89,14.66,65.56,22.79,98.74s16.12,67.17,18.67,103.08a239.66,239.66,0,0,1-2,54.48,223.21,223.21,0,0,1-15.06,52.93,197.23,197.23,0,0,1-29.59,47.39,212.07,212.07,0,0,1-41.69,36.39c-30.64,20.3-65,32.8-99.58,40.54-17.35,4-34.89,6.32-52.44,8.15q-26.36,2.31-52.75,2a505.26,505.26,0,0,1-104.65-12.54,363,363,0,0,1-51.09-15.9c-16.74-6.84-33.34-15-48.72-27.69a55.24,55.24,0,0,1-5.52-5c-1.77-1.78-3.61-3.42-5.29-5.33a93.2,93.2,0,0,1-9.38-12.45,73.1,73.1,0,0,1-11-30.68,76.74,76.74,0,0,1,3.44-31.91,116.1,116.1,0,0,1,12.79-26.85c10.31-16.24,23-29.51,36.3-41.71,6.68-6.06,13.58-11.76,20.68-17.18s14.16-10.46,22.28-15.58l-3.9,24.7a330.7,330.7,0,0,1-38.77-58.05c-11-20.43-19.21-42-26.39-63.71s-12.34-43.95-16.69-66.21c-2.3-11.12-3.91-22.32-5.68-33.5-1.39-11.21-3-22.42-4-33.65a739.49,739.49,0,0,1-1.84-134.78,564.08,564.08,0,0,1,8.55-66.68c4.4-22,9.62-43.8,18.1-65.05a5.57,5.57,0,0,1,10.75,2Z"/><path class="cls-2" d="M2260.67,3102.22c-73.18,0-154.16-11-228.05-45.47a12.33,12.33,0,1,1,10.43-22.34c190.33,88.84,439.62,11.54,442.11,10.74a12.33,12.33,0,0,1,7.46,23.51C2486,3070.76,2384.52,3102.22,2260.67,3102.22Z"/><path class="cls-2" d="M2370,3299.08a16.34,16.34,0,0,1-9.1-2.76c-4.16-2.75-101.8-65.68-232.43-13.51a16.44,16.44,0,0,1-12.19-30.53c147.32-58.83,258.22,13.59,262.87,16.7a16.44,16.44,0,0,1-9.15,30.1Z"/><path class="cls-2" d="M2644.84,2735.27a8.21,8.21,0,0,0,0-2.16l-.31-2.72c-.24-1.86-.57-3.75-.93-5.65-.78-3.79-1.82-7.56-3-11.3a107,107,0,0,0-9.63-21.38c-8-13.4-19.25-24.78-33.21-31.94a101.07,101.07,0,0,0-11.18-4.86c-4-1.63-8.06-3-12.14-4.39a258.05,258.05,0,0,0-24.8-7.16,254.67,254.67,0,0,0-25.29-4.76,182.63,182.63,0,0,0-25-1.64h-.8a183.5,183.5,0,0,0-25,1.87,253.92,253.92,0,0,0-25.23,5c-8.33,2.06-16.59,4.48-24.69,7.36-4.06,1.42-8.11,2.84-12.09,4.5a97.88,97.88,0,0,0-11.05,4.94c-13.78,7.18-24.63,18.69-32.49,31.9a106.23,106.23,0,0,0-9.29,21.24,115.47,115.47,0,0,0-2.83,11.2c-.33,1.88-.64,3.75-.85,5.59l-.27,2.68a6.81,6.81,0,0,0,0,2.06,38.81,38.81,0,1,1-54.27,23.46l10-32.67a42.55,42.55,0,0,1,1.63-4.38l1.56-3.69c1.06-2.41,2.18-4.71,3.33-7,2.27-4.57,4.67-9,7.29-13.31a164.75,164.75,0,0,1,17.71-24.35c13.1-15.17,29.85-27.68,48.55-34.76a115.75,115.75,0,0,1,13.76-4.41c4.39-1.21,8.79-2.41,13.22-3.48,8.85-2.17,17.73-4.16,26.7-5.76s18-3.07,27.07-4a209.78,209.78,0,0,1,28-1.39h-.8a206.62,206.62,0,0,1,27.93,1.62c9.09,1,18.06,2.52,27,4.19s17.8,3.73,26.61,6c4.41,1.11,8.78,2.34,13.16,3.59a118.26,118.26,0,0,1,13.64,4.48c18.52,7.11,34.85,19.74,47.83,34.73a163.57,163.57,0,0,1,17.36,24.21c2.57,4.28,4.92,8.68,7.13,13.22,1.13,2.27,2.23,4.56,3.26,6.94l1.52,3.65c.53,1.35,1,2.28,1.57,4.28l5.53,18.1a26.93,26.93,0,1,1-46.24-9.63Z"/><rect class="cls-6" x="2109.93" y="2731.04" width="778.02" height="567.05" rx="77.85"/><path class="cls-2" d="M2818.49,3314.51H2179.41a86,86,0,0,1-85.91-85.91V2800.53a86,86,0,0,1,85.91-86h639.08a86,86,0,0,1,85.91,86V3228.6A86,86,0,0,1,2818.49,3314.51Zm-639.08-567.06a53.11,53.11,0,0,0-53,53.08V3228.6a53.09,53.09,0,0,0,53,53h639.08a53.09,53.09,0,0,0,53-53V2800.53a53.11,53.11,0,0,0-53-53.08Z"/><g class="cls-4"><path class="cls-2" d="M2828.73,3071v-11.22A69.48,69.48,0,0,0,2888,2991v-127a69.5,69.5,0,0,0-69.48-69.52H2278.41V3211H2174.54a69.45,69.45,0,0,1-69.47-69.47v87a69.49,69.49,0,0,0,69.47,69.48h639.07a69.49,69.49,0,0,0,69.47-69.48v-87a69.41,69.41,0,0,1-67.94,69.43V3092.52A23.93,23.93,0,0,0,2828.73,3071ZM2747.14,3211H2346.4V3092.52A23.93,23.93,0,0,0,2360,3071v-10.46h387.14Z"/></g><g class="cls-1"><path class="cls-7" d="M2278.41,2794.54v265.95h-99a69.45,69.45,0,0,1-69.47-69.47v-127a69.5,69.5,0,0,1,69.47-69.52Z"/></g><path class="cls-6" d="M2888,2800.53v127a69.46,69.46,0,0,1-69.48,69.47H2179.41a69.45,69.45,0,0,1-69.47-69.47v-127a69.49,69.49,0,0,1,69.47-69.51h639.07A69.5,69.5,0,0,1,2888,2800.53Z"/><g class="cls-1"><path class="cls-3" d="M2888,2800.52v58.29a69.5,69.5,0,0,0-69.48-69.52H2698.81a6.63,6.63,0,0,1,0,.89c0,31.9-40.41,57.78-90.23,57.78s-90.19-25.88-90.19-57.78a5.32,5.32,0,0,1,.05-.89H2179.41a69.5,69.5,0,0,0-69.47,69.52v-58.29a69.5,69.5,0,0,1,69.47-69.52h639.07A69.5,69.5,0,0,1,2888,2800.52Z"/></g><path class="cls-2" d="M2818.49,3013.4H2179.41a86,86,0,0,1-85.91-85.91v-127a86,86,0,0,1,85.91-86h639.08a86,86,0,0,1,85.91,86v127A86,86,0,0,1,2818.49,3013.4Zm-639.08-266a53.11,53.11,0,0,0-53,53.08v127a53.1,53.1,0,0,0,53,53h639.08a53.1,53.1,0,0,0,53-53v-127a53.11,53.11,0,0,0-53-53.08Z"/><rect class="cls-8" x="2236.06" y="2729.18" width="67.99" height="568.89" rx="26.85"/><g class="cls-4"><path class="cls-2" d="M2346.4,2753.16v41.38h-68v-41.38a24.06,24.06,0,0,1,24-24h20.08A24,24,0,0,1,2346.4,2753.16Z"/></g><g class="cls-1"><path class="cls-7" d="M2278.41,2940.18v154.07A24,24,0,0,1,2260,3071V2963.48A24,24,0,0,1,2278.41,2940.18Z"/></g><rect class="cls-9" x="2236.06" y="2729.18" width="67.99" height="568.89" rx="26.85"/><rect class="cls-9" x="2704.69" y="2729.18" width="67.99" height="568.89" rx="26.85"/><path class="cls-2" d="M2277.21,3314.51H2262.9a43.34,43.34,0,0,1-43.28-43.29V2756a43.34,43.34,0,0,1,43.28-43.29h14.31a43.34,43.34,0,0,1,43.28,43.29v515.19A43.34,43.34,0,0,1,2277.21,3314.51Zm-14.31-568.89a10.54,10.54,0,0,0-10.4,10.41v515.19a10.54,10.54,0,0,0,10.4,10.41h14.31a10.54,10.54,0,0,0,10.4-10.41V2756a10.54,10.54,0,0,0-10.4-10.41Z"/><path class="cls-2" d="M2745.84,3314.51h-14.3a43.34,43.34,0,0,1-43.29-43.29V2756a43.34,43.34,0,0,1,43.29-43.29h14.3a43.33,43.33,0,0,1,43.28,43.29v515.19A43.33,43.33,0,0,1,2745.84,3314.51Zm-14.3-568.89a10.55,10.55,0,0,0-10.41,10.41v515.19a10.55,10.55,0,0,0,10.41,10.41h14.3a10.54,10.54,0,0,0,10.4-10.41V2756a10.54,10.54,0,0,0-10.4-10.41Z"/><rect class="cls-10" x="2688.66" y="2938.77" width="100.05" height="155.42" rx="26.85"/><path class="cls-2" d="M2761.86,3110.62h-46.35a43.34,43.34,0,0,1-43.29-43.28V2965.61a43.34,43.34,0,0,1,43.29-43.28h46.35a43.34,43.34,0,0,1,43.29,43.28v101.73A43.34,43.34,0,0,1,2761.86,3110.62Zm-46.35-155.41a10.54,10.54,0,0,0-10.41,10.4v101.73a10.54,10.54,0,0,0,10.41,10.4h46.35a10.54,10.54,0,0,0,10.41-10.4V2965.61a10.54,10.54,0,0,0-10.41-10.4Z"/><rect class="cls-10" x="2217.61" y="2939.51" width="100.05" height="155.42" rx="26.85"/><path class="cls-2" d="M2291.46,3110.62H2245.1a43.33,43.33,0,0,1-43.28-43.28V2965.61a43.33,43.33,0,0,1,43.28-43.28h46.36a43.33,43.33,0,0,1,43.28,43.28v101.73A43.33,43.33,0,0,1,2291.46,3110.62Zm-46.36-155.41a10.54,10.54,0,0,0-10.4,10.4v101.73a10.54,10.54,0,0,0,10.4,10.4h46.36a10.54,10.54,0,0,0,10.4-10.4V2965.61a10.54,10.54,0,0,0-10.4-10.4Z"/><path class="cls-3" d="M2728.79,2501.54c-3.39,211.69-97.93,237.51-217.41,236.94-99.79-.53-106.44-76.95-106.44-76.95s-36.63-9.3-46.85-51c-9.26-37.68,29.92-94.89,42-111.33,2.2-2.95,3.48-4.58,3.48-4.58s4.1-24.95,4.14-68c0-8.37-.13-17.45-.48-27.15-2.52-65.67-14.81-160.56-55.67-268.85l98.59-356.64c174.8,188.28,252.9,365.9,274,616.76,1,11.38,1.85,22.92,2.56,34.6.35,5.6.66,11.24,1,16.93Q2729.3,2474.08,2728.79,2501.54Z"/><g class="cls-4"><path class="cls-2" d="M2728.79,2501.54c-3.39,211.69-97.93,237.51-217.41,236.94-99.79-.53-106.44-76.95-106.44-76.95s-36.63-9.3-46.85-51c-3.26-13.27-.53-29,4.93-44.47,13.89,29.75,45.61,9.86,45.61,9.86s3,103.41,102.75,103.94c116.53.57,209.3-24,217-221.52Q2729.21,2481.12,2728.79,2501.54Z"/></g><path class="cls-5" d="M2726.68,2425.29c-115.87-6.87-256.77-1.67-319,1.28,0-65.09-9.25-171.66-56.15-296l32-166.61,66.64-190C2632.85,1970.76,2709.89,2155.92,2726.68,2425.29Z"/><g class="cls-11"><path class="cls-3" d="M2726.68,2425.29c-115.87-6.87-256.78-1.67-319,1.28,0-10.89-.26-23-.92-36.05,71.61-2.56,178.19-4.63,269.29.79-15.34-246.19-81-422-231.74-600.77l5.81-16.61C2632.84,1970.76,2709.88,2155.91,2726.68,2425.29Z"/></g><path class="cls-2" d="M2388.65,2365.72c-3.38-19.42-5.75-38.84-8.46-58.28s-5.15-39-8.28-58.48-6.56-39-10.44-58.58-8-39.13-12.14-59a2.37,2.37,0,0,1,4.39-1.65,522.41,522.41,0,0,1,26.49,54.92c7.77,18.83,14.68,38,20.58,57.61s11.12,39.4,14.63,59.58,6,40.56,6,61.1a16.5,16.5,0,0,1-32.75,2.85Z"/><path class="cls-2" d="M2515.58,2754.91h-4.27c-89.7-.44-114.23-57.06-120.61-81.22-14.36-6.55-39.7-22.94-48.6-59.28-11.31-46.18,33-109.43,45.76-126.4,1.5-11.84,5.4-49.92,2-105.35a16.44,16.44,0,1,1,32.81-2c4.35,71.18-2.63,114.76-2.93,116.58a16.49,16.49,0,0,1-3.3,7.5C2396.6,2530,2367.53,2580,2374,2606.58c7.63,31.16,34,38.75,35.11,39.06a16.64,16.64,0,0,1,12.18,14.47c.64,6.18,8.72,61.51,90.14,61.91,56.51.31,113.76-4.82,150.82-43.68,39.09-41,55.1-117.93,48.95-235.24-14.52-277.39-91.12-461.86-273.19-658a16.44,16.44,0,0,1,24.09-22.37c187.91,202.4,267,392.66,281.94,678.62,6.73,128.6-11.7,211.1-58,259.65C2641.44,2747.83,2578,2754.91,2515.58,2754.91Z"/><path class="cls-2" d="M2417.79,2571.15l3.53,88.52v.31a16.51,16.51,0,0,1-33,1.31,17.27,17.27,0,0,1,.12-2.7l11-88.35a9.2,9.2,0,0,1,18.32.77Z"/><path class="cls-3" d="M1103.5,1638.75C1084.19,1572.89,1151,1519,1151,1519s-60.26-108.32-13.27-137.68c25.17-15.73,95,58.41,111.22,107s16.25,95.28,16.25,95.28"/><path class="cls-2" d="M1100.87,1639.52c-1.36-2.64-2.7-5.36-3.93-8.17-.61-1.41-1.29-2.82-1.84-4.27s-.82-2.95-1.19-4.45c-.7-3-1.68-6.05-2.12-9.15l-.8-9.42a103.63,103.63,0,0,1,6-37.42,142.86,142.86,0,0,1,17.53-33.16,181.11,181.11,0,0,1,11.56-14.63c2-2.39,4.23-4.58,6.41-6.83s4.34-4.27,7.31-6.81l-4.36,22.41a279.2,279.2,0,0,1-21.68-49.71c-5.51-17.32-10.07-35.29-10.51-55.43-.15-10,1-21,5.81-32.06,1-2.76,2.83-5.43,4.32-8.09,1.94-2.48,3.63-5.18,6-7.33l3.43-3.31,3.75-2.82c1.72-1.49,7.25-4.71,11.33-5.43,8.89-2.07,15.92-.48,21.63,1.19a77,77,0,0,1,15.08,6.64,151.25,151.25,0,0,1,23.6,16.8,242.86,242.86,0,0,1,37.4,40.09,212.37,212.37,0,0,1,15.12,23,156.4,156.4,0,0,1,12.07,25.75c.8,2.28,1.64,4.8,2.27,7l1.81,6.55c1.17,4.38,2.07,8.8,3,13.21a215.16,215.16,0,0,1,3.22,26.67c.77,17.86-.08,35.7-5.19,53.26a2.85,2.85,0,0,1-5.42.16l-.06-.16c-5.77-16.61-10.5-32.83-15.53-48.64-2.54-7.89-5-15.72-7.6-23.41-1.3-3.84-2.6-7.68-4-11.46l-2-5.67c-.7-1.85-1.34-3.34-2.07-5a187.48,187.48,0,0,0-11-20c-4.17-6.61-8.78-13.1-13.54-19.49a276,276,0,0,0-31.71-35.4,118.22,118.22,0,0,0-17.54-13.63,40.9,40.9,0,0,0-8.15-4,34.94,34.94,0,0,0-3.57-.9,1.39,1.39,0,0,1,.54-.26s.39-.36.08-.12l-.68.51-1.42,1c-.37.4-.76.79-1.17,1.16-.92.64-1.35,1.75-2.17,2.51-.49,1.13-1.31,1.91-1.71,3.2-2.15,4.6-3.13,11-2.86,18,.45,14.11,4.84,29.59,10.41,44.5,2.84,7.49,6,15,9.32,22.34s7,14.94,10.37,21.64l.49,1a17.27,17.27,0,0,1-4.85,21.45c-1.4,1.08-3.54,3-5.33,4.56l-5.53,5.26a144.79,144.79,0,0,0-10.56,11.18,186.28,186.28,0,0,0-18.14,24.56,127.1,127.1,0,0,0-12.35,27.74c-3,9.92-3.82,20.39-4.07,31.88v.33a2.78,2.78,0,0,1-5.25,1.21Z"/><g class="cls-4"><path class="cls-2" d="M2728.79,2501.54a28.07,28.07,0,0,1-13.75,2c-82.9-8.46-202.47-9.43-298.78-1.05a29.27,29.27,0,0,1-16.21-3.31c2.2-2.95,3.48-4.58,3.48-4.58s4.1-24.95,4.14-68c0-8.37-.13-17.45-.48-27.15,97.35-12.87,221.51-16.83,306.84-11.28a27.75,27.75,0,0,1,10.09,2.55c1,11.38,1.85,22.92,2.56,34.6.35,5.6.66,11.24,1,16.93Q2729.3,2474.08,2728.79,2501.54Z"/></g><path class="cls-3" d="M2715,2425.6c-82.9-8.48-202.48-9.44-298.78-1.08a29,29,0,0,1-31.62-27.51c-.61-13.59-1.6-28.2-3.08-43.74a29.11,29.11,0,0,1,25-31.72c97.48-13,221.93-16.91,307.45-11.37a29,29,0,0,1,26.88,25.51q3.48,28.64,6,58.41A29.09,29.09,0,0,1,2715,2425.6Z"/><g class="cls-4"><path class="cls-2" d="M2715,2425.6c-82.9-8.46-202.47-9.43-298.78-1.06a29,29,0,0,1-31.6-27.54c-.3-7.14-.75-14.59-1.32-22.3,95.33-7.89,212-6.79,293.36,1.49a29.1,29.1,0,0,0,31.86-31.51q-1.51-17.71-3.3-35l8.77.53a29.07,29.07,0,0,1,26.88,25.52q3.51,28.62,6,58.4A29,29,0,0,1,2715,2425.6Z"/></g><path class="cls-2" d="M2718,2442.19a45.55,45.55,0,0,1-4.65-.24h0c-84.57-8.64-203.4-9.07-295.69-1a45.94,45.94,0,0,1-34-11.13,44.9,44.9,0,0,1-15.41-32c-.64-14.07-1.65-28.51-3-42.93a45.41,45.41,0,0,1,39.24-49.57c95.68-12.72,220.54-17.34,310.68-11.48a45.47,45.47,0,0,1,42.13,39.94c2.34,19.28,4.37,39.13,6,59a45.55,45.55,0,0,1-45.25,49.46Zm-1.31-33a12.38,12.38,0,0,0,10-3.51,12.82,12.82,0,0,0,3.78-10.25c-1.62-19.49-3.61-38.94-5.89-57.81a12.61,12.61,0,0,0-11.63-11.09c-88.22-5.72-210.47-1.19-304.22,11.27a12.63,12.63,0,0,0-10.84,13.86c1.42,15,2.48,29.95,3.14,44.56a12.31,12.31,0,0,0,4.23,8.76,12.62,12.62,0,0,0,9.55,3.11c94.14-8.17,215.45-7.73,301.87,1.1Z"/><path class="cls-3" d="M2423.85,1642.5C2315.07,1736.69,1856.63,2230,1856.63,2230l-132-493A2357.16,2357.16,0,0,1,1830,1506l557.05,35.48Q2406.55,1592.47,2423.85,1642.5Z"/><path class="cls-3" d="M2423.85,1642.5C2315.07,1736.69,1856.63,2230,1856.63,2230l-132-493A2357.16,2357.16,0,0,1,1830,1506l557.05,35.48Q2406.55,1592.47,2423.85,1642.5Z"/><path class="cls-2" d="M1856.63,2246.39a16.46,16.46,0,0,1-15.87-12.19l-132-493a16.39,16.39,0,0,1,.58-10.26,2382.57,2382.57,0,0,1,106.07-232.6,16.58,16.58,0,0,1,15.61-8.79L2388.09,1525a16.45,16.45,0,0,1,14.31,10.54c12.78,33.44,25.22,67.6,37,101.55a16.45,16.45,0,0,1-4.77,17.81c-106.86,92.53-561.35,581.29-565.93,586.21A16.46,16.46,0,0,1,1856.63,2246.39Zm-114.69-508.46L1864.84,2197c88.39-94.83,432.52-462.8,539.86-559.52-9.4-26.86-19.22-53.8-29.26-80.33L1839.64,1523A2351.78,2351.78,0,0,0,1741.94,1737.93Z"/><path class="cls-2" d="M1856.63,2246.39a16.46,16.46,0,0,1-15.87-12.19l-132-493a16.39,16.39,0,0,1,.58-10.26,2382.57,2382.57,0,0,1,106.07-232.6,16.58,16.58,0,0,1,15.61-8.79L2388.09,1525a16.45,16.45,0,0,1,14.31,10.54c12.78,33.44,25.22,67.6,37,101.55a16.45,16.45,0,0,1-4.77,17.81c-24.83,21.5-70.61,66.31-136.07,133.19-172.62,176.34-427.31,450.28-429.86,453A16.46,16.46,0,0,1,1856.63,2246.39Zm-114.69-508.46,122.9,459.1c63.94-68.56,265.72-284.31,410.21-431.91,59.4-60.69,102.93-103.54,129.65-127.62-9.4-26.86-19.22-53.8-29.26-80.33L1839.64,1523A2351.78,2351.78,0,0,0,1741.94,1737.93Z"/><path class="cls-9" d="M1880.52,1828.29l-30.72,40.81a26.4,26.4,0,0,0-3,26.67l21.37,47.63a26.43,26.43,0,0,0,22.88,15.56l34.19,1.55a26.41,26.41,0,0,0,21-8.92l36.11-41a26.38,26.38,0,0,0,2-32.35l-33.56-49a26.38,26.38,0,0,0-21.76-11.47H1901.6A26.38,26.38,0,0,0,1880.52,1828.29Z"/><path class="cls-2" d="M1926.47,1977c-.66,0-1.32,0-2,0l-34.19-1.55a42.63,42.63,0,0,1-37.13-25.26l-21.36-47.62a42.83,42.83,0,0,1,4.85-43.29l30.72-40.81h0a43,43,0,0,1,34.21-17.06H1929a42.82,42.82,0,0,1,35.34,18.62l33.55,49a42.8,42.8,0,0,1-3.18,52.51l-36.11,41A42.63,42.63,0,0,1,1926.47,1977Zm-32.82-138.8-30.72,40.8a9.94,9.94,0,0,0-1.12,10.06l21.36,47.63a9.91,9.91,0,0,0,8.63,5.86l34.18,1.56a9.84,9.84,0,0,0,7.93-3.37l36.1-41a10,10,0,0,0,.74-12.2l-33.56-49a9.93,9.93,0,0,0-8.21-4.33H1901.6a10,10,0,0,0-7.95,4Z"/><path class="cls-2" d="M1872.16,2871.49a16.44,16.44,0,0,1-16.08-13.09c-69.8-335.33-16.15-628.57-15.6-631.49a16.44,16.44,0,0,1,32.31,6.08c-.54,2.86-52.93,290,15.48,618.71a16.45,16.45,0,0,1-12.74,19.45A16.9,16.9,0,0,1,1872.16,2871.49Z"/><g class="cls-4"><path class="cls-2" d="M2474.09,1800.33a0,0,0,0,1,0,0c-15.43,15.12-31.56,29.4-48.22,42.75-126.58,101.59-285.91,152.45-445.9,145.14q-19-.93-38-2.82a660.51,660.51,0,0,1-187.62-48.22c-5-2.12-10-4.28-15-6.57a644.5,644.5,0,0,1-70.17-36.76c-2.91-1.71-5.77-3.43-8.64-5.24-10-6.35-19.92-12.83-29.48-19.52a672.7,672.7,0,0,1-56.15-43.86,661,661,0,0,1-95.64-103.13c59,32.22,130.23,60.2,220.76,80.35A2370.69,2370.69,0,0,1,1830,1506L2387,1541.44C2420.94,1630.25,2449.94,1717,2474.09,1800.33Z"/></g><path class="cls-3" d="M1386.9,1461.39a659,659,0,0,0,188,275.73,670.46,670.46,0,0,0,56.17,43.86c9.55,6.71,19.42,13.19,29.48,19.53a663.44,663.44,0,0,0,93.78,48.54A658.66,658.66,0,0,0,1942,1897.28q19,1.92,38,2.83c231.75,10.58,462.25-100.93,593.58-311.89,193.51-310.73,98.44-719.48-212.24-913A661.42,661.42,0,0,0,2173,595.06c-7.57-2-15.23-3.74-22.91-5.34q-30.77-6.65-61.77-10.27a666.48,666.48,0,0,0-282.09,28q-21.51,7-42.58,15.42A662.12,662.12,0,0,0,1448.3,887.53C1337,1066.27,1321.17,1277.41,1386.9,1461.39Z"/><path class="cls-2" d="M2010.22,1902.46q-15.13,0-30.35-.7c-12.65-.6-25.46-1.56-38.09-2.83a665.7,665.7,0,0,1-282.12-97c-11-6.94-20.69-13.35-29.56-19.58a671.87,671.87,0,0,1-56.31-44A662.87,662.87,0,0,1,1385.35,1462c-68.75-192.43-46.32-402.11,61.54-575.3A664.13,664.13,0,0,1,1763,621.38c13.79-5.54,28.15-10.74,42.7-15.45a667.77,667.77,0,0,1,282.78-28.12c20.62,2.41,41.45,5.87,61.93,10.29,8.19,1.71,15.71,3.46,23,5.36a663,663,0,0,1,188.74,80.37c311,193.7,406.44,604.28,212.77,915.26C2453.42,1784.31,2239.11,1902.45,2010.22,1902.46Zm1.61-1325.8a665.77,665.77,0,0,0-205.08,32.42c-14.48,4.68-28.77,9.86-42.48,15.37A660.42,660.42,0,0,0,1449.71,888.4c-107.33,172.32-129.65,381-61.25,572.44a659.66,659.66,0,0,0,187.5,275,671.13,671.13,0,0,0,56,43.75c8.82,6.2,18.45,12.58,29.42,19.49a662.91,662.91,0,0,0,93.53,48.41,657.26,657.26,0,0,0,187.17,48.12c12.56,1.26,25.32,2.21,37.9,2.82,10.08.46,20.17.69,30.2.69,227.77,0,441-117.55,561.9-311.81,192.7-309.43,97.73-718-211.71-910.7a659.49,659.49,0,0,0-187.82-80c-7.23-1.89-14.7-3.63-22.84-5.33-20.38-4.39-41.11-7.83-61.62-10.24A658.34,658.34,0,0,0,2011.83,576.66Z"/><g class="cls-4"><path class="cls-2" d="M2573.52,1588.2c-131.3,211-361.84,322.5-593.59,311.89q-19-.88-38-2.82a664.08,664.08,0,0,1-281.44-96.75c-10-6.37-19.9-12.82-29.48-19.52a678.6,678.6,0,0,1-56.16-43.89,658.78,658.78,0,0,1-188-275.74,667.16,667.16,0,0,1-37.29-178.11,661.64,661.64,0,0,0,238.82,305.28c9.54,6.7,19.41,13.16,29.48,19.52a665.89,665.89,0,0,0,177.79,77.48,659.39,659.39,0,0,0,103.62,19.28q19,1.92,38,2.81c231.75,10.61,462.24-100.89,593.59-311.89a659.62,659.62,0,0,0,98.62-395.84C2701.42,1187.23,2687.76,1404.8,2573.52,1588.2Z"/></g><path class="cls-2" d="M2010.22,1913.54q-15.39,0-30.86-.7c-12.87-.62-25.87-1.58-38.7-2.88a671.37,671.37,0,0,1-191.31-49.17,679.44,679.44,0,0,1-95.55-49.46c-11.23-7.08-21-13.59-30.08-19.92a690,690,0,0,1-57.21-44.68,674.11,674.11,0,0,1-191.61-281c-69.89-195.63-47.08-408.82,62.58-584.89a675.13,675.13,0,0,1,321.41-269.7c14-5.64,28.63-10.92,43.42-15.71a679.21,679.21,0,0,1,287.49-28.59c21,2.46,42.16,6,63,10.47,8.29,1.73,16,3.52,23.44,5.47A673.79,673.79,0,0,1,2368,664.41c316.18,196.94,413.22,614.38,216.32,930.54C2460.8,1793.42,2242.93,1913.54,2010.22,1913.54Zm1.61-1325.79a655.57,655.57,0,0,0-201.66,31.87c-14.24,4.61-28.29,9.7-41.76,15.12a649.6,649.6,0,0,0-309.29,259.52c-105.53,169.43-127.48,374.58-60.21,562.85h0a648.44,648.44,0,0,0,184.34,270.4,660.24,660.24,0,0,0,55.09,43c8.7,6.11,18.18,12.39,29,19.2a653.21,653.21,0,0,0,91.92,47.57,645.64,645.64,0,0,0,184,47.31c12.32,1.24,24.88,2.18,37.28,2.77,9.9.45,19.82.68,29.68.68,223.94,0,433.58-115.58,552.46-306.58,189.48-304.24,96.1-705.93-208.15-895.43a648.45,648.45,0,0,0-184.66-78.63c-7.15-1.87-14.44-3.57-22.4-5.23-20.11-4.34-40.49-7.72-60.65-10.09A647,647,0,0,0,2011.83,587.75Z"/><path class="cls-2" d="M2010.22,1917.24q-15.46,0-31-.71c-13-.62-26-1.59-38.91-2.89a675.56,675.56,0,0,1-192.38-49.45,681.94,681.94,0,0,1-96.06-49.73c-11.3-7.12-21.18-13.66-30.25-20a687.55,687.55,0,0,1-57.51-44.91,677.73,677.73,0,0,1-192.67-282.6h0c-70.27-196.7-47.34-411.05,62.92-588.08a678.62,678.62,0,0,1,323.17-271.17c14.11-5.68,28.79-11,43.66-15.81a682.91,682.91,0,0,1,289.06-28.74c21.09,2.47,42.39,6,63.32,10.53,8.34,1.73,16.09,3.54,23.6,5.5A677.45,677.45,0,0,1,2370,661.27c317.91,198,415.49,617.74,217.51,935.64C2463.26,1796.46,2244.2,1917.24,2010.22,1917.24Zm1.61-1325.8a651.45,651.45,0,0,0-200.52,31.7c-14.16,4.58-28.13,9.64-41.53,15a645.84,645.84,0,0,0-307.53,258c-104.92,168.48-126.74,372.46-59.87,559.65h0a644.81,644.81,0,0,0,183.29,268.86,656.73,656.73,0,0,0,54.79,42.78c8.65,6.08,18.08,12.32,28.84,19.1a648.71,648.71,0,0,0,91.38,47.29,642,642,0,0,0,183,47c12.25,1.24,24.74,2.17,37.07,2.76,9.85.45,19.72.67,29.52.67,222.65,0,431.11-114.92,549.32-304.83,188.4-302.51,95.55-701.92-207-890.34A644.85,644.85,0,0,0,2169,611c-7.13-1.86-14.36-3.55-22.25-5.19-20-4.32-40.29-7.68-60.33-10A641.86,641.86,0,0,0,2011.83,591.44Z"/><path class="cls-2" d="M1464.08,1612.69C1806.41,1940.12,2358,1829.57,2457,1371c67.39-312-186.08-618.88-489.89-664.41-221.12-33.14-451.49,31.24-596.73,360.36,0,0-41.8,155.63-15.17,267.65s71.43,216.48,71.43,216.48Z"/><path class="cls-12" d="M2457,1371c-99,458.59-650.59,569.13-992.91,241.74l-7.57-12.51c410.6,140.59,870.41-47.22,979.18-509C2468,1178.89,2477.76,1274.68,2457,1371Z"/><path class="cls-2" d="M1920.89,1885.66A718.49,718.49,0,0,1,1750.41,1865a17.7,17.7,0,0,1-2.46-.81,683.09,683.09,0,0,1-96.11-49.75c-11.29-7.12-21.17-13.66-30.24-20a687.55,687.55,0,0,1-57.51-44.91,677.73,677.73,0,0,1-192.67-282.6h0c-70.27-196.7-47.34-411.05,62.92-588.08A677.77,677.77,0,0,1,1694.13,637a16.53,16.53,0,0,1,3.16-1.26c84.14-23.9,178.24-28.31,279.69-13.11,180.68,27.08,353.56,137.33,462.46,294.93,100.06,144.82,136.22,312.31,101.8,471.62-37.41,173.15-131.92,311.45-273.32,399.92C2166.29,1852.71,2045.37,1885.65,1920.89,1885.66Zm-161.41-52.27c172.12,41.73,351,15.46,491-72.15,133.7-83.66,223.13-214.71,258.63-379,32.47-150.34-1.87-308.73-96.72-446C2308.56,786,2144,680.91,1972.1,655.16c-96.12-14.41-185-10.45-264.19,11.75a645,645,0,0,0-245.66,229.3c-104.92,168.48-126.74,372.46-59.87,559.65h0a644.81,644.81,0,0,0,183.29,268.86,656.73,656.73,0,0,0,54.79,42.78c8.65,6.08,18.08,12.32,28.84,19.1A649,649,0,0,0,1759.48,1833.39Z"/><path class="cls-2" d="M1920,1817.86c-167.42,0-336-67.76-467.27-193.29a16.69,16.69,0,0,1-2.69-3.35l-37.43-61.63a16,16,0,0,1-1.06-2.06c-1.85-4.31-45.67-107-72.32-219.16-27.28-114.75,13.53-269.19,15.28-275.71a16.81,16.81,0,0,1,.84-2.38c126.9-287.55,333.51-412,614.21-370,161.23,24.17,315.5,122.54,412.66,263.15,89.31,129.24,121.58,278.75,90.86,421-44.36,205.39-181.54,357.45-376.36,417.17A602.1,602.1,0,0,1,1920,1817.86ZM1477,1602.3c169.28,160.91,402.84,221.4,610.07,157.87,183.11-56.13,312.09-199.26,353.86-392.67,28.79-133.26-1.68-273.67-85.77-395.36-92.09-133.28-238.07-226.48-390.48-249.32-263.78-39.52-458.5,78.06-578.73,349.53-3.69,14.38-38.91,156.81-14.75,258.42,24.58,103.41,65.43,201.66,70.11,212.77Z"/><ellipse class="cls-3" cx="2579.49" cy="1379.17" rx="237.03" ry="172.23" transform="translate(843.27 3733.19) rotate(-81.72)"/><path class="cls-2" d="M2563.48,1631.47c-2.17,0-4.33,0-6.5-.15-41.38-1.88-79.07-21-109-55.37-43.88-50.37-64.77-125.5-57.33-206.14,12.8-138.59,107.45-247.57,211.34-242.8,41.37,1.89,79.06,21,109,55.38,43.87,50.37,64.77,125.5,57.32,206.14C2755.78,1524.22,2664.64,1631.47,2563.48,1631.47Zm31.88-471.73c-84.43,0-161,94.14-172,213.09-6.53,70.68,11.93,138.54,49.38,181.52,23.87,27.41,53.5,42.66,85.68,44.13,86.46,4,165.9-91.61,177.1-213l16.37,1.51-16.37-1.51c6.53-70.67-11.93-138.53-49.38-181.51-23.87-27.41-53.5-42.67-85.68-44.13C2598.79,1159.78,2597.07,1159.74,2595.36,1159.74Z"/><ellipse class="cls-3" cx="2632.95" cy="1403.95" rx="188.12" ry="140.33" transform="translate(783.23 3745.32) rotate(-79.76)"/><path class="cls-2" d="M2618,1592.57c-20.72,0-40.73-6-59.09-17.93-67.85-44-90-156.36-49.35-250.41,22.76-52.67,61.05-90.51,105.06-103.82,32.39-9.8,64.34-5.36,92.41,12.85,67.85,44,90,156.36,49.35,250.41-22.75,52.67-61.05,90.51-105.06,103.82A114.82,114.82,0,0,1,2618,1592.57Zm29.91-373.79a111.26,111.26,0,0,0-32.3,4.92c-43,13-80.54,50.16-102.89,101.89-40,92.59-18.44,203,48.07,246.16,27.18,17.64,58.14,22,89.54,12.45,43-13,80.54-50.15,102.9-101.89,40-92.59,18.43-203-48.07-246.16C2687.36,1224.61,2668,1218.78,2647.89,1218.78Z"/><g class="cls-4"><path class="cls-2" d="M2493.62,1471.11c-5.47-35.22-1.31-72.07,10.23-106,19.24,79.25,86.22,117,155.58,84.83,44.82-20.79,80.31-66.07,98.13-118.53,1.25,5,2.25,10.21,3.09,15.55,13.9,89.68-34.61,190.18-108.36,224.44S2507.52,1560.74,2493.62,1471.11Z"/></g><path class="cls-2" d="M2618.91,1607.76c-1.29,0-2.59,0-3.9-.07-30.74-1.16-58.9-15.38-81.43-41.15-35.45-40.52-52.68-105.52-46.1-173.87,11-114.45,85.18-205.08,165.76-202.08,30.74,1.15,58.9,15.38,81.44,41.14,35.44,40.52,52.68,105.52,46.1,173.87l-16.37-1.57,16.37,1.57C2769.94,1518.19,2697.79,1607.76,2618.91,1607.76Zm30.25-384.37c-62.21,0-119.71,76.46-128.95,172.43-5.73,59.51,8.51,115.24,38.11,149.08,16.43,18.77,36.46,29.13,57.92,29.93,1,0,1.91.06,2.85.06,62.22,0,119.72-76.47,129-172.44h0c5.73-59.51-8.52-115.24-38.12-149.08-16.43-18.77-36.45-29.12-57.92-29.93C2651.06,1223.41,2650.11,1223.39,2649.16,1223.39Z"/><g class="cls-11"><path class="cls-3" d="M2105.9,845.27s-300-25.58-489.12,121l-.6.46A283.74,283.74,0,0,0,1527,1085.48c-24.73,61.83-32.72,108.07-38.18,149-16.56,124.61-1,186.1-1,186.1-62.13-75.26-92.13-155.31-79.37-259.25q1.92-15.36,5.08-31.49c.47-2.47,1-4.92,1.56-7.37,0,0,0-.08.05-.14a704.85,704.85,0,0,1,26.76-80c37.25-92.49,108.2-210.15,236-252.14C1916.84,711.69,2117.89,833.62,2105.9,845.27Z"/></g><g class="cls-11"><ellipse class="cls-3" cx="2286.8" cy="1181.54" rx="88.59" ry="103.24" transform="translate(-133.26 304.74) rotate(-7.41)"/></g><g class="cls-11"><ellipse class="cls-3" cx="2310.98" cy="1367.55" rx="36.58" ry="42.63" transform="translate(-237.55 521.51) rotate(-12.25)"/></g><path class="cls-2" d="M1854.33,2260.15a16.43,16.43,0,0,1-12.46-5.72l-142.18-165.11a16.46,16.46,0,0,1-3.21-15.72l17.21-53.95-44.09-24.07a16.45,16.45,0,0,1-8.56-14.43V1810.7a16.44,16.44,0,0,1,32.88,0v160.69l47.42,25.9a16.43,16.43,0,0,1,7.79,19.42l-18.53,58.12,128.92,149.71L2131.16,2131l10.73-84.33a16.47,16.47,0,0,1,11.09-13.51L2335.66,1972l8.26-166.33a16.44,16.44,0,1,1,32.83,1.63l-8.81,177.54a16.43,16.43,0,0,1-11.2,14.77l-183.53,61.47-10.73,84.23a16.42,16.42,0,0,1-11,13.46l-291.84,100.49A16.51,16.51,0,0,1,1854.33,2260.15Z"/><polygon class="cls-9" points="1942.58 1954.97 1958.81 2120.64 1856.63 2229.95 1819.42 2090.92 1871.35 1948.63 1942.58 1954.97"/><path class="cls-2" d="M1856.63,2246.39a16.43,16.43,0,0,1-15.87-12.19l-37.22-139a16.46,16.46,0,0,1,.43-9.89L1855.91,1943a16.43,16.43,0,0,1,16.9-10.74l71.23,6.35a16.44,16.44,0,0,1,14.9,14.77L1975.17,2119a16.45,16.45,0,0,1-4.35,12.82l-102.17,109.32A16.48,16.48,0,0,1,1856.63,2246.39Zm-20-154.71,28.21,105.4,76.87-82.24-14.17-144.7-45.09-4Z"/><path class="cls-2" d="M1988.94,2024.81a16.42,16.42,0,0,1-13.15-6.56l-42.69-56.78a16.44,16.44,0,1,1,26.28-19.76l34.34,45.68L2129.94,1917a16.43,16.43,0,0,1,15.09,29.2L1996.48,2023A16.41,16.41,0,0,1,1988.94,2024.81Z"/><path class="cls-2" d="M1828,1997.11a16.46,16.46,0,0,1-12-5.15l-53.2-56.32a16.44,16.44,0,1,1,23.9-22.58l44,46.58,29.44-18.19a16.44,16.44,0,0,1,17.29,28l-40.84,25.23A16.39,16.39,0,0,1,1828,1997.11Z"/><circle class="cls-2" cx="1902.84" cy="2323.9" r="25.71" transform="translate(-695.85 3829.93) rotate(-80.78)"/><circle class="cls-2" cx="1902.84" cy="2462.16" r="25.71"/><circle class="cls-2" cx="1907.14" cy="2604.95" r="25.71"/></svg>