<svg id="Layer_1" data-name="Layer 1" xmlns="http://www.w3.org/2000/svg" viewBox="0 0 4000 4000"><defs><style>.cls-1{fill:#fff;}.cls-2{opacity:0.35;}.cls-3{fill:#371a45;}.cls-4{fill:#008cff;}.cls-5{fill:#afb2b1;}.cls-6{opacity:0.2;}.cls-7{fill:#fce85b;}.cls-8{fill:#220f2d;}.cls-9{opacity:0.5;}.cls-10{opacity:0.4;}.cls-11{fill:#ffda22;}.cls-12{opacity:0.6;}.cls-13{fill:#fa0;}</style></defs><path class="cls-1" d="M1779.88,2340.32s-17,121.82-113.31,225.38c-73.35,78.9-191.77,84.26-182.91,158.62h599.51Z"/><path class="cls-1" d="M2083.16,2724.32H1483.68c-8.87-74.37,109.53-79.73,182.88-158.63,45.48-49,73.32-102,90-144.28a434.7,434.7,0,0,0,21.36-70.35c1.45-6.92,2-10.76,2-10.76l87,110.18,24.47,31,178.68,226.26Z"/><g class="cls-2"><path class="cls-3" d="M2083.16,2724.32H1660.23c32.36-17,61.39-44.91,97.21-67.75,56.09-35.75,61.2-129,52-160.69Z"/></g><path class="cls-3" d="M2083.17,2738.8H1483.66a14.48,14.48,0,0,1-14.38-12.77c-6.34-53.24,39.34-77.14,87.72-102.44,32.83-17.18,70-36.64,99-67.75,91.8-98.75,109.41-216.37,109.58-217.54a14.48,14.48,0,0,1,25.7-7l303.29,384a14.48,14.48,0,0,1-11.36,23.46Zm-584.87-29h555L1787.6,2373.46c-11.48,44-40.85,127.26-110.42,202.1-32.31,34.75-71.86,55.44-106.76,73.69C1528.63,2671.12,1502.52,2686,1498.3,2709.84Z"/><path class="cls-1" d="M3183.14,2042c-12.1,24.73-40.38,40.55-83.82,40.81-55.18.29-56.38,7.82-56,9.48a1.85,1.85,0,0,0,.15.33s9.45,14.73,22.23,39c0,.08.07.18.11.26.54,1,1.08,2,1.63,3a1,1,0,0,0,.14.29c38.38,73.9,102.79,228,37.51,331-80,126.07-446.65,188.06-574.21,221.48-104.64,27.44-298.56,39.53-460.81,20.06-35.62-4.28-69.69-10.07-101-17.57-101.85-24.36-151.2-151.23-174.15-245.81a836.59,836.59,0,0,1-17-93.3c-1-8.47-1.41-13.29-1.41-13.29s269.7-229.55,647.6-253.81a983.5,983.5,0,0,1,193.67,6.52c115,15.38,188.28,45.22,188.28,45.22,17.88-51.6-42.08-133.32-5.11-207.11,43.45-86.75,307.58-109.23,376.12,32.41C3192,1991.85,3193.78,2020.38,3183.14,2042Z"/><path class="cls-1" d="M3065.79,2131.9c.54,1,1.08,2,1.63,3A16.34,16.34,0,0,1,3065.79,2131.9Z"/><g class="cls-2"><path class="cls-3" d="M3183.14,2042c-12.1,24.73-40.38,40.55-83.82,40.81-55.18.29-56.38,7.82-56,9.48-24-35.44-56.15-72.63-56.15-72.63s22.91-4.85,77,25.42C3094.32,2062,3156,2073.82,3183.14,2042Z"/></g><g class="cls-2"><path class="cls-3" d="M3105.07,2466.2c-227.38,211.9-814.33,293.53-1136,224-86.83-20.79-135.48-116-162.16-202.26a123.49,123.49,0,0,0-50-66.28l-.37-.25c13.53-38.91,23.29-59.91,20-83.64,0,0,269.7-229.55,647.6-253.81-94.9,309.76-343.29,493.76-615.42,367.46,28.68,72.35,74.48,141.25,146.75,158.52,173.83,41.6,434.24,31,561.79-2.5,41.75-10.93,45.33-312.54,88.6-249.25,209.61,306.71,464.4,96.28,493.36,47.29,24.84-42,22.12-98.27,19.81-141.39C3137.33,2331.8,3142.4,2407.36,3105.07,2466.2Z"/></g><path class="cls-3" d="M1838.54,2557.2c14.39,23.55,29.57,46.35,47.83,65.77a225,225,0,0,0,29.11,26.46,157.45,157.45,0,0,0,33.13,19c11.74,5,23.4,7.71,37.27,10.3l20,4,20.26,3.18c27,4.46,54.28,7.3,81.59,10,109.38,9.63,220.64,8.62,329.58-5.52,27.15-3.77,54.29-8.07,80.52-14.6l9.91-2.34,10.25-2.61,20.43-5,40.75-9.44c54.23-12.34,108.24-24.69,161.71-38.84s106.42-29.81,157.77-49.11a758.25,758.25,0,0,0,75-32.58c24.11-12.28,47.3-26.21,67.39-42.95,5.24-4,9.6-8.69,14.33-13.08,2.29-2.25,4.22-4.73,6.36-7.07a58.81,58.81,0,0,0,5.9-7.31c1.77-2.54,3.64-5,5.38-7.58l4.69-8.26a64.93,64.93,0,0,0,4.27-8.5c1.27-2.92,2.72-5.74,3.86-8.72,9.13-23.83,13.07-49.89,12.52-76.26-.22-26.38-4.66-53-11-79.11a561.08,561.08,0,0,0-25.67-77.06,724.57,724.57,0,0,0-35.31-73.68c-3.26-6-6.66-11.86-10.1-17.68l-2.6-4.33-1.31-2.12-.65-1-.3-.48a16.75,16.75,0,0,1-1.93-4.12,16.13,16.13,0,0,1-.61-6.51,19,19,0,0,1,1.37-5,21.13,21.13,0,0,1,1.91-3.2,14.05,14.05,0,0,1,1.81-2.08q.87-.86,1.8-1.62c.52-.41.9-.65,1.37-1a24.13,24.13,0,0,1,2.6-1.55,42.28,42.28,0,0,1,7.64-2.88c8.67-2.25,15.93-2.87,23.37-3.53s14.55-.83,21.68-.92c7.52,0,13.3-.49,19.76-.73,6.12-.93,12.42-1.46,18.15-3.25,11.66-3,22.28-8.16,30-15.68a48.42,48.42,0,0,0,14.22-28.22c1.66-11,.14-23-3.4-34.76-1-2.92-1.76-5.9-3-8.78l-3.74-8.65c-1.31-2.85-3-5.53-4.43-8.31l-2.24-4.14-2.64-3.89c-6.65-10.66-15.4-19.9-24.79-28.37-19.06-16.83-42.62-28.75-67.5-36.89a288.83,288.83,0,0,0-78-12.94c-6.64-.4-13.3-.07-20-.1-6.63.4-13.3.5-19.9,1.27a286.89,286.89,0,0,0-39.26,6.16,226,226,0,0,0-37.45,11.7c-12,4.92-23.36,10.89-33.16,18.28l-7,5.79c-2,2.12-4.19,4.14-6.12,6.29-1.64,2.28-3.68,4.39-5.07,6.74s-2.91,4.38-4.08,7.35a102.54,102.54,0,0,0-9.26,35.18c-2.17,24.86,3.48,51,9.89,77.82,3.17,13.5,6.63,27.27,8.78,42.09,2,14.66,3.19,31.11-2.57,48.06a14.38,14.38,0,0,1-18.24,9l-.59-.22-.31-.12c-9.74-3.82-20.64-7.47-31.18-10.8s-21.42-6.43-32.22-9.38q-32.47-8.67-65.6-15c-22-4.23-44.26-7.84-66.57-10.29l-33.47-3.67-33.61-2.17a1035.78,1035.78,0,0,0-134.62,2.27,1068.94,1068.94,0,0,0-133.22,20.38,1137.92,1137.92,0,0,0-254.71,88.06c-81.08,39.49-158.06,85.94-235.76,132.92l-.15.09a4.87,4.87,0,0,1-6.11-7.45c15.82-17.26,33.22-32.38,51.31-46.73,9-7.24,18.34-14,27.66-20.8,9.49-6.54,18.94-13.17,28.68-19.33,38.7-25.11,79.61-46.68,121.48-66,83.73-38.51,171.12-69.64,261.44-89.1a1098.73,1098.73,0,0,1,136.9-20.93,1064.75,1064.75,0,0,1,138.59-2.34l34.61,2.24,34.49,3.78c23,2.53,45.81,6.24,68.52,10.59s45.27,9.51,67.65,15.48c11.18,3.06,22.33,6.2,33.41,9.73s21.93,7.1,33.41,11.6l-19.15,8.67c3.38-9.57,3.11-21.8,1.26-34.47s-5.1-26-8.3-39.51c-6.36-27-13.14-56.1-10.56-87a131.56,131.56,0,0,1,11.91-45c1.41-3.51,4-7.27,6-10.86,2.21-3.59,5-6.61,7.46-9.9,2.69-3,5.59-5.78,8.41-8.64,3-2.59,6-5,9.06-7.54,12.44-9.36,25.9-16.3,39.61-22a254.47,254.47,0,0,1,42.05-13.16,316.79,316.79,0,0,1,43.06-6.77c7.21-.82,14.46-1,21.7-1.38,7.24,0,14.49-.31,21.74.11a317.92,317.92,0,0,1,86,14.31c27.86,9.11,55,22.66,77.75,42.7,11.22,10.07,21.73,21.28,29.88,34.22,8.32,12.82,15.2,26.38,19.56,41.29s6.78,31,4.32,47.5a77.55,77.55,0,0,1-22.73,44.7c-12.3,11.9-27.67,19-42.78,22.88-7.61,2.26-15.23,3-22.84,4.07-7.43.36-15.52.86-21.91.85-6.76.08-13.44.39-20,.84a112.23,112.23,0,0,0-17.81,2.55c-1.06.3-2,.67-2.14.72s.29-.11.37-.22l.28-.24a6.55,6.55,0,0,0,.85-.73c.35-.37.28-.35.93-1.13a8.81,8.81,0,0,0,1.21-2.1,11,11,0,0,0,1-3.7,12.37,12.37,0,0,0-.49-5.23c-1-2.81-2.09-4.11-1.33-3l.39.63.73,1.16,1.42,2.32,2.78,4.61c3.64,6.15,7.18,12.3,10.58,18.52a754,754,0,0,1,36.74,76.66,589.42,589.42,0,0,1,27,81.06c6.78,27.83,11.61,56.45,11.88,85.72.6,29.18-3.7,59.11-14.53,87.25-1.34,3.51-3,6.9-4.56,10.35a83.73,83.73,0,0,1-5.07,10.11l-5.63,9.85c-2.12,3.19-4.43,6.3-6.66,9.44a79.15,79.15,0,0,1-7.17,8.91c-2.53,2.8-4.93,5.79-7.59,8.42-5.42,5.09-10.63,10.54-16.43,15-22.68,18.86-47.53,33.64-72.91,46.59a783.52,783.52,0,0,1-77.9,33.84c-52.76,19.84-106.57,35.71-160.61,50s-108.46,26.73-162.65,39.07l-40.51,9.38-20.08,4.88-10,2.53-10.38,2.47c-27.75,6.88-55.62,11.28-83.52,15.15a1602.49,1602.49,0,0,1-167.91,12.56c-56.07,1.39-112.27.37-168.31-4.78-28-2.54-56-5.94-83.84-10.94l-20.84-3.84-20.74-4.7c-13.4-2.7-28.8-7.06-42.38-13.65-27.69-12.87-50.08-33.88-67.51-56.94-17.53-23.23-30.31-49-39.89-75.57a4.85,4.85,0,0,1,8.7-4.18Z"/><path class="cls-4" d="M1913.43,2904.58l508.93-156.91a53.31,53.31,0,0,0,40.27-51.33h0l-864.2-6.46v222.63l227.85,2.42A341.72,341.72,0,0,0,1913.43,2904.58Z"/><g class="cls-2"><path class="cls-3" d="M2460.49,2710.9a53.21,53.21,0,0,1-38.12,36.76l-508.94,156.92a341.58,341.58,0,0,1-87.15,10.34l-227.86-2.42,14.37-31.08,227.86,3.88a340.39,340.39,0,0,0,87.21-9.79l510-152.69A52.39,52.39,0,0,0,2460.49,2710.9Z"/></g><path class="cls-3" d="M1829.92,2927.45l-3.76,0-240.22-2.55V2677.29l889.28,6.64-.08,12.49a65.82,65.82,0,0,1-49.38,63.29l-509.26,157A354,354,0,0,1,1829.92,2927.45Zm83.51-22.87h0Zm-302.49-4.44,215.48,2.29a327.2,327.2,0,0,0,83.65-9.89l509.23-157a40.83,40.83,0,0,0,28.79-26.83l-837.16-6.26Z"/><path class="cls-4" d="M1899.15,2851.47,2459.91,2697a.32.32,0,0,0-.07-.64l-861.41-10.78v174.62h224.14A341.52,341.52,0,0,0,1899.15,2851.47Z"/><path class="cls-5" d="M1795,2814.47l359.36-78c5.81-1.06,5-9.62-.87-9.62l-433.58-3.23V2825.5Z"/><path class="cls-3" d="M1707.36,2840V2711l446.17,3.32a17.35,17.35,0,0,1,3,34.42l-359.78,78.07Zm87.6-25.5h0Zm-62.6-78.25V2811l60.36-8.86,291.73-63.33Zm421,3.13h0Zm-1.67-15.1-.4.09Z"/><path class="cls-3" d="M1822.57,2872.67H1585.93V2672.9L2471.06,2684l1.52,11.29a12.81,12.81,0,0,1-9.44,13.78L1902,2863.66A354.61,354.61,0,0,1,1822.57,2872.67Zm76.58-21.2h0Zm-288.22-3.8h211.64a329.47,329.47,0,0,0,73.51-8.32l477.62-131.6-762.77-9.54Zm848.67-138.84h0Z"/><path class="cls-3" d="M2812.21,2122.62a212.57,212.57,0,0,1,27.36,13.6c8.71,5,17,10.51,25.22,16.27a358.26,358.26,0,0,1,45.5,39,337.17,337.17,0,0,1,38.49,45.74l8.3,12.39c2.57,4.26,5,8.6,7.41,12.93l3.61,6.48,3.17,6.73c2.14,4.45,4.11,9,6.1,13.45a2.08,2.08,0,0,1-3.52,2.15l-.08-.1c-12.27-15.12-24.39-29.81-38.21-42.94a457.39,457.39,0,0,0-42.62-37.31c-14.84-11.59-30.33-22.24-45.94-32.62-4-2.46-7.86-5.09-11.79-7.65l-11.87-7.48-23.51-14.45-.65-.4a14.5,14.5,0,0,1,13-25.79Z"/><path class="cls-3" d="M2983.23,2015.52c8.64,3.85,16.05,9,23.12,14.48s13.39,11.7,19.65,18a250,250,0,0,1,17.62,20.18,144.77,144.77,0,0,1,14.71,23.05,12.53,12.53,0,0,1-21.57,12.62l-.09-.14c-9.18-13.4-18.48-27.54-27.88-41.89-4.63-7.23-9.56-14.29-13.81-22A164.17,164.17,0,0,1,2983.23,2015.52Z"/><path class="cls-1" d="M2320.08,1859.05c58-51,329.61-71.36,455.28,7.85,115.43,72.75,145.09,310.18,75,294.71-157.59-34.76-282.4-50.43-515.13-9.83C2185,2172.65,2262.06,1910.08,2320.08,1859.05Z"/><g class="cls-2"><path class="cls-3" d="M2850.32,2161.66c-157.61-34.76-282.38-50.44-515.12-9.85-80.31,11.19-95.62-58.76-83.64-134,8.62,37.91,33.42,62.64,83.64,55.65,69.49-12.13,167.42-165,167.42-165s4.16,125.86,53.37,150.79c61.77,31.3,209.13,5.27,294.33,24.05,17,3.77,28.17-7.42,33.64-27.51C2894.6,2118.46,2883.92,2169.08,2850.32,2161.66Z"/></g><path class="cls-3" d="M2856.53,2176.85a42.84,42.84,0,0,1-9.33-1c-169.11-37.3-288.48-48.27-509.52-9.7l-.5.07c-55.91,7.77-81.07-19.92-92.35-44.53-34.23-74.7,18.08-231.55,65.69-273.42,65.43-57.54,343.92-74.61,472.57,6.47,95,59.88,138.86,226.59,111.5,293.19C2886.94,2166.51,2873.1,2176.85,2856.53,2176.85Zm-276.93-63.57c94.79,0,177.45,13,273.84,34.24,3.42.76,9.16,2,14.36-10.64,20.36-49.57-13.94-203.34-100.16-257.68-121.8-76.77-386.71-54.33-438-9.22h0c-36.72,32.29-88.45,174.21-58.49,239.6,10.56,23.05,30.79,32.18,61.79,27.94C2429.48,2120.69,2508,2113.28,2579.6,2113.28ZM2320.08,1859.1h0Z"/><path class="cls-1" d="M2682.41,1932.86c-29,37.92-26,156.15.42,164s119.7,15.76,140.14-.85,29.52-80.6,9.9-114.15C2813.06,1948,2703.7,1905,2682.41,1932.86Z"/><g class="cls-2"><path class="cls-3" d="M2842.17,2051.34c-3,19.8-9.92,37.14-19.19,44.67-20.45,16.62-113.72,8.73-140.16.87-19.19-5.72-26-69.73-17.19-118.86,3.76,29.9,13.9,54.38,27.08,53.37,20.78-1.6,31.57-45.34,31.57-45.34s5.25,54.28,26,74.74c25.85,25.56,74.77,5.5,87.84-5.11A25.21,25.21,0,0,0,2842.17,2051.34Z"/></g><path class="cls-3" d="M2766.1,2115.73c-34.38,0-71.66-5-86.12-9.28-9-2.67-16-11.48-20.76-26.17-12-36.84-10.84-119.35,15.24-153.49,7.33-9.6,20.68-13.86,39.58-12.71,41.51,2.55,109.84,32.6,127.46,62.74,22.4,38.3,12,107.28-12.22,127C2818.35,2112.66,2793.12,2115.73,2766.1,2115.73Zm-57.79-181.83c-8.93,0-15.49,1.8-18,5h0c-19.88,26-23.75,99.4-12.11,135.16,3.23,9.92,6.54,12.93,7.45,13.19,27.31,8.14,115.38,13.65,131,1,15.75-12.8,25.31-71,7.57-101.34-12.79-21.86-73.19-50.53-111.42-52.88C2711.26,1933.94,2709.75,1933.9,2708.31,1933.9Zm-25.9-1h0Z"/><path class="cls-3" d="M2728.2,1971.93c-.87,24.4-1.47,48.71.3,72.15.95,11.64,2.64,23.22,5.74,33.16a42.39,42.39,0,0,0,6,12.42,15,15,0,0,0,8.17,5.71l1.84.54a9.91,9.91,0,0,1-4.1,19.33,55.94,55.94,0,0,1-6.46-1,37.52,37.52,0,0,1-6.25-2.49,33.12,33.12,0,0,1-10-8.25c-5.35-6.41-8.08-13.45-9.94-20.14-3.65-13.49-3.55-26.45-3-39.09a263.25,263.25,0,0,1,5.06-37.13,283.93,283.93,0,0,1,9.87-35.75,1.45,1.45,0,0,1,2.81.53Z"/><path class="cls-3" d="M2527.26,1860c-5.7,24.43-12.44,48.91-15.57,72.3-.47,2.93-.61,5.77-.9,8.64l-.83,9.48-1.59,19-2.77,37.73c-.79,12.5-1.25,25-1.28,37.11a203.57,203.57,0,0,0,2.64,35.06c2,10.87,5.67,20.41,11.18,25.87,5.3,5.56,13.91,8.21,24.65,8.76l.52,0a14.47,14.47,0,0,1-.52,28.93,76.42,76.42,0,0,1-23.35-2.77,56.37,56.37,0,0,1-22.52-12.7,63.07,63.07,0,0,1-14.43-20.52,104.43,104.43,0,0,1-6.63-21.6c-2.81-14.16-3.24-27.77-3.27-41.1s.93-26.37,1.95-39.31,2.45-25.73,4-38.47l2.32-19.06,1.19-9.54c.59-3.45,1.08-7,1.84-10.29a207.09,207.09,0,0,1,12.11-38.28,230.36,230.36,0,0,1,18.05-35.09,7.32,7.32,0,0,1,13.31,5.59Z"/><path class="cls-1" d="M2893.41,2586.51c-48.12,49.14-105.84,29.08-105.84,29.08s22.67-71.62,24.41-160.11a482.18,482.18,0,0,0-4-74.26c-21.33-156.52-142.48-247-142.48-247s65-64.81,149.1,6.74c62.53,53.19,102.5,191.53,107.65,302.33C2925.27,2507.8,2916.43,2563,2893.41,2586.51Z"/><g class="cls-2"><path class="cls-3" d="M2893.41,2586.51c-48.12,49.14-105.84,29.08-105.84,29.08s22.67-71.62,24.41-160.11c10.46,25.13,24.36,50.26,36.42,45.44,17-6.84,13.72-66,15.24-84.25.47-5.73,18.87,25.23,23.54,75.13,2.86,30.26,23.06-17.06,35.05-48.52C2925.27,2507.8,2916.43,2563,2893.41,2586.51Z"/></g><path class="cls-3" d="M2816.66,2634.18c-19.24,0-32.62-4.48-33.83-4.9l-13.3-4.61,4.24-13.43c.35-1.13,35.37-114,19.83-228.08-20.2-148.32-135.65-236.49-136.82-237.37l-13.37-10,11.83-11.81c.74-.74,75.48-73.31,168.73,6,67.27,57.2,107.65,200.85,112.78,313.19,1.95,42.76.26,119.55-33,153.51C2873.82,2627.2,2840.68,2634.18,2816.66,2634.18Zm-10.93-29.54c17.5,2,49.14.51,77.33-28.28,18.41-18.8,27.66-68.12,24.75-131.92-4.72-103.49-42.29-241.15-102.61-292.44-52.56-44.69-95.76-29.74-116.45-17.25,33.95,30.18,115.93,115.12,133.55,244.51C2835.45,2475.79,2815.17,2568.79,2805.73,2604.64Z"/><g class="cls-6"><path class="cls-7" d="M770,2131.9s730-661.9,733.62-661.39C1045,2040,1790,2400,1790,2400l56.08,471.65Z"/></g><path class="cls-1" d="M1423,2143.3a539.27,539.27,0,0,0,200.56,187.77,553.18,553.18,0,0,0,53.26,25.23c8.93,3.7,18.07,7.14,27.35,10.45a555.57,555.57,0,0,0,245.53,27.87q15.8-1.82,31.38-4.44c190.24-32.44,358.33-162.5,428.56-354.74,103.51-283.17-44.55-593.94-330.63-694.16a553.72,553.72,0,0,0-167-31c-6.49-.25-13-.31-19.54-.24q-26.16.12-52,2.68A562,562,0,0,0,1616.08,1385q-16.29,9.39-31.95,19.87a551.4,551.4,0,0,0-210.55,267.72C1314,1835.47,1337.74,2007.47,1423,2143.3Z"/><path class="cls-3" d="M1888,2399.66q-13,0-25.87-.61a559.9,559.9,0,0,1-158.42-30.79c-10.2-3.64-19.17-7.06-27.43-10.48a559.85,559.85,0,0,1-53.41-25.3,542.71,542.71,0,0,1-201.15-188.33c-89.25-142.14-107.33-314.22-49.6-472.12a549.37,549.37,0,0,1,165.69-234.52,558.75,558.75,0,0,1,45.46-34c10.27-6.88,21-13.59,32-19.93a563.78,563.78,0,0,1,225.11-72.48c17.18-1.71,34.72-2.61,52.14-2.69,6.85-.08,13.45,0,19.62.24a555.26,555.26,0,0,1,167.42,31.1c139.32,48.81,250.48,148.49,313,280.69,62,131.15,68.62,278.72,18.61,415.53-67.88,185.81-232.57,322.13-429.79,355.76-10.41,1.75-21,3.25-31.46,4.45A559.55,559.55,0,0,1,1888,2399.66Zm-463.58-257.21a539.54,539.54,0,0,0,200,187.21,557.09,557.09,0,0,0,53.1,25.17c8.22,3.39,17.14,6.8,27.29,10.42A554.17,554.17,0,0,0,1949.56,2393c10.4-1.2,20.94-2.69,31.29-4.43,196.09-33.44,359.83-169,427.31-353.71,49.72-136,43.15-282.69-18.49-413.06-62.14-131.42-172.65-230.52-311.15-279A552.44,552.44,0,0,0,1912,1311.86c-6.13-.23-12.68-.3-19.48-.24-17.33.08-34.77,1-51.86,2.68a561,561,0,0,0-223.83,72.07c-10.94,6.31-21.66,13-31.85,19.82a552.43,552.43,0,0,0-45.21,33.77,546.41,546.41,0,0,0-164.73,233.17c-57.39,157-39.42,328,49.3,469.32Z"/><g class="cls-2"><path class="cls-3" d="M2409.66,2035.43c-70.21,192.26-238.32,322.32-428.56,354.73q-15.58,2.65-31.36,4.45a556.91,556.91,0,0,1-245.55-27.85c-9.26-3.33-18.4-6.76-27.35-10.43a561.67,561.67,0,0,1-53.25-25.27,539.59,539.59,0,0,1-261.73-323.93,539,539,0,0,0,193.76,177.22,547.36,547.36,0,0,0,53.25,25.26c8.92,3.69,18.06,7.12,27.35,10.44a554.81,554.81,0,0,0,245.52,27.86q15.81-1.82,31.39-4.46c190.24-32.41,358.32-162.46,428.56-354.73,41-112.16,42.5-228.63,11.63-334.62C2444.21,1691.52,2470.77,1868.29,2409.66,2035.43Z"/></g><path class="cls-3" d="M1888,2410.37q-13.23,0-26.37-.63a570.3,570.3,0,0,1-161.45-31.38c-10.42-3.71-19.56-7.2-28-10.68a571,571,0,0,1-54.41-25.78,553.56,553.56,0,0,1-205.13-192.05c-91-145-109.47-320.46-50.59-481.49a563.71,563.71,0,0,1,215.25-273.72c10.46-7,21.45-13.85,32.66-20.31a574.48,574.48,0,0,1,229.4-73.87c17.52-1.74,35.4-2.66,53.15-2.74,7-.08,13.73,0,20.08.25a566.16,566.16,0,0,1,170.54,31.69c142.06,49.77,255.39,151.41,319.14,286.22,63.24,133.76,70,284.27,19,423.78-69.19,189.42-237,328.37-438,362.65-10.62,1.78-21.39,3.31-32,4.53A569.74,569.74,0,0,1,1888,2410.37Zm-454.5-273.61a528.85,528.85,0,0,0,196,183.49,546.43,546.43,0,0,0,52.08,24.67c8.07,3.34,16.83,6.68,26.81,10.24a543.22,543.22,0,0,0,240,27.23c10.19-1.17,20.53-2.64,30.7-4.35,192.29-32.79,352.87-165.69,419-346.82,48.72-133.29,42.29-277.06-18.12-404.82-60.91-128.81-169.23-225.94-305-273.51a541.34,541.34,0,0,0-163.25-30.32c-6-.23-12.43-.32-19-.24-17.07.08-34.17,1-50.92,2.62a549.78,549.78,0,0,0-219.53,70.7c-10.74,6.18-21.25,12.72-31.25,19.43a542.78,542.78,0,0,0-44.32,33.11,535.59,535.59,0,0,0-161.52,228.62c-56.25,153.83-38.64,321.48,48.31,460Z"/><path class="cls-3" d="M1888,2413.93q-13.32,0-26.54-.62A574.31,574.31,0,0,1,1699,2381.73c-10.5-3.74-19.69-7.25-28.17-10.75A576.7,576.7,0,0,1,1616,2345a557,557,0,0,1-206.45-193.3h0c-91.62-145.9-110.18-322.53-50.92-484.61a563.76,563.76,0,0,1,170-240.62,569.94,569.94,0,0,1,46.6-34.83c10.54-7.07,21.6-13.94,32.88-20.45A578.07,578.07,0,0,1,1839,1296.91c17.63-1.75,35.62-2.68,53.49-2.76,7-.08,13.82,0,20.22.26a569.43,569.43,0,0,1,171.59,31.88c143,50.09,257,152.39,321.18,288.07,63.66,134.63,70.45,286.11,19.11,426.53-69.63,190.61-238.53,330.44-440.79,364.93-10.68,1.8-21.52,3.34-32.24,4.57A574.37,574.37,0,0,1,1888,2413.93Zm-451.48-279.07a525.36,525.36,0,0,0,194.67,182.25,544,544,0,0,0,51.73,24.51c8,3.32,16.74,6.64,26.66,10.18a539.78,539.78,0,0,0,238.44,27c10.12-1.16,20.4-2.62,30.51-4.32C2169.5,2342,2329,2209.93,2394.76,2030c48.39-132.38,42-275.17-18-402.06-60.5-127.94-168.09-224.42-303-271.67a538.23,538.23,0,0,0-162.16-30.13q-9-.35-18.91-.23c-17,.08-34,.95-50.61,2.6a546.51,546.51,0,0,0-218.1,70.24c-10.67,6.14-21.11,12.64-31,19.3a539.78,539.78,0,0,0-44,32.9A532.07,532.07,0,0,0,1388.49,1678c-55.87,152.79-38.37,319.3,48,456.83Z"/><path class="cls-3" d="M1512,2250.92c335,202,764.24,16,765.35-369,.76-261.93-258.44-463.09-513.3-445.94-185.5,12.48-361.64,104.74-422.73,394.13,0,0-7,132.1,34,217.17s95.55,160.86,95.55,160.86Z"/><path class="cls-8" d="M2277.31,1881.92c-1.11,385-430.36,570.95-765.34,369l-8.33-8.68c358.15,40.17,699.44-191.51,707.89-580.8C2253,1726,2277.53,1801.09,2277.31,1881.92Z"/><path class="cls-3" d="M1802.38,2405.12c-4.63,0-9.25,0-13.89-.16l-2.47-.24a572.23,572.23,0,0,1-87.07-23c-10.5-3.74-19.69-7.25-28.17-10.75A576.7,576.7,0,0,1,1616,2345a557,557,0,0,1-206.45-193.3h0c-91.62-145.9-110.18-322.53-50.92-484.61a563.76,563.76,0,0,1,170-240.62l1.25-1,1.44-.76c64.53-34.14,140.53-54.36,225.91-60.11,153.71-10.34,315.06,48.75,431.64,158.07,105,98.49,162.65,226,162.26,359.08-.43,144.79-52.75,272.1-151.31,368.17C2098.24,2349,1954,2405.12,1802.38,2405.12Zm-11.93-31.87c147.84,3.12,288.87-50.17,387.25-146.07,92.31-90,141.31-209.45,141.72-345.53.36-124.16-53.7-243.43-152.23-335.82-110.27-103.41-262.73-159.31-407.78-149.55-80.27,5.4-151.51,24.15-211.76,55.73a532,532,0,0,0-159.16,226c-55.87,152.79-38.37,319.3,48,456.83h0a525.25,525.25,0,0,0,194.66,182.25,544,544,0,0,0,51.73,24.51c8,3.32,16.74,6.64,26.66,10.18A540.29,540.29,0,0,0,1790.45,2373.25Z"/><path class="cls-3" d="M1804.14,2349.44c-102.39,0-206.69-28.45-300.37-84.93l-1.79-1.08-44-46c-2.26-3.14-55.8-77.9-97-163.23-42.33-87.74-35.86-219.35-35.57-224.91l.32-2.43c53.61-254,200.7-390.79,437.19-406.7,137.2-9.24,281.26,43.51,385.32,141.09,93.8,88,145.27,201.86,144.93,320.74-.5,172.24-85.25,318.56-232.52,401.46C1982.33,2327.52,1894,2349.44,1804.14,2349.44ZM1522,2238.4c165.76,99.1,366,105.8,523.16,17.35,137-77.13,215.87-213.4,216.34-373.88.31-110-47.59-215.63-134.89-297.49-97.76-91.67-232.91-141.22-361.48-132.57-220.19,14.81-357.45,142.77-408,380.31-.53,13.12-4.25,132.05,32.51,208.25,37.58,77.89,87.35,148.9,93.52,157.61Z"/><path class="cls-1" d="M2519.86,1842.7c12.76,106.46-40.24,203.58-118.42,216.92s-151.91-62.14-164.68-168.59c-.09-.66-.15-1.37-.21-2-11.88-105.64,41-201.62,118.63-214.87,60.4-10.31,118.13,32.4,147.17,101.42A251.06,251.06,0,0,1,2519.86,1842.7Z"/><g class="cls-2"><path class="cls-3" d="M2519.86,1842.7c12.76,106.46-40.24,203.58-118.42,216.92s-151.91-62.14-164.68-168.59c-.09-.66-.15-1.37-.21-2,9.9,9.46,24.57,17.93,42.26,11.22,31-11.79,79.74-90,79.74-90s62.26-15.46,143.8-34.71A251.06,251.06,0,0,1,2519.86,1842.7Z"/></g><path class="cls-3" d="M2383.25,2077c-27.82,0-55.1-9.51-79.92-28-44.4-33.13-74.4-90-82.33-156.09-13.74-114.55,45.26-219.72,131.53-234.45,34.92-6,69.77,3.12,100.78,26.26,44.39,33.14,74.4,90,82.32,156.09h0c13.74,114.56-45.26,219.73-131.52,234.45A123.71,123.71,0,0,1,2383.25,2077Zm-10.08-388.58a90.82,90.82,0,0,0-15.3,1.3c-69.84,11.92-117.1,101.36-105.34,199.37,6.79,56.63,32.88,106.88,69.79,134.43,23.86,17.81,50.31,24.87,76.45,20.41,69.84-11.93,117.1-101.36,105.34-199.38-6.79-56.62-32.88-106.88-69.79-134.43C2415.1,1695.83,2394.23,1688.46,2373.17,1688.46Z"/><ellipse class="cls-1" cx="2426.07" cy="1877.28" rx="116.67" ry="154.33" transform="translate(-43.26 57.27) rotate(-1.34)"/><path class="cls-3" d="M2427.8,2033.36a93,93,0,0,1-32.45-6c-62.89-23.34-100.41-109.59-83.64-192.26,9.36-46.09,33.84-83.16,67.17-101.7,24.8-13.78,51.73-15.94,77.91-6.23,62.89,23.34,100.41,109.58,83.64,192.25-9.35,46.09-33.84,83.16-67.17,101.7A92.87,92.87,0,0,1,2427.8,2033.36Zm-3.45-308.82a89.59,89.59,0,0,0-43.85,11.78c-32.49,18.07-56.37,54.32-65.53,99.46-16.47,81.14,20.11,165.69,81.54,188.49,25.23,9.36,51.22,7.27,75.14-6,32.48-18.07,56.37-54.32,65.52-99.45h0c16.47-81.14-20.11-165.69-81.54-188.49A89.68,89.68,0,0,0,2424.35,1724.54Z"/><g class="cls-2"><path class="cls-3" d="M2324.43,1955.7c-10.55-27.26-13.54-57.52-10-86.72,29.36,60.11,90.36,78.57,141.16,40.52,32.85-24.58,53.86-67.13,59.26-112.32,1.88,3.78,3.6,7.79,5.21,11.92,26.82,69.42,4.79,158.51-49.24,199S2351.25,2025.08,2324.43,1955.7Z"/></g><path class="cls-3" d="M2431.17,2047.5c-20.66,0-41-7.11-59.67-21-36-26.74-61.32-76.23-67.84-132.39-11.18-96.48,33.4-181.59,101.51-193.77,26.07-4.65,52.25,2.11,75.72,19.55,36,26.74,61.32,76.23,67.84,132.4h0c11.18,96.48-33.41,181.59-101.51,193.76A90.86,90.86,0,0,1,2431.17,2047.5ZM2421,1730.71a58,58,0,0,0-10.25.91c-49.91,8.92-84.51,81.66-75.56,158.85,5.52,47.63,26.17,89,55.24,110.57,16.27,12.09,34,16.85,51.19,13.78,49.91-8.92,84.51-81.67,75.56-158.85-5.52-47.63-26.17-89-55.24-110.58C2448.9,1735.69,2434.92,1730.71,2421,1730.71Z"/><g class="cls-9"><path class="cls-1" d="M1905.83,1533s-240,31.37-364,177.15l-.4.46a225.38,225.38,0,0,0-50.18,107.16c-9.08,52.1-7.62,89.26-5.06,121.92,7.84,99.33,30.35,144.29,30.35,144.29-61.4-47.68-98.37-104.55-105.73-187.21-.71-8.15-1.13-16.59-1.28-25.26,0-2,0-4,0-6,0,0,0-.06,0-.12a552,552,0,0,1,7.64-66.52c13.78-78,49.83-181.2,143.2-235.52C1735,1461.85,1913.3,1522,1905.83,1533Z"/></g><g class="cls-9"><ellipse class="cls-1" cx="2081.15" cy="1770.16" rx="73.69" ry="84.65" transform="translate(-483.19 827.39) rotate(-20.2)"/></g><g class="cls-9"><ellipse class="cls-1" cx="2153.02" cy="1919.95" rx="30.42" ry="34.97" transform="translate(-617.24 1115.35) rotate(-25.53)"/></g><path class="cls-4" d="M1778.82,2914.73l-748.26-5.21a66.8,66.8,0,0,1-62.38-44.31l-13.4-37.63-219-614c-18-50.52,19.64-103.55,73.26-103.2l725.72,4.68a77.38,77.38,0,0,1,72.3,51.3l235.09,659.28C1857.71,2869.21,1825.18,2915.05,1778.82,2914.73Z"/><g class="cls-2"><path class="cls-3" d="M996.4,2899.8l747.43,5.2c46.35.32,78.88-45.51,63.31-89.12L1572,2156.6a77.12,77.12,0,0,0-23.57-33.59c32.4,125.89,82.67,386.57-7.64,536.57-109,181-466.18,175.36-586,168l13.4,37.63a66.75,66.75,0,0,0,30.13,35.67C997.67,2900.52,997,2900.18,996.4,2899.8Z"/></g><g class="cls-10"><path class="cls-1" d="M764.9,2212.26,1012,2905a66.77,66.77,0,0,1-38.8-39.82L740.77,2213.55c-18-50.52,19.64-103.55,73.26-103.2l725.72,4.68a77.3,77.3,0,0,1,68.35,42.16,41.24,41.24,0,0,0-6.71-.55L808,2151.5A45.49,45.49,0,0,0,764.9,2212.26Z"/></g><path class="cls-3" d="M1779.3,2929.21h-.56L1030.47,2924a81.48,81.48,0,0,1-75.92-53.92L722.12,2218.43a91.76,91.76,0,0,1,86.39-122.58h.62l725.71,4.68a92,92,0,0,1,85.83,60.93l235.12,659.25a81.21,81.21,0,0,1-76.49,108.49Zm-.36-29h.38a52.24,52.24,0,0,0,49.19-69.78L1593.39,2171.2a63,63,0,0,0-58.73-41.69L809,2124.82h-.43a62.79,62.79,0,0,0-59.12,83.88l232.43,651.64a52.44,52.44,0,0,0,48.84,34.69Z"/><path class="cls-11" d="M1334.42,2499.6l-26.25,27.23a20.37,20.37,0,0,0-5.29,18.26l1.18,5.71,6.37,31.33a20.43,20.43,0,0,1-29,22.46l-34-16.53a20.44,20.44,0,0,0-19,.61l-32.91,18.62a20.42,20.42,0,0,1-30.3-20.58l5.23-37.45a20.48,20.48,0,0,0-6.45-17.89l-27.9-25.52a20.45,20.45,0,0,1,8.15-34.73c.67-.18,1.37-.34,2.07-.47l37.24-6.62a20.47,20.47,0,0,0,15-11.65l12.59-27.62,3.08-6.79a20.45,20.45,0,0,1,36.64-1.17l17.79,33.38a20.5,20.5,0,0,0,15.73,10.67l37.57,4.25A20.46,20.46,0,0,1,1334.42,2499.6Z"/><g class="cls-12"><path class="cls-1" d="M1334.42,2499.6l-26.25,27.23a20.24,20.24,0,0,0-5.19,9.57c-1.26-.74-2.5-1.54-3.74-2.35-2.58-1.7-5.23-3.53-6.61-6.27-1.7-3.39-1.1-7.6.8-10.84a24.13,24.13,0,0,1,8.13-7.78c5.11-3.27,11.5-6.59,12.29-12.64.6-4.47-2.42-8.79-6.32-11.05s-8.54-2.83-13-3.14a145.37,145.37,0,0,0-19.13-.11c-4.4.26-8.92.71-13.19-.35-9.45-2.35-15.64-11.46-19-20.58s-4.7-19-9.15-27.65a14.5,14.5,0,0,0-4-5.21,16.06,16.06,0,0,0-5.94-2.23,71.62,71.62,0,0,0-13-1.44l3.08-6.79a20.45,20.45,0,0,1,36.64-1.17l17.79,33.38a20.5,20.5,0,0,0,15.73,10.67l37.57,4.25A20.46,20.46,0,0,1,1334.42,2499.6Z"/></g><path class="cls-13" d="M1310.43,2582.13a20.43,20.43,0,0,1-29,22.46l-34-16.53a20.44,20.44,0,0,0-19,.61l-32.91,18.62a20.42,20.42,0,0,1-30.3-20.58l5.23-37.45a20.48,20.48,0,0,0-6.45-17.89l-27.9-25.52a20.45,20.45,0,0,1,8.15-34.73,22.94,22.94,0,0,0,1,2.37c2.68,5.78,7.46,10.71,12.67,14.28,10,6.91,22.22,11.15,30,20.45,11,13.14,10.28,32,11.31,49.16.21,3,.6,6.31,2.85,8.32s5.37,2.05,8.18,1.53c9.42-1.8,17.22-9.67,26.81-10,13.11-.39,41.27,28.76,51.66,20.55,8.28-6.55-4.84-28.72,15.29-27Z"/><path class="cls-3" d="M1185.49,2622.49a33,33,0,0,1-32.6-37.51l5.21-37.45a8,8,0,0,0-2.5-7l-27.9-25.52a32.93,32.93,0,0,1,16.48-56.72l37.22-6.61a8,8,0,0,0,5.84-4.53l15.66-34.42a32.93,32.93,0,0,1,59-1.86h0l17.79,33.37a7.92,7.92,0,0,0,6.11,4.14l37.57,4.26a32.93,32.93,0,0,1,20,55.57l-26.23,27.23a7.94,7.94,0,0,0-2.06,7.09l7.56,37.05a32.93,32.93,0,0,1-46.66,36.2l-34-16.53a8,8,0,0,0-7.38.23l-32.89,18.65A33,33,0,0,1,1185.49,2622.49Zm47.38-204h-.25a7.75,7.75,0,0,0-7,4.65L1210,2457.55a32.93,32.93,0,0,1-24.21,18.79l-37.23,6.61a7.94,7.94,0,0,0-4,13.67l27.89,25.52a32.94,32.94,0,0,1,10.39,28.84l-5.21,37.45a7.92,7.92,0,0,0,11.76,8l32.9-18.64a33,33,0,0,1,30.64-1l34,16.53a7.93,7.93,0,0,0,11.24-8.72l-7.56-37.05a32.92,32.92,0,0,1,8.54-29.43l26.23-27.23a7.93,7.93,0,0,0-4.81-13.39l-37.57-4.26a33,33,0,0,1-25.36-17.22l-17.79-33.36h0A7.7,7.7,0,0,0,1232.87,2418.49Z"/><path class="cls-3" d="M2921,2229.42a10,10,0,0,1-3.55-19.35c4.38-1.66,108.21-40.46,184.9-15a10,10,0,1,1-6.3,19c-69.89-23.22-170.5,14.3-171.51,14.68A10,10,0,0,1,2921,2229.42Z"/><path class="cls-1" d="M2545.67,2294.64s236.94,253.12,81.83,384c-130.4,110.06-270.05-37.24-270.05-37.24s-15.72,48.64-63.6,69.92c-58.76,26.12-128.07-21.28-128.07-21.28s-25.46,68.21-77.52,47.88c-55.66-21.72-15.63-220,96.65-332.13,129.9-129.76,321.75-16.72,321.75-16.72"/><g class="cls-2"><path class="cls-3" d="M2680.15,2565.8c-.15,41.32-14.63,80.78-52.65,112.86-130.38,110.07-270.07-37.26-270.07-37.26s-15.71,48.67-63.58,70c-58.76,26.1-128.06-21.29-128.06-21.29s-25.46,68.21-77.52,47.86c-23.72-9.27-30.06-50.51-20.82-103.51.69,37,9.74,62.6,27.66,66.25,50,10.22,40.48-81,40.48-81s37.29,86.79,120.75,58.69c81.76-27.58,101.09-112.09,101.09-112.09s165.32,144.65,277.17,59.7C2657.3,2608.67,2671.89,2588.22,2680.15,2565.8Z"/></g><path class="cls-3" d="M2549.2,2291.34c13,9.41,24.43,20.16,35.26,31.56a382.74,382.74,0,0,1,30.28,36.11c18.61,25.35,35.26,52.39,48.53,81.38,3.5,7.15,6.3,14.68,9.44,22,2.67,7.58,5.74,15,8,22.73a286,286,0,0,1,11.33,47.3,215.78,215.78,0,0,1,1.8,49.59,169.43,169.43,0,0,1-12.39,49.1c-3.86,7.59-7.32,15.44-12.35,22.32l-3.53,5.31-1.77,2.65-2,2.44-8.18,9.67c-2.6,3.37-5.93,5.92-8.89,8.89-3.08,2.81-6,5.86-9.25,8.44l-9.74,7.63c-3.22,2.57-6.85,4.68-10.26,7a180.74,180.74,0,0,1-45.32,21.4,166.48,166.48,0,0,1-49.93,7c-33.76-.37-66.15-10.55-94.91-25.39a314.15,314.15,0,0,1-41.18-25.49c-6.51-4.73-12.82-9.73-19-14.91s-12-10.42-18.15-16.74l24.29-5.51c-1.14,3.31-2.07,5.52-3.21,8.11s-2.24,4.93-3.49,7.3a145.73,145.73,0,0,1-8.05,13.86A141.75,141.75,0,0,1,2336,2700a132.45,132.45,0,0,1-26.11,19.53c-4.91,2.45-9.59,5.16-15,6.92l-7.94,2.87-8.17,1.87c-22,4.82-44,2-64.17-3.38a216.3,216.3,0,0,1-29.29-10.7c-4.69-2.16-9.33-4.42-13.89-6.87s-8.84-4.89-13.78-8.17l21.75-6.89a120.38,120.38,0,0,1-6.31,13.43,130.44,130.44,0,0,1-7.55,12.3,97.25,97.25,0,0,1-20.54,22c-8.33,6.35-18.8,11.46-30.21,12.83a56.84,56.84,0,0,1-16.84-.23,67.59,67.59,0,0,1-15.69-4.37,43.61,43.61,0,0,1-15.48-11.2l-2.95-3.49a42.08,42.08,0,0,1-2.36-3.61l-2.22-3.67c-.66-1.23-1.14-2.46-1.71-3.69a95.64,95.64,0,0,1-7.52-29.1c-2.11-19-.73-37.11,1.69-54.9,5.16-35.52,15.64-69.43,29.15-102,13.66-32.48,30.4-63.72,50.94-92.58a415.58,415.58,0,0,1,33.44-41.39,252.79,252.79,0,0,1,40.68-36c29.78-21.42,65.59-34.07,101.56-38.49a295.16,295.16,0,0,1,54.12-1.3c17.91,1.3,35.76,3.44,53.14,7.55a250.89,250.89,0,0,1,50.3,17.54c15.94,7.86,31.13,17.09,44.12,30.15a5,5,0,0,1-4.6,8.39l-.3-.08c-33.72-7.56-64.77-18.21-96.72-25.74-15.91-3.82-31.94-7.27-48.16-8.54a226.42,226.42,0,0,0-48.36.77c-31.81,4-62.58,14.84-88.49,33.48-25.95,18.12-47.88,43.6-67.09,70.36-19.18,26.94-35,56.41-47.84,87s-22.55,62.66-27.22,94.94c-2.21,16.06-3.31,32.36-1.59,47.45a68.05,68.05,0,0,0,5.1,20.44c2.63,5.83,6,9.43,9.46,10.91,12.14,4.91,23.63,3.61,34.11-4.52a68.89,68.89,0,0,0,14.29-15.45,103.7,103.7,0,0,0,5.87-9.57,94.47,94.47,0,0,0,4.64-9.77l0-.09a14.59,14.59,0,0,1,18.91-8.27,15.84,15.84,0,0,1,2.8,1.47c3.1,2.08,7.34,4.49,11.16,6.58s8,4.09,12.09,6a186.08,186.08,0,0,0,25.12,9.18c17,4.55,34.52,6.56,50.47,2.94l6-1.32,5.67-2.11c3.82-1.13,7.54-3.35,11.27-5.15a103.72,103.72,0,0,0,20.18-15.13,112.53,112.53,0,0,0,16.35-19.8,120.22,120.22,0,0,0,6.51-11.19c1-1.9,1.91-3.85,2.76-5.77s1.71-4.09,2.16-5.35l0-.12a14.62,14.62,0,0,1,24.25-5.39c4.6,4.69,10.33,9.88,15.84,14.54s11.4,9.31,17.35,13.63a284.26,284.26,0,0,0,37.33,23.11c25.84,13.36,53.95,21.92,82,22.2a137.24,137.24,0,0,0,41.25-5.77,152,152,0,0,0,37.94-18c2.92-2,6-3.76,8.8-6l8.45-6.62c2.79-2.22,5.17-4.78,7.79-7.15,2.46-2.49,5.38-4.61,7.45-7.41l6.74-8,1.69-2,1.42-2.16,2.85-4.33c4.16-5.56,6.82-11.94,10-18a140.61,140.61,0,0,0,10.09-40.16,178.92,178.92,0,0,0-1.69-42.53c-4.66-28.51-14.8-56.57-28-83.2-13-26.78-28.23-52.7-44.42-78.18s-33-50.85-48.69-77.5l-.07-.12a4.92,4.92,0,0,1,7.12-6.48Z"/><path class="cls-3" d="M2136.92,2611.45c5,13.87,10.35,26.94,16.69,38.57,3.1,5.87,6.83,11.07,10.15,16.2s7.17,9.5,10.47,14.63l.87,1.35a12.55,12.55,0,0,1-17.77,17.07,57,57,0,0,1-16.68-18.86,80.73,80.73,0,0,1-8.28-22.83,107.56,107.56,0,0,1-2.24-23.31,88.23,88.23,0,0,1,3.22-22.82,1.86,1.86,0,0,1,3.53-.12Z"/><path class="cls-3" d="M2362.22,2562.5a82,82,0,0,1,8.26,19.56,122.37,122.37,0,0,1,3.81,20.82,109.21,109.21,0,0,1,.23,21c-.76,7-1.93,13.65-5,20.64a12.64,12.64,0,0,1-24.23-5.13v-1.07c0-5.84,1.2-12.22,2.33-18.26s2.75-12.21,4.11-18.38,2.65-12.4,3.83-18.76,2.07-12.79,3.12-19.65v-.08a1.89,1.89,0,0,1,3.48-.69Z"/><path class="cls-3" d="M2567.91,2724.91a12.5,12.5,0,0,1-10.73-18.89C2634.81,2575.54,2442,2374.2,2440,2372.18a12.5,12.5,0,1,1,17.94-17.41c8.54,8.79,208.11,217.14,120.73,364A12.51,12.51,0,0,1,2567.91,2724.91Z"/></svg>