<svg id="Layer_1" data-name="Layer 1" xmlns="http://www.w3.org/2000/svg" viewBox="0 0 4000 4000"><defs><style>.cls-1{opacity:0.3;}.cls-2{fill:#000072;}.cls-3{fill:#fcaf03;}.cls-4{fill:#ff2765;}.cls-5{fill:#fff;}.cls-6{opacity:0.7;}.cls-7{opacity:0.4;}.cls-8{fill:#ffe97d;}.cls-9{fill:#ff4a94;}.cls-10{fill:#ffdaa5;}.cls-11{fill:#00b1ff;}</style></defs><g class="cls-1"><ellipse class="cls-2" cx="1968.27" cy="3525.02" rx="694.87" ry="116.14"/></g><path class="cls-3" d="M1725.57,2702.21s54.61,285.89,284.89,415.39c75.33,42.37,161.75-33.76,129.7-114-.54-1.34-1.09-2.69-1.66-4,0,0-24.77-48.52-71.23-81.56s-159-200.27-168.27-237.44S1725.57,2702.21,1725.57,2702.21Z"/><g class="cls-1"><path class="cls-2" d="M2140.16,3003.58c-.54-1.34-1.09-2.69-1.66-4,0,0-24.77-48.52-71.23-81.56s-159-200.27-168.27-237.44c-5.48-21.92-64.85-10.43-112.62,2.68,21.43-1.75,37.62.84,40.36,11.78,9.29,37.16,121.81,204.4,168.27,237.43s71.23,81.56,71.23,81.56q.86,2,1.65,4.05c17.54,43.92-.43,86.56-32.61,109.26C2103.2,3143.27,2168.72,3075.11,2140.16,3003.58Z"/></g><path class="cls-2" d="M2055.54,3148.87A111.07,111.07,0,0,1,2001,3134.4c-235.37-132.37-292.08-416.54-294.37-428.57a19.28,19.28,0,0,1,12.42-21.76c33.15-11.88,144.24-49.08,182-28.9,10.92,5.84,15.06,14.47,16.61,20.69,8,32.2,117.84,195.89,160.75,226.41,49.73,35.36,76.12,86.34,77.22,88.49.22.43.42.87.61,1.32.61,1.46,1.2,2.9,1.78,4.34,17.72,44.37,6,93.36-29.94,124.8A109.82,109.82,0,0,1,2055.54,3148.87Zm-307.27-434.12c15.56,61.15,83,279.95,271.64,386.06,32.78,18.44,64.27,7.65,82.8-8.58s33.59-46.34,19.55-81.5l-1.21-3c-2.79-5.18-25.66-46.13-65-74.08-46.44-33-159.51-197-174.87-245.24C1865.92,2683.26,1807.71,2694.92,1748.27,2714.75Z"/><path class="cls-4" d="M2533.7,2186.06c-21.68,17.11-37.91,73.67-64.22,130.8-28.32,61.71-68.45,124.15-140,138.6-137.83,27.8-185.33-122.56-185.33-122.56-56.85-130.31-51.59-561.87,185.33-597.47a365.27,365.27,0,0,1,59.16-4.29c187.5,1.93,234.91,163.8,234.91,163.8C2700.78,2145.79,2533.7,2186.06,2533.7,2186.06Z"/><g class="cls-1"><path class="cls-2" d="M2469.48,2316.86c-28.32,61.71-68.45,124.15-140,138.6-137.83,27.8-185.33-122.56-185.33-122.56-56.85-130.31-51.59-561.87,185.33-597.47a365.27,365.27,0,0,1,59.16-4.29C2359.69,1857.89,2307.81,2174.55,2469.48,2316.86Z"/></g><path class="cls-2" d="M2520.84,2200.41c-7.13-6.39-174-159.9-110.32-470l37.76,7.75c-30.86,150.34-2.53,260.14,26.68,325.78,31.67,71.19,71.22,107.45,71.62,107.81Z"/><path class="cls-2" d="M2296.75,2478.11c-98.71,0-154-86.62-170.69-138.44-42.21-98.26-50.52-345.54,33.21-496.94,40.51-73.24,96.81-115.75,167.35-126.36,130.36-19.58,209.23,28.27,252.43,71.89,46.78,47.25,62.34,99.07,63,101.25,30,97.53,28.23,177.09-5.43,236.18-30.46,53.48-77.66,72.55-93.27,77.6-10.35,10.85-22.19,40-33.68,68.34-31.16,76.81-73.84,182-176.35,202.7A184.61,184.61,0,0,1,2296.75,2478.11Zm-134.26-151.06c1.76,5.47,44.24,133.49,163.18,109.5,82.21-16.6,118.84-106.88,148.27-179.42,16.17-39.83,28.93-71.3,47.81-86.21a19.3,19.3,0,0,1,7.42-3.61c1.8-.45,46.75-12.32,74.34-61.4,27.79-49.45,28.33-118.53,1.6-205.32-2.24-7.5-56-178.72-272.76-146.1-58.06,8.72-104.95,44.69-139.35,106.89-75.73,136.92-71.2,372.09-31.2,463.82a19.5,19.5,0,0,1,.69,1.85Z"/><path class="cls-5" d="M2963.67,2388.74s-26.83,110.47-113.55,73.28c0,0-32,154.83-148.67,51.64,0,0-97.56,29.92-151.75-92.4-2.17-4.92-4.15-9.78-5.79-14.6-24.13-67.93-.91-121.21,21.78-153.15,15.37-21.68,30.5-33.58,30.5-33.58s-94.48-96.78,65.8-179.6,201.28,56.51,201.28,56.51,22,2.41,49.72,15.66a180.55,180.55,0,0,1,84.5,82.14.69.69,0,0,0,.05.19c2.65,5.16,5.1,10.6,7.42,16.33C3046.29,2314.4,3039.07,2390.81,2963.67,2388.74Z"/><g class="cls-1"><path class="cls-2" d="M2963.67,2388.74s-26.83,110.47-113.55,73.28c0,0-32,154.83-148.67,51.64,0,0-97.56,29.92-151.75-92.4-2.17-4.92-4.15-9.78-5.79-14.6,47.75,43.94,129.26,52.22,129.26,52.22,137,81.32,163-56.12,163-56.12,76.21,20.86,119.23-61.18,119.23-61.18,57.81-32.67,42.78-141.79,42.11-146.75,2.65,5.16,5.1,10.6,7.42,16.33C3046.29,2314.4,3039.07,2390.81,2963.67,2388.74Z"/></g><g class="cls-1"><path class="cls-2" d="M2913,2112.5c-25.2,67.78-76.79,56.32-76.79,56.32,38.25-38.88,27.07-72,27.07-72S2885.29,2099.25,2913,2112.5Z"/></g><g class="cls-1"><path class="cls-2" d="M2650.86,2244.69s-38,27.51-85.17,8.82c15.37-21.68,30.5-33.58,30.5-33.58S2603.22,2234.72,2650.86,2244.69Z"/></g><path class="cls-2" d="M2773.85,2568.43c-24.14,0-50.2-11.4-77.82-34.1-30.16,4.5-114.67,5.91-163.93-105.28-46.32-104.54,10.22-181.54,38.22-211.06-11.25-16.92-25.48-46.39-19.77-81.71,7-43.49,41.54-81.53,102.58-113.09,58.66-30.31,110-36.48,152.51-18.31s63.56,55.81,71.79,74.91c30.18,6.63,108.68,32.33,145.44,124.21,21.79,54.48,41.29,128.7,10.49,172.87-8.93,12.81-25.55,27.59-55.41,30.61-7.37,20.19-24.61,56.43-57.52,72.89-17.64,8.82-36.87,10.87-57.36,6.16-8.75,25.12-28.29,65.63-65.79,78.11A73.61,73.61,0,0,1,2773.85,2568.43Zm-72.44-74a19.39,19.39,0,0,1,12.83,4.81c19.65,17.38,47.88,36.51,70.87,28.87,27.77-9.25,43-54.75,46.14-70a19.28,19.28,0,0,1,26.47-13.81c17.58,7.55,32.43,8.08,45.37,1.64,24.83-12.34,38.65-48.81,41.88-61.82a19.37,19.37,0,0,1,19.24-14.67c18,.55,30.33-4.29,37.54-14.63,15.89-22.79,10.41-73.82-14.66-136.51-36.29-90.72-122.34-101.91-126-102.34a19.4,19.4,0,0,1-16.3-13.7c-.11-.37-14.08-45-54.63-62.1-31.41-13.25-71.56-7.44-119.34,17.25-49.59,25.64-77.26,54.24-82.23,85-5.69,35.19,21.09,63.77,21.36,64.05a19.26,19.26,0,0,1-1.85,28.58h0c-3.61,2.88-88,71.7-40.78,178.38,46.24,104.35,125.27,82.71,128.62,81.74A19.12,19.12,0,0,1,2701.41,2494.4Z"/><path class="cls-2" d="M2608.45,2205.09l8.85,9.38q4.78,5,10,10.05c3.46,3.39,7.16,6.48,11.05,9.73s8.13,6,12.73,9l.07,0a1.57,1.57,0,0,1,.45,2.16,1.59,1.59,0,0,1-.89.65,64.89,64.89,0,0,1-16.83,2.3,86.12,86.12,0,0,1-17.18-1.38,100.37,100.37,0,0,1-16.71-4.35c-2.7-1-5.39-2.07-8-3.32a52.74,52.74,0,0,1-8.06-4.6l-.75-.52a19.41,19.41,0,0,1,22.36-31.73A20.09,20.09,0,0,1,2608.45,2205.09Z"/><path class="cls-2" d="M2882.32,2093.78a48.26,48.26,0,0,1,.5,6.84c0,2.06-.05,4.09-.27,6.09a76.24,76.24,0,0,1-2,11.86,80.68,80.68,0,0,1-9.2,22.15,67.38,67.38,0,0,1-15.3,18c-5.82,5.07-13,8.26-19.71,10.4a.32.32,0,0,1-.37-.46v0c3.66-6.28,6.79-12,8.41-18.25a67.62,67.62,0,0,0,2.91-17.83,121.65,121.65,0,0,0-.88-17.19q-.49-4.22-1.1-8.28l-1.09-7.17-.08-.5a19.27,19.27,0,0,1,38.11-5.79Z"/><path class="cls-2" d="M2686.67,2526l-1.77-2.08-1.46-1.84c-1-1.19-1.82-2.43-2.65-3.62-1.76-2.4-3.23-4.87-4.76-7.34a150.87,150.87,0,0,1-7.86-15.27,162.69,162.69,0,0,1-10.31-32.34c-2.21-11-3.65-22.24-3-33.47a94.85,94.85,0,0,1,7.12-32.78,1.27,1.27,0,0,1,1.66-.67,1.29,1.29,0,0,1,.64.62l0,0c4.91,10.3,8.15,20,12.28,29.26,3.73,9.32,7.52,18.32,11.67,27a274.82,274.82,0,0,0,13.54,25.16c2.32,4.1,4.94,8,7.35,11.92l7.12,10.69,1.05,1.59a19.22,19.22,0,0,1-30.65,23.1Z"/><path class="cls-2" d="M2830.93,2463.67c-.54-3.23-1.07-7.45-1.54-11.24l-1.42-11.74c-.92-7.84-1.88-15.72-3.11-23.5s-2.75-15.5-4.43-23.26a198.06,198.06,0,0,0-6.9-24.26l0-.08a1.6,1.6,0,0,1,1-2.05,1.55,1.55,0,0,1,1,0c9.26,2.93,17,9.33,23.47,16.33s11.2,15.27,15.41,23.55a151.92,151.92,0,0,1,10,25.68c1.26,4.39,2.37,8.81,3.19,13.3a99.76,99.76,0,0,1,1.78,14,19.28,19.28,0,0,1-38.27,4.15Z"/><path class="cls-2" d="M2944.42,2389.16c.34-2.33.71-5.84.9-8.89s.5-6.39.63-9.62c.18-6.45.44-13,.13-19.61a190.18,190.18,0,0,0-1.71-19.9,166,166,0,0,0-4-20.43v0a.83.83,0,0,1,.6-1,.87.87,0,0,1,.72.16,91.62,91.62,0,0,1,15.26,16,133.44,133.44,0,0,1,11.62,19.15,165.76,165.76,0,0,1,8.7,20.76c1.18,3.57,2.36,7.17,3.31,10.85a102.54,102.54,0,0,1,2.43,11.7l.15,1.13a19.53,19.53,0,0,1-38.72,5.17A20.12,20.12,0,0,1,2944.42,2389.16Z"/><path class="cls-5" d="M1467.48,1106.73c-49.53,49-52.66,121.31-52.66,121.31a167,167,0,0,1,16.48,43.31c13.73,63.64-29,94.71-29,94.71-94,28.67-191.5,37.34-191.5,37.34-107.67,2.89-92.64-114.66-92.25-117.55v0c-39.22-29-63-97-63-97S898.66,1090.74,934.8,1004c34.78-83.49,170.78,66.92,180.85,78.19-9.06-11-126.13-155.12-61.38-214,66.48-60.36,180.32,154.17,183.45,160-60.31-164.95-58.24-238,19.18-227.67,46.25,6.16,80.45,72.84,100.49,125.45a595.08,595.08,0,0,1,20.53,64.5.73.73,0,0,0,.09-.19,97.8,97.8,0,0,1,4.58-9c28.23-50.34,95.05-86.76,130.84-60.46C1551.35,948.77,1517.05,1057.69,1467.48,1106.73Z"/><g class="cls-1"><path class="cls-2" d="M1357.39,926.08a595.08,595.08,0,0,1,20.53,64.5s-21.92,41.29-26.07,56.8c0,0-89.8,6.17-145,123.86,0,0-3.41-102.89,93.37-151.87a40.91,40.91,0,0,0,21.62-28.13C1325.15,975.23,1334.08,951.18,1357.39,926.08Z"/></g><g class="cls-1"><path class="cls-2" d="M1402.29,1366.06c-94,28.67-191.5,37.34-191.5,37.34-107.67,2.89-92.64-114.66-92.25-117.55,0,0,173.43,72.51,312.76-14.5C1445,1335,1402.29,1366.06,1402.29,1366.06Z"/></g><path class="cls-2" d="M1206.85,1422.72c-33.92,0-60.72-10.75-79.72-32-27.83-31.12-29.52-75.82-28.59-96.46-31.6-28.43-52.06-75.64-58.77-92.77C1010.12,1181.79,878.92,1088,917,996.6c10.81-25.94,29-34,42.45-36.21,21.6-3.57,46.73,6.15,71,21.18-18.8-45.7-25-95,10.84-127.57,14.25-12.93,31.64-18,50.3-14.71,30.65,5.42,62.54,34.64,90,68.12-9.9-51.1-6.27-84.36,10.27-105,14.38-17.92,37.1-25,67.57-20.89,65.14,8.69,106.44,105.87,125.42,163.71,20.64-23.51,48.2-41.91,75.6-49.11,25-6.56,47.22-3.36,64.38,9.25,9.69,7.11,21.67,21.48,23.73,49.48,3.72,50.76-26.57,125-67.53,165.56-36.76,36.39-44.88,87.9-46.54,103.66,41.27,82.41,4.79,138.94-20.84,157.59a19.57,19.57,0,0,1-5.73,2.85c-94.89,28.87-191.34,37.7-195.41,38.06-.39,0-.79.06-1.18.07C1209.82,1422.7,1208.33,1422.72,1206.85,1422.72ZM969.57,998.12a24.1,24.1,0,0,0-3.87.3c-2.48.41-8.26,1.36-13.12,13-24.42,58.61,73.45,136.12,113.22,161a19.31,19.31,0,0,1,8,10c.22.61,22.33,62.8,56.23,87.83a19.29,19.29,0,0,1,7.64,18.16c-.06.44-6.28,49.36,18.32,76.71,12,13.33,29.58,19.64,53.71,19,8-.77,97.24-9.69,183.4-35.4,9.8-8.76,40.92-43.85,4.76-111.65a19.24,19.24,0,0,1-2.25-9.89c.14-3.26,4-80.43,58.34-134.17,32.85-32.5,59.11-95.75,56.2-135.35-.44-6-2.08-16.82-8.11-21.24-9.42-6.93-22.48-5.47-31.77-3-29.84,7.85-61.28,35.22-74.74,65.11a19.28,19.28,0,0,1-36.3-3.37c-15.7-64.5-58.07-169.16-104.86-175.4-24.31-3.23-30.42,4.32-32.42,6.8-11.75,14.64-15.39,60.4,34,195.27a19.26,19.26,0,0,1-35.15,15.57c-30.48-58-94.31-152.81-135.82-160.15-7-1.24-12.24.35-17.67,5.29-43.76,39.74,33.29,151.81,63.73,187.94a19.27,19.27,0,0,1-29.22,25.13C1065.18,1054,1001.63,998.12,969.57,998.12Z"/><path class="cls-2" d="M1400.91,1241.36c-2-2.88-4.46-6.69-6.69-10.2l-7-11-7.37-11.15c-2.57-3.78-5.16-7.74-8.42-12a42.36,42.36,0,0,1,15.78-.46,76,76,0,0,1,14.86,3.87,106.49,106.49,0,0,1,13.82,6,74.11,74.11,0,0,1,12.82,8.22Z"/><path class="cls-2" d="M1393.69,1001.68c-2.49,3.61-5.32,8.1-7.8,12.28s-4.93,8.59-7.16,12.93a130.06,130.06,0,0,0-10.24,25.67h0a20.43,20.43,0,0,1-16.82,14.51l-.19,0-1.94.26c-.76.09-1.61.25-2.47.41-1.7.31-3.41.62-5.18,1-3.51.64-7,1.73-10.58,2.56a199.69,199.69,0,0,0-20.93,7.3,176.91,176.91,0,0,0-39.08,22.25c-3.23,2.06-5.88,4.81-8.86,7.22a84.63,84.63,0,0,0-8.6,7.69l-8.24,8.23-7.51,9c-5.43,5.78-9.61,12.5-15.12,18.65-5.06,6.41-9.7,13.21-15.87,19.68l0,0a.3.3,0,0,1-.44,0,.27.27,0,0,1-.09-.24,121.05,121.05,0,0,1,4.08-25.66c1.28-4.13,2.69-8.25,4.25-12.31a69.39,69.39,0,0,1,5.52-11.85c2.08-3.84,4.23-7.67,6.46-11.46l7.55-10.87a97.39,97.39,0,0,1,8.23-10.47c3-3.29,5.68-6.92,9-9.9l9.73-9.34c3.46-2.86,7-5.62,10.58-8.43a180.13,180.13,0,0,1,23-14.56c3.92-2.31,8.17-4,12.28-6s8.5-3.38,12.79-5c4.39-1.43,8.76-2.83,13.34-3.9,2.23-.62,4.57-1.09,6.94-1.52,1.17-.22,2.35-.45,3.64-.62s2.39-.38,4.2-.56l-17,14.53h0c3.27-12.6,8.06-23.46,13.3-33.83q4-7.74,8.35-15.11c3-5,5.84-9.57,9.41-14.76a19.27,19.27,0,0,1,31.74,21.86h0Z"/><path class="cls-3" d="M1510.81,1686.94S1214.56,1567.16,1192.88,1323c0,0,51.1-75,171.11-48.65,0,0,25.27,155.62,212.13,236.67a45.62,45.62,0,0,1,17.75,70Z"/><g class="cls-1"><path class="cls-2" d="M1284.48,1295.57c16.48-10.45,38.5-19.91,66.92-23.62-111-18.61-158.52,51.06-158.52,51.06,21.68,244.15,317.93,363.93,317.93,363.93l26.86-34.26c-81.18-36.27-235-123-283-275.34A71.52,71.52,0,0,1,1284.48,1295.57Z"/></g><g class="cls-6"><path class="cls-5" d="M1576.12,1511C1389.26,1430,1364,1274.36,1364,1274.36c-74.62-16.37-122.59,6.43-148.2,26,20-8.23,45.67-13.85,77.45-12a50.62,50.62,0,0,1,44.94,33.88c16.92,48.8,67,148.52,204.22,208a45.61,45.61,0,0,1,17.74,70L1497,1680.83c8.77,4.07,13.82,6.11,13.82,6.11L1593.87,1581A45.62,45.62,0,0,0,1576.12,1511Z"/></g><path class="cls-2" d="M1510.8,1706.22a19.25,19.25,0,0,1-7.22-1.41c-12.54-5.07-307.43-127.11-329.89-380.1a19.25,19.25,0,0,1,3.27-12.56c2.38-3.5,59.94-85.39,191.16-56.61a19.27,19.27,0,0,1,14.89,15.73c1,5.89,26.58,146.52,200.78,222.08a64.89,64.89,0,0,1,25.24,99.56L1526,1698.83A19.26,19.26,0,0,1,1510.8,1706.22Zm-298-377.3c22.57,196,236.49,308.29,292.07,334.3l73.78-94.09a26.35,26.35,0,0,0-10.25-40.43c-164.08-71.16-209.62-196.47-220.49-237.82C1267.5,1277.47,1225.5,1314.83,1212.85,1328.92Z"/><path class="cls-2" d="M1204.19,1338.61c-.72.14-2.24.82-3.5,1.23l-4.09,1.47-8.6,3c-3,1-5.8,2.28-9,3.49s-6.7,2.36-11.17,3.81a25.78,25.78,0,0,1-1.49-12.74,58.05,58.05,0,0,1,3.08-11.43,72.59,72.59,0,0,1,5-10.5c1-1.65,2-3.3,3.14-4.85a31.23,31.23,0,0,1,4-4.74Z"/><path class="cls-2" d="M1365,1255.11c.92.1,1.21.17,1.67.25l1.17.25c.75.18,1.46.39,2.1.6,1.37.4,2.58,1,3.83,1.43a49.28,49.28,0,0,1,6.83,3.73,50.52,50.52,0,0,1,11.24,9.92,46,46,0,0,1,7.52,12.3,38,38,0,0,1,3,13.61,124.56,124.56,0,0,0-12.34-3.45,67.36,67.36,0,0,0-10.78-1.47,63,63,0,0,0-9.49.16c-1.47.14-2.86.29-4.17.48l-1.8.32a3.12,3.12,0,0,0-.74.17c-.11,0-.23,0-.25.07s-.2.06.24.12Z"/><path class="cls-3" d="M2696.05,894.66c-3.56,174.35-21.15,383.15-72.36,576,0,0-228.06,482.2-376.78,844.48-18.11,44.17-35.07,86.52-50.29,126-9,23.41-17.44,45.81-25.1,67-127,350-336.51,286-567.76,203.4,0,0-363.39-103.24-283.9-451.17,0,0,8.58-46,29.54-123.52,54.58-202,193.33-618.48,484.11-995.07,128.59-166.5,286.89-325.24,480.8-454.16a1787.13,1787.13,0,0,1,292.18-157.53c37.24-15.8,79.06,9.64,81.9,50C2693.31,650.7,2698.7,762.81,2696.05,894.66Z"/><g class="cls-7"><path class="cls-5" d="M1842.22,1242.49s-298.35,475.9-377.41,854.08c0,0,150.92,97.32,231.07,130.83,0,0,236.15-665.92,455-844.52l-40.26-236.4Z"/></g><path class="cls-8" d="M2623.69,1470.65s-228.06,482.2-376.78,844.48h-96c101.17-243.63,345.8-783.58,345.8-783.58Z"/><path class="cls-9" d="M2196.62,2441.16c-9,23.41-17.44,45.81-25.1,67-127,350-336.51,286-567.76,203.4,0,0-363.39-103.24-283.9-451.17,0,0,8.58-46,29.54-123.52C1349.4,2136.83,1581.7,2453.68,2196.62,2441.16Z"/><path class="cls-10" d="M2696.05,894.66c-3.56,174.35-21.15,383.15-72.36,576l-127,60.9-59.83-235.39-286,86.72-40.28-236.4-268.39,96-8.72-100.73c128.59-166.5,286.89-325.24,480.8-454.16a1787.13,1787.13,0,0,1,292.18-157.53c37.24-15.8,79.06,9.64,81.9,50C2693.31,650.7,2698.7,762.81,2696.05,894.66Z"/><path class="cls-11" d="M2196.64,2441.16c-614.95,12.51-847.26-304.31-847.26-304.31l36.48-123.56s212.92,325.86,861.65,300.41Z"/><path class="cls-2" d="M2696.05,894.66C2393.41,922.32,2315.75,692,2314.31,687.6a1787.13,1787.13,0,0,1,292.18-157.53c37.24-15.8,79.06,9.64,81.9,50C2693.31,650.7,2698.7,762.81,2696.05,894.66Z"/><g class="cls-6"><path class="cls-5" d="M1363.22,2294.07s8.58-46,29.53-123.52c54.59-202,193.33-618.48,484.12-995.07,128.58-166.49,286.89-325.23,480.8-454.15a1785.59,1785.59,0,0,1,292.18-157.54,58.47,58.47,0,0,1,33.49-3.74,59,59,0,0,0-76.85-30A1787.13,1787.13,0,0,0,2314.31,687.6c-193.91,128.92-352.21,287.66-480.8,454.16-290.78,376.59-429.53,793.07-484.11,995.07-21,77.56-29.54,123.52-29.54,123.52-46,201.52,56.5,321,150.94,385.78C1391.82,2576.52,1324.23,2464.75,1363.22,2294.07Z"/></g><g class="cls-1"><path class="cls-2" d="M2688.39,580.08a58.17,58.17,0,0,0-21.31-41.21c.9,44.1,1.1,92.43.07,143.82-2.59,126.61-12.57,271.38-37.45,415a1043.83,1043.83,0,0,1-82.15,261.9c-74.71,160.69-222.63,483.1-329.54,743.54-18.12,44.18-35.08,86.53-50.3,126-9,23.42-17.44,45.82-25.1,67-126.94,350-336.51,286-567.75,203.39,0,0-183.52-52.18-261.18-207.26-50.93,322.35,290.08,419.24,290.08,419.24,231.25,82.57,440.81,146.6,567.76-203.4,7.66-21.15,16.09-43.55,25.1-67,15.22-39.51,32.18-81.86,50.29-126,148.72-362.28,376.78-844.48,376.78-844.48,51.21-192.84,68.8-401.64,72.36-576C2698.7,762.81,2693.31,650.7,2688.39,580.08Z"/></g><path class="cls-2" d="M1873.32,2796c-90.21,0-185.36-33.92-275.49-66.11-9.22-2.7-97.93-29.92-178.37-98.81C1341.65,2564.4,1258,2445.33,1301,2256.43c2.58-13.45,65.59-334.29,252.31-703.36,111.57-220.52,244.89-415.12,396.26-578.37,189.55-204.43,408-360,649.41-462.37a78.19,78.19,0,0,1,108.63,66.39c10.86,155,26.22,552.54-65.28,896.87a18.42,18.42,0,0,1-1.2,3.28c-3.25,6.87-326.25,690.73-451.47,1035.84C2110.61,2732.56,1996.61,2796,1873.32,2796ZM2629.68,544.59a40.1,40.1,0,0,0-15.66,3.22c-535.18,227-853.24,680.87-1025.82,1021.66-187.59,370.41-248.8,691.23-249.4,694.43,0,.26-.1.51-.16.76-31.14,136.31,4.17,249.45,104.95,336.3,76.73,66.12,164.56,91.76,165.44,92,.4.12.81.25,1.2.39,91.21,32.57,180.32,64.39,262.12,64.39,111.57,0,209.57-59.13,281.07-256.19,122.87-338.63,434.46-1000.17,452.11-1037.56,89.51-338.35,74.33-729.8,63.62-882.58a39,39,0,0,0-18.76-30.92A39.49,39.49,0,0,0,2629.68,544.59Z"/><path class="cls-2" d="M2496.72,1550.82a19.28,19.28,0,0,1-18.67-14.53l-54.91-215.83-266.66,80.87a19.27,19.27,0,0,1-24.59-15.21l-36.4-213.76-246.78,88.27a19.28,19.28,0,0,1-25.69-16.48l-8.7-100.72,38.39-3.32,6.56,75.81,244.87-87.58a19.26,19.26,0,0,1,25.49,14.9l36.58,214.86,265.05-80.37a19.28,19.28,0,0,1,24.27,13.69L2509.6,1504l105.77-50.74L2632,1488l-127,60.91A19.33,19.33,0,0,1,2496.72,1550.82Z"/><path class="cls-2" d="M2177.32,2334.36c-299.76,0-497.75-77.15-613.61-144.67-136.68-79.66-191.7-162.37-194-165.86l32.27-21.08-16.14,10.54,16.11-10.57c.52.79,53.66,80,183.5,155,120.13,69.48,332.36,149.66,661.28,136.69l1.52,38.51Q2211.9,2334.38,2177.32,2334.36Z"/><path class="cls-2" d="M2162,2460.78c-302.86,0-508.52-81-629.17-150.38-136.89-78.76-196.48-158.79-199-162.15l31.06-22.82c.57.77,58.5,78,189.21,152.77,120.78,69.05,330.23,150.11,642.14,143.69l.78,38.54C2185.22,2460.66,2173.49,2460.78,2162,2460.78Z"/><path class="cls-2" d="M1960.12,1812.51c-2.6,17.29-7.85,39.21-18.5,60.6-21.2,42.64-63.78,83.2-149.25,81.33a97.51,97.51,0,0,1-67.68-29.1,181.09,181.09,0,0,1-28.81-38.11c-20.86-37.38-31.17-90.52,4.33-158a45,45,0,0,1,60.41-18.88c39.27,20.23,105.56,50.49,172.71,63.83A34,34,0,0,1,1960.12,1812.51Z"/><path class="cls-9" d="M1941.62,1873.11c-21.2,42.64-63.78,83.2-149.25,81.33a97.51,97.51,0,0,1-67.68-29.1,181.09,181.09,0,0,1-28.81-38.11C1732.63,1846.71,1820.65,1778.64,1941.62,1873.11Z"/><path class="cls-2" d="M1798,1969c-2,0-3.92,0-5.93-.07a111.61,111.61,0,0,1-77.66-33.45c-33.78-34.43-82.2-107.88-27-213,15.08-28.72,50.9-39.94,79.83-25h0c41.75,21.52,105,49.83,168.87,62.51a48.32,48.32,0,0,1,38.27,54.69C1967.45,1861.41,1936.33,1969,1798,1969Zm-58-249.21a30.48,30.48,0,0,0-27,16.18c-44.36,84.4-12.51,144.07,22,179.26a82.78,82.78,0,0,0,57.65,24.8c110.38,2.37,144.14-69.15,153.13-129.6a19.45,19.45,0,0,0-15.31-22.08c-67.21-13.33-133.07-42.79-176.49-65.16h0A30.39,30.39,0,0,0,1740,1719.76Z"/><ellipse class="cls-2" cx="1770.36" cy="1511.53" rx="109.04" ry="79.71" transform="translate(-423.84 2288.94) rotate(-60)"/><ellipse class="cls-5" cx="1799.26" cy="1511.53" rx="39.18" ry="28.64" transform="translate(-409.39 2313.96) rotate(-60)"/><ellipse class="cls-2" cx="2074.9" cy="1635.41" rx="109.04" ry="79.71" transform="translate(-378.85 2614.62) rotate(-60)"/><ellipse class="cls-5" cx="2103.8" cy="1635.41" rx="39.18" ry="28.64" transform="translate(-364.4 2639.66) rotate(-60)"/><path class="cls-11" d="M2357.17,1624.4c-18.31-10.86-27.62-17.2-31-19.6a18.34,18.34,0,0,1-2.77-2.43c-129.74-138.71-290.77-120.16-297.48-118.85a21.81,21.81,0,0,0-12.78,7.72c-.69.84-4.29,5.43-9.56,13a19.2,19.2,0,0,1-26.34,5c-22.85-15-43.2-22.48-59.59-26a19.19,19.19,0,0,1-14.91-22.28v0a20.43,20.43,0,0,0-2.49-13.84c-3.25-5.56-90.67-130.75-269.47-135.73a17.79,17.79,0,0,1-3.71-.48c-3.92-.93-14.18-3.57-33.06-9.65a36.42,36.42,0,0,0-42.47,16.06,77.49,77.49,0,0,0-5.46,11.07,31.43,31.43,0,0,0,9.25,35.7l3.66,3a19.16,19.16,0,0,1,6.27,19.86c-14.8,54.06-27.57,134.62,2.66,195.56a137.66,137.66,0,0,0,18.91,28.79c19.45,22.72,46.11,38.33,79.73,46.7,49.39,12.26,93.71,5.91,131.76-18.84,41.26-26.88,67.25-70.7,83-108.17a19.06,19.06,0,0,1,19.79-11.72c13.39,1.63,34.24,7.46,60,25.6a19.2,19.2,0,0,1,6.57,23.38c-16.57,37.37-29.71,84.28-22.74,131.37,7.09,47.68,33.17,87.39,77.65,118,30.26,20.86,61.5,31.1,93.2,30.59a148,148,0,0,0,36.2-5.21c70-18.94,125.24-86.28,157.76-136.09a19.15,19.15,0,0,1,19-8.46l5.74.9a33.28,33.28,0,0,0,34.89-17.76,86.31,86.31,0,0,0,5-12.08A38.67,38.67,0,0,0,2357.17,1624.4Zm-498.75-153.06c-8.63,32.28-32.15,100.83-82.55,133.59-28.51,18.53-61.06,22.91-99.47,13.41-34.64-8.64-58.14-26.28-71.89-53.95-29.93-60.28-5.91-151.2,8.85-195a20.61,20.61,0,0,1,19.53-14c129-.11,197.38,67.25,221.77,97.74A20.49,20.49,0,0,1,1858.42,1471.34ZM2289.28,1657c-24.42,42.45-79.74,125.5-148.73,144.06-31.66,8.55-62.26,2.3-93.44-19.21-34.6-23.78-54-52.76-59.3-88.47-9.4-63.11,28.54-130,48.16-159.54a21.79,21.79,0,0,1,17-9.77c41.41-2.06,143,4.92,233.69,107.58A21.93,21.93,0,0,1,2289.28,1657Z"/><path class="cls-2" d="M2113.47,1857.81c-32.88,0-65.29-10.86-96.41-32.3-46.71-32.14-74.21-74-81.7-124.52-6.18-41.69,1.71-87.67,23.45-136.69a9.53,9.53,0,0,0-3.3-11.59c-24.33-17.14-43.67-22.46-55.61-23.92a9.45,9.45,0,0,0-9.74,5.89c-14.77,35.21-41.78,83.31-86.6,112.51-40.4,26.28-87.29,33-139.34,20.13-35.51-8.84-64-25.59-84.72-49.79a147.46,147.46,0,0,1-20.25-30.81c-31.25-63-19-144.83-3.3-202.36a9.56,9.56,0,0,0-3.11-9.88l-3.67-3a41,41,0,0,1-12.07-46.68,87.33,87.33,0,0,1,6.1-12.38,46.32,46.32,0,0,1,53.73-20.37c18.8,6,28.89,8.63,32.36,9.46a9.21,9.21,0,0,0,1.78.22c186.85,5.2,276.69,139.14,277.48,140.48a30.16,30.16,0,0,1,3.67,20.36,3.2,3.2,0,0,1-.07.33,9.55,9.55,0,0,0,7.53,10.93c20.88,4.55,42,13.76,62.82,27.4a9.51,9.51,0,0,0,13.14-2.42c5.2-7.5,9-12.39,10-13.64a31.37,31.37,0,0,1,18.37-11.07c1.67-.32,171.25-22.76,306.38,121.71a8.06,8.06,0,0,0,1.31,1.15c3.08,2.18,12.25,8.43,30.36,19.18h0a48,48,0,0,1,21.35,56.31,94,94,0,0,1-5.54,13.48,42.77,42.77,0,0,1-45,22.91l-5.73-.89a9.53,9.53,0,0,0-9.45,4.2c-34.7,53.15-91.21,120.61-163.32,140.12a157.9,157.9,0,0,1-38.55,5.54Zm-214.6-348.36a27.31,27.31,0,0,1,3.36.21c14.13,1.72,36.77,7.86,64.37,27.29a28.83,28.83,0,0,1,9.82,35.16c-20.23,45.63-27.63,88-22,126.05,6.68,45,31.43,82.49,73.57,111.47,28.51,19.66,58,29.31,87.59,28.89a137.75,137.75,0,0,0,33.83-4.88c66.25-17.92,119.34-81.7,152.22-132.05a28.87,28.87,0,0,1,28.55-12.71l5.74.9a23.52,23.52,0,0,0,24.8-12.58,78.3,78.3,0,0,0,4.41-10.76,29.18,29.18,0,0,0-12.88-33.75h0c-18-10.71-27.58-17.14-31.66-20a28.69,28.69,0,0,1-4.25-3.72c-128.53-137.42-287.08-116.23-288.63-116a12.23,12.23,0,0,0-7.09,4.3c-.08.1-3.5,4.33-9.14,12.47a28.68,28.68,0,0,1-39.55,7.57c-18.83-12.34-37.79-20.65-56.35-24.69a28.71,28.71,0,0,1-22.33-33.5s0-.05,0-.07a10.85,10.85,0,0,0-1.34-7.14c-.75-1.22-84.66-126.05-261.42-131a28.72,28.72,0,0,1-5.67-.74c-4.6-1.1-15.07-3.83-33.79-9.86a26.93,26.93,0,0,0-31.22,11.77,68.79,68.79,0,0,0-4.78,9.68,21.74,21.74,0,0,0,6.43,24.8l3.64,3a28.85,28.85,0,0,1,9.42,29.83c-14.86,54.3-26.58,131.12,2,188.73a128.65,128.65,0,0,0,17.6,26.82c18.06,21.09,43.2,35.76,74.74,43.61,46.66,11.6,88.44,5.67,124.18-17.57,40.71-26.53,65.62-71.1,79.34-103.81A28.9,28.9,0,0,1,1898.87,1509.45Zm214.42,305c-24.11,0-47.77-8.17-71.66-24.65-36.9-25.36-57.63-56.43-63.35-95-9.7-65.08,27-132.12,49.67-166.29a31.21,31.21,0,0,1,24.57-14.06c41.34-2,147.57,4.62,241.4,110.81a31.49,31.49,0,0,1,3.72,36.52v0c-27.18,47.27-83.4,129.42-154.57,148.56A113.7,113.7,0,0,1,2113.29,1814.44Zm-49.15-281c-3.93,0-7.49.1-10.65.26a12.08,12.08,0,0,0-9.5,5.48c-17,25.65-55.72,91.89-46.65,152.78,4.89,33,23,59.77,55.22,82,28.7,19.8,56.66,25.64,85.48,17.84,66.86-18,122.17-103.55,142.87-139.53h0a12.23,12.23,0,0,0-1.42-14.18C2198.42,1546.29,2108.2,1533.45,2064.14,1533.45Zm-350.28,99.42a165.91,165.91,0,0,1-39.77-5.17c-37.56-9.37-63.13-28.68-78.21-59-31-62.51-8.09-153.58,8.35-202.31a30.27,30.27,0,0,1,29-20.5c133.49,0,204.59,70.86,229,101.35a30.23,30.23,0,0,1,5.55,26.61h0c-10,37.47-34.62,105.39-86.61,139.18A120.39,120.39,0,0,1,1713.86,1632.87Zm-80.67-267.75a11.07,11.07,0,0,0-10.7,7.4c-12.47,37-38.34,129.2-9.35,187.58,12.41,25,33.87,41,65.59,48.9,35.68,8.81,65.74,4.85,91.89-12.15,48.33-31.41,71-100,78.49-128h0a10.86,10.86,0,0,0-2-9.59C1824.48,1430.94,1758.31,1365.12,1633.19,1365.12Z"/><path class="cls-3" d="M2781.66,2079.21s-20.67,77.95-150.74,71.73c0,0-29.92-131.08-157.92-117.69-72.26,7.56-147.18-.48-198.73-8.91-55.54-9.11-78.67-77.28-39.21-117.41,20-20.28,53.09-36,107.34-37.81,0,0,17.43,1.39,44.56,3.61h.05c75.2,6.17,224.83,18.88,286.26,26.83,70.09,9.11,98.85,129.21,106.32,167.8C2781,2074.78,2781.66,2079.21,2781.66,2079.21Z"/><g class="cls-1"><path class="cls-2" d="M2781.66,2079.21s-20.67,77.95-150.74,71.73c0,0-29.92-131.08-157.92-117.69-72.26,7.56-147.18-.48-198.73-8.91-55.54-9.11-78.67-77.28-39.21-117.41,20-20.28,53.09-36,107.34-37.81,0,0,17.43,1.39,44.56,3.61-29.49,13.87-85.95,44.75-76,73.47,12.89,37.09,295.17-13.73,336.25,99.12,5.92,16.24,16.69,30.49,32,38.46,21.57,11.18,55.24,15.72,100.36-16.42C2781,2074.78,2781.66,2079.21,2781.66,2079.21Z"/></g><g class="cls-6"><path class="cls-5" d="M2230.24,1945.47c20-20.28,53.09-36,107.34-37.81,0,0,17.44,1.39,44.56,3.61h.05c75.2,6.17,224.83,18.88,286.26,26.83,65.37,8.49,94.78,113.48,104.51,158.91,6.69-10.23,8.7-17.8,8.7-17.8s-.62-4.43-2.07-11.85c-7.47-38.59-36.23-158.69-106.32-167.8-61.43-8-211.06-20.66-286.26-26.83H2387c-27.13-2.22-44.56-3.61-44.56-3.61-54.25,1.83-87.35,17.53-107.34,37.81a67.63,67.63,0,0,0-18.79,59A69,69,0,0,1,2230.24,1945.47Z"/></g><path class="cls-2" d="M2631.91,2170.19a5.7,5.7,0,0,1-4.51,0l-4.46-1.39a59.52,59.52,0,0,1-8.86-3.67,71.19,71.19,0,0,1-8.77-5.24,58.84,58.84,0,0,1-8.5-7.3,1.92,1.92,0,0,1,.1-2.7,100,100,0,0,1,8.53-6.91,97.57,97.57,0,0,1,8.27-5.3,68.8,68.8,0,0,1,8.18-4l4.05-1.68a4.74,4.74,0,0,1,4-.31l2.06,1a20.95,20.95,0,0,1-.1,37.46Z"/><path class="cls-2" d="M2773.67,2061.65c-.6.38-.22.3-.19.38a2,2,0,0,0,.45.09c.35,0,.78.07,1.23.06.89,0,1.94,0,3-.11,2.18-.12,4.55-.4,7.12-.76,5.08-.82,10.64-2,18.31-3a32,32,0,0,1,1,10.69,38.12,38.12,0,0,1-2.11,9.85,44.92,44.92,0,0,1-4.44,9.26,33.81,33.81,0,0,1-3.25,4.31,22.92,22.92,0,0,1-2,2.06,14.42,14.42,0,0,1-1.21,1,11.93,11.93,0,0,1-1.9,1.25Z"/><path class="cls-2" d="M2645.52,2170.57c-5,0-10.17-.12-15.51-.38a19.28,19.28,0,0,1-17.87-15c-1.08-4.63-28-114.18-137.16-102.82-74.82,7.85-152.13-.59-203.8-9.06a89.35,89.35,0,0,1-70.64-60.7c-10.45-32-2.68-65.36,20.79-89.23h0c26.65-27.1,67.16-41.76,120.4-43.57a17.63,17.63,0,0,1,2.18.05c10.12.8,248.68,19.77,331.82,30.55,95.34,12.36,122.23,177.18,125,195.94a19.38,19.38,0,0,1-.44,7.73C2799.31,2087.79,2775.81,2170.56,2645.52,2170.57ZM2490.77,2013c91.38,0,138.54,70,154.82,119,86.54-.06,110.95-42.26,116.26-54.69-7.63-45.9-36.43-151.56-91.07-158.65-79.36-10.29-310.76-28.83-328.81-30.27-42.49,1.61-73.83,12.39-93.16,32-13.19,13.41-17.53,32.19-11.64,50.25a50.28,50.28,0,0,0,40.25,34.62c49.33,8.09,123,16.18,193.55,8.77A191.18,191.18,0,0,1,2490.77,2013Z"/><path class="cls-4" d="M2534.48,1885.41a36.08,36.08,0,0,0-10.54-28.86c-3.39-3.36-84.2-82.32-181.43-69.49-59,7.78-109,46.28-148.6,114.43-48.36,83.12-61.57,163.45-39.26,238.75,36.76,124.07,157.3,186.19,162.41,188.77a36.13,36.13,0,0,0,32.68-64.45c-1-.51-98.4-51.35-125.95-145.35-16.22-55.32-5.26-116.35,32.58-181.38,27.73-47.67,59.79-74.28,95.29-79.09,27.94-3.79,55.33,5.78,77,17.45Z"/><path class="cls-2" d="M2333.3,2352.17a55.63,55.63,0,0,1-24.93-6c-5.41-2.74-133.11-68.54-172.2-200.5-23.88-80.59-10.05-166,41.09-253.92,42.79-73.57,97.54-115.23,162.73-123.84,106.46-14,193.86,71.29,197.53,74.93a55.32,55.32,0,0,1,16.16,44.23,19.29,19.29,0,0,1-20.87,17.5L2427,1895.39a19.37,19.37,0,0,1-7.47-2.23c-23.78-12.82-45.72-18-65.26-15.32-29.31,4-56.63,27.41-81.22,69.68-35.07,60.28-45.42,116.23-30.75,166.26,25,85.24,115.4,133.19,116.31,133.66a55.42,55.42,0,0,1-25.29,104.73Zm31-547.26a146.75,146.75,0,0,0-19.26,1.26c-52.74,7-98,42.28-134.46,105-45.59,78.36-58.19,153.59-37.45,223.59,34.43,116.19,147.83,174.62,152.64,177a16.62,16.62,0,0,0,7.54,1.81,16.88,16.88,0,0,0,7.65-31.92c-1-.53-105.79-55.2-135.65-157.08-17.77-60.59-6.18-126.69,34.42-196.48,30.87-53.08,67.66-82.85,109.36-88.5,26.66-3.64,55.3,2.33,85.11,17.69l68.61,6C2483.34,1846.42,2428.93,1804.91,2364.29,1804.91Z"/><path class="cls-4" d="M2238.24,3493.17c-82.57,114.37-383.14,86.86-422.07-18.79-13.87-37.72-.38-66.53,22.74-88,41.67-38.68,114.51-53.42,114.51-53.42,37.15-89,40.71-178.21,40.71-178.21-9-31.31-15.37-61.47,39.7-99.05s90.57,57.72,90.57,57.72c15.8-22.93,20.62-45.48,20.19-65.18-.78-37.15-20.19-64-20.19-64s59.11,18.89,90.19,10.21a32.47,32.47,0,0,0,5.15-1.78c29.1-12.67,53.48,3.71,53.48,3.71C2356.9,3200.84,2320.86,3378.8,2238.24,3493.17Z"/><path class="cls-5" d="M2238.26,3493.17c-82.59,114.38-383.18,86.85-422.08-18.78S1953.45,3333,1953.45,3333s128.81,2.22,200.63,88.28c12.06,14.43,34.36,14.48,46.76.39,44.15-50.27,114.53-178.24,13.75-427.17a38.74,38.74,0,0,0,5.14-1.78c29.11-12.7,53.48,3.71,53.48,3.71C2356.9,3200.84,2320.86,3378.79,2238.26,3493.17Z"/><path class="cls-5" d="M2112.73,3336.05a14.93,14.93,0,0,1-9.33-3.27c-55.22-44-132.69-15.88-133.46-15.6a15,15,0,1,1-10.47-28.11c3.81-1.42,94.28-34.19,162.62,20.24a15,15,0,0,1-9.36,26.74Z"/><path class="cls-5" d="M2132.33,3261.9a14.93,14.93,0,0,1-9.52-3.42c-60.37-49.67-131.51-12.15-132.22-11.75a15,15,0,1,1-14.28-26.39c3.63-2,89.79-47.38,165.56,15a15,15,0,0,1-9.54,26.58Z"/><path class="cls-5" d="M2154,3183.52a14.84,14.84,0,0,1-8.13-2.41c-55.93-36.19-146.19-1.59-147.1-1.25a15,15,0,0,1-10.92-27.94c4.29-1.67,105.62-40.44,174.32,4a15,15,0,0,1-8.17,27.59Z"/><g class="cls-1"><path class="cls-2" d="M2238.24,3493.17c-82.57,114.37-383.14,86.86-422.07-18.79-13.87-37.72-.38-66.53,22.74-88,45.53,49.91,144.38,129.74,285.49,88,178.15-52.7,200-354,20.19-426.11-.78-37.15-20.19-64-20.19-64s59.11,18.89,90.19,10.21a32.47,32.47,0,0,0,5.15-1.78c29.1-12.67,53.48,3.71,53.48,3.71C2356.9,3200.84,2320.86,3378.8,2238.24,3493.17Z"/></g><path class="cls-2" d="M2038.59,3584.44a453.81,453.81,0,0,1-61.38-4.15c-92.63-12.69-158.9-50.05-177.28-99.94-10.33-28-8.75-54.46,4.67-78.54,29.42-52.74,108.87-76.78,136.17-83.66,29.11-73.86,35-146.87,35.91-161.46-9.92-35.68-13.15-73.93,47.4-115.26,21.23-14.5,40-13,52-9.18,21.09,6.7,37.13,25.2,48,42.24,12.08-43-12.41-78.41-13.69-80.21a17.31,17.31,0,0,1,19.33-26.54c25,8,67.22,16,83.15,9.1,37.41-16.33,68.76,4.32,70.07,5.21a17.33,17.33,0,0,1,6.35,7.79c40.45,98.84,55.95,196.58,46.08,290.52-8.7,82.69-37.41,159.78-83,222.94C2210.57,3561.07,2122.92,3584.44,2038.59,3584.44Zm20.84-520.22c-4.06,0-9.27,1.3-15.84,5.78-46.7,31.89-40.59,53.1-32.85,80a17.46,17.46,0,0,1,.66,5.48c-.15,3.76-4.08,93.39-42,184.19a17.28,17.28,0,0,1-12.52,10.29c-26.28,5.37-99.48,28.22-122.07,68.79-8.38,15.06-9.17,31.31-2.4,49.68,13.47,36.55,72.15,67,149.5,77.62,86.28,11.84,198.9-2.84,242.34-63,92.07-127.48,104.83-300.07,35.29-474.34a41.07,41.07,0,0,0-32.89-.15c-19.18,8.37-47.82,5.82-71,1.38,9,28.29,12.79,70.05-17,113.31a17.3,17.3,0,0,1-30.47-3.77c-4.5-12-22-47.74-42.64-54.26A19.94,19.94,0,0,0,2059.43,3064.22Z"/><path class="cls-2" d="M2003,3169.6l-17.8-29.68c2.87-1.72,70.9-42.09,138.76-43.78l.86,34.59C2066.22,3132.19,2003.63,3169.22,2003,3169.6Z"/><path class="cls-2" d="M2177.56,3444.19H2177a42.5,42.5,0,0,1-32.15-15.23c-67.36-80.68-190.41-83.92-191.64-83.94l.42-24.09c5.49.1,135.19,3.33,209.7,92.59a18.17,18.17,0,0,0,14,6.58h.24a19,19,0,0,0,14.26-6.41c46.07-52.41,108.76-176.19,10.94-416.45l22.3-9.08c102.72,252.26,34.6,384.85-15.15,441.43A43,43,0,0,1,2177.56,3444.19Z"/><path class="cls-3" d="M1877.31,2668.4c-99.1,42.59-175.75-102.18-175.75-102.18.77,72,20.91,244.64,20.91,244.64-165.68,70.48-215.78-92.12-215.78-92.12s-.14-24,1.45-60.55c5.87-133.5,34.92-434.79,178.73-351.35,139.37,80.94,216.21,181,232.93,256.68C1930.73,2612.71,1916.33,2651.64,1877.31,2668.4Z"/><g class="cls-1"><path class="cls-2" d="M1877.31,2668.4c-99.1,42.59-175.75-102.18-175.75-102.18.77,72,20.91,244.64,20.91,244.64-165.68,70.48-215.78-92.12-215.78-92.12s-.14-24,1.45-60.55l4.76,7.32s3,2.42,8.34,6.1c50.3,34.67,119.51,4.8,128.79-55.58,9.54-62.2,30.34-137.41,75.52-157.15l3.17,46.18a83,83,0,0,0,33,61.08c36,26.76,98.4,55.37,158-2.62C1930.73,2612.71,1916.33,2651.64,1877.31,2668.4Z"/></g><g class="cls-6"><path class="cls-5" d="M1550.05,2728.38s-.15-24,1.44-60.56c5.09-115.63,27.59-357.1,127-365.44-136.52-67-164.56,225-170.32,355.81-1.59,36.56-1.45,60.55-1.45,60.55s32.27,104.65,130.59,109.62C1572.56,2801.41,1550.05,2728.38,1550.05,2728.38Z"/></g><path class="cls-2" d="M1682.31,2566.87a133.23,133.23,0,0,1,2.54-21.14,173.76,173.76,0,0,1,5.28-20.59,110.16,110.16,0,0,1,8.28-20c3.57-6.36,7.79-12.83,14-17.12a137.7,137.7,0,0,0,1.11,20.41c.74,6.51,1.41,12.9,2.29,19.32l2.69,19.13c.86,6.27,1.77,12.86,2.33,18.67Z"/><path class="cls-2" d="M1644.53,2847.89a148.71,148.71,0,0,1-63.37-13.73c-68.14-31.67-91.89-106.59-92.86-109.76a19,19,0,0,1-.85-5.56c-.23-37.71,1-370.31,111.65-434.44,20-11.59,53.08-20,97.43,5.76,176.63,102.53,250.76,230.34,245.89,311.53-2.38,39.53-22.8,69.51-57.49,84.42-68.12,29.28-125.07-13.57-160.67-54.26,5.88,77.94,17.2,175.49,17.35,176.78a19.28,19.28,0,0,1-11.6,20C1699.78,2841.45,1671.21,2847.88,1644.53,2847.89ZM1526,2715.47c4.26,11.65,25.12,62.37,71.7,83.86,29.43,13.58,64.37,13.23,104-1-4.9-43.64-18.69-171.34-19.34-231.94a19.27,19.27,0,0,1,36.29-9.23c1,1.77,69.75,128.49,151.12,93.52,21.22-9.12,32.74-26.38,34.23-51.32,4-67.14-65.2-182.11-226.76-275.89-23.1-13.4-42.31-15.28-58.75-5.75C1541.81,2362.15,1525.78,2616.79,1526,2715.47Z"/><path class="cls-4" d="M1725.31,3096.73l0,.15a230.82,230.82,0,0,1-18.69,40.61v.05c-27.56,46-67.69,64.89-117.26,30.39-130.7-90.95-494.57-262.6-489.32-411.66l0-.05c0-1.3.09-2.65.24-3.95a74.41,74.41,0,0,1,1.25-9.73c1.06-5.44,2.31-10.74,3.76-15.8,39.12-136.14,218.09-132.92,294.26-61.28l0,.05c79,74.33,129.3,64.27,129.3,64.27,95.24-24.81,102.23,89.8,102.23,89.8,35.74-3,59.11-10.65,72.89-16.91,11.32-5.16,16.14-9.4,16.14-9.4C1757.11,2883.41,1755.52,3011.7,1725.31,3096.73Z"/><path class="cls-5" d="M1725.31,3096.72l0,.15-18.74,40.56s-245.21-304.71-385.64-389.36c-138.17-83.29-218.34,5.3-220.84,8.15a86,86,0,0,1,1.49-13.69c29.39-152.09,219-151.36,298-77.08l0,.05c15.12,40.52,16.38,64.12,15.22,76a22.51,22.51,0,0,0,6.65,18.45C1602.32,2935.57,1725.31,3096.72,1725.31,3096.72Z"/><path class="cls-5" d="M1544,2840.47l-.8,0a19.27,19.27,0,0,1-18.47-20c.9-22.32-21.6-58-36-75.24a19.27,19.27,0,0,1,29.55-24.74c4.79,5.71,46.74,57.12,45,101.54A19.28,19.28,0,0,1,1544,2840.47Z"/><path class="cls-5" d="M1444.9,2751.76a14.45,14.45,0,0,1-14.45-14.15c-.21-10.2-11-31.39-18.65-43.18a14.45,14.45,0,0,1,24.26-15.71c3.81,5.88,22.84,36.33,23.29,58.29a14.45,14.45,0,0,1-14.15,14.75Z"/><path class="cls-5" d="M1486.71,2799.56h-.23a19.27,19.27,0,0,1-19-19.5c.32-26.58-16-55-16.17-55.32a19.27,19.27,0,0,1,33.27-19.45c.89,1.52,21.88,37.79,21.44,75.23A19.28,19.28,0,0,1,1486.71,2799.56Z"/><g class="cls-1"><path class="cls-2" d="M1725.31,3096.73l0,.15a230.82,230.82,0,0,1-18.69,40.61v.05c-27.56,46-67.69,64.89-117.26,30.39-130.7-90.95-494.57-262.6-489.32-411.66l0-.05c0-1.3.09-2.65.24-3.95a74.41,74.41,0,0,1,1.25-9.73c1.06-5.44,2.31-10.74,3.76-15.8,119.86,78.38,513.07,313,598.73,75.93,11.32-5.16,16.14-9.4,16.14-9.4C1757.11,2883.41,1755.52,3011.7,1725.31,3096.73Z"/></g><path class="cls-2" d="M1706.57,3137.48v.05c-27.56,46-67.69,64.89-117.26,30.4-130.7-91-494.57-262.61-489.32-411.67l0,0c0-1.3.09-2.65.24-3.95,6.94-7,13.68-8.58,13.68-8.58,196.75-158.79,592.56,393.74,592.56,393.74Z"/><path class="cls-2" d="M1638.39,3202.91c-19.1,0-39.07-6.93-59-20.78-29.21-20.33-70-44.59-117.21-72.68-179.51-106.79-402.9-239.69-377.67-370.2,12.4-64.1,52.77-110.23,113.69-129.9,72-23.27,161.72-4.94,213.24,43.55,66.52,62.61,109.67,60.29,114.06,59.86,30.41-7.68,56.53-3.84,77.62,11.47,27.68,20.09,38.55,55,42.72,76.31,45.14-6.3,63-20.37,63.15-20.53a17,17,0,0,1,15.23-3.69,17.22,17.22,0,0,1,11.91,10.36c54,131.69,30.24,335.86-46.25,397.22C1674.1,3196.57,1656.64,3202.91,1638.39,3202.91ZM1264.07,2634a180.27,180.27,0,0,0-55.22,8.29c-34.22,11-77.67,38-90.34,103.54-20.63,106.64,209.26,243.4,361.38,333.89,47.79,28.44,89.06,53,119.29,74,26.31,18.31,48.91,19.36,69.07,3.18,60.77-48.75,81.12-222.18,42.76-338.44-15.6,7.1-40.83,15.21-78.47,18.34a17.29,17.29,0,0,1-18.7-16.19c0-.44-3.48-48.5-31.11-68.45-12.7-9.17-28.87-11-49.47-5.67-.32.08-.64.16-1,.22-6,1.22-61.48,9.56-144.55-68.63C1357.82,2649.92,1310.42,2634,1264.07,2634Z"/><path class="cls-2" d="M1706.54,3149.46a12,12,0,0,1-9.38-4.49c-2.44-3-245.53-304-382.49-386.58-130.2-78.5-204.86,4.89-205.6,5.74l-18.19-15.78c.87-1,88.84-99.46,236.23-10.58,124.27,74.93,324.72,313.91,376.58,377.07l7.6-16.51c-23.55-30.14-139-175.15-298.2-329.7a34.52,34.52,0,0,1-10.27-28.28c.92-9.42.26-31.13-14.5-70.64l22.57-8.43c15.63,41.85,17.28,67.37,15.91,81.41a10.48,10.48,0,0,0,3.06,8.65c179.44,174.18,303.77,336.46,305,338.08a12.08,12.08,0,0,1,1.36,12.35l-18.75,40.69a12,12,0,0,1-9.46,6.91A12.37,12.37,0,0,1,1706.54,3149.46Z"/><path class="cls-2" d="M1613.45,2833.25c-19,0-35.94-5.41-50.54-16.17-38.39-28.3-45.66-83.5-46-85.83l23.91-3-11.95,1.49,11.94-1.51c.07.47,6.4,47.44,36.44,69.5,13.93,10.24,31.33,13.59,51.7,10l4.23,23.71A113.08,113.08,0,0,1,1613.45,2833.25Z"/></svg>