<svg id="Layer_1" data-name="Layer 1" xmlns="http://www.w3.org/2000/svg" viewBox="0 0 4000 4000"><defs><style>.cls-1{opacity:0.3;}.cls-2{fill:#000072;}.cls-3{fill:#fcaf03;}.cls-4{opacity:0.4;}.cls-5{fill:#fff;}.cls-6{fill:#ffe97d;}.cls-7{fill:#ff4a94;}.cls-8{fill:#ffdaa5;}.cls-9{fill:#00b1ff;}.cls-10{opacity:0.7;}</style></defs><g class="cls-1"><ellipse class="cls-2" cx="1868.75" cy="3221.4" rx="694.87" ry="116.14"/></g><path class="cls-3" d="M2696.05,894.66c-3.56,174.35-21.15,383.15-72.36,576,0,0-228.06,482.2-376.78,844.48-18.11,44.17-35.07,86.52-50.29,126-9,23.41-17.44,45.81-25.1,67-127,350-336.51,286-567.76,203.4,0,0-363.39-103.24-283.9-451.17,0,0,8.58-46,29.54-123.52,54.58-202,193.33-618.48,484.11-995.07,128.59-166.5,286.89-325.24,480.8-454.16a1787.13,1787.13,0,0,1,292.18-157.53c37.24-15.8,79.06,9.64,81.9,50C2693.31,650.7,2698.7,762.81,2696.05,894.66Z"/><g class="cls-4"><path class="cls-5" d="M1842.22,1242.49s-298.35,475.9-377.41,854.08c0,0,150.92,97.32,231.07,130.83,0,0,236.15-665.92,455-844.52l-40.26-236.4Z"/></g><path class="cls-6" d="M2623.69,1470.65s-228.06,482.2-376.78,844.48h-96c101.17-243.63,345.8-783.58,345.8-783.58Z"/><path class="cls-7" d="M2196.62,2441.16c-9,23.41-17.44,45.81-25.1,67-127,350-336.51,286-567.76,203.4,0,0-363.39-103.24-283.9-451.17,0,0,8.58-46,29.54-123.52C1349.4,2136.83,1581.7,2453.68,2196.62,2441.16Z"/><path class="cls-8" d="M2696.05,894.66c-3.56,174.35-21.15,383.15-72.36,576l-127,60.9-59.83-235.39-286,86.72-40.28-236.4-268.39,96-8.72-100.73c128.59-166.5,286.89-325.24,480.8-454.16a1787.13,1787.13,0,0,1,292.18-157.53c37.24-15.8,79.06,9.64,81.9,50C2693.31,650.7,2698.7,762.81,2696.05,894.66Z"/><path class="cls-9" d="M2196.64,2441.16c-614.95,12.51-847.26-304.31-847.26-304.31l36.48-123.56s212.92,325.86,861.65,300.41Z"/><path class="cls-2" d="M2696.05,894.66C2393.41,922.32,2315.75,692,2314.31,687.6a1787.13,1787.13,0,0,1,292.18-157.53c37.24-15.8,79.06,9.64,81.9,50C2693.31,650.7,2698.7,762.81,2696.05,894.66Z"/><g class="cls-10"><path class="cls-5" d="M1363.22,2294.07s8.58-46,29.53-123.52c54.59-202,193.33-618.48,484.12-995.07,128.58-166.49,286.89-325.23,480.8-454.15a1785.59,1785.59,0,0,1,292.18-157.54,58.47,58.47,0,0,1,33.49-3.74,59,59,0,0,0-76.85-30A1787.13,1787.13,0,0,0,2314.31,687.6c-193.91,128.92-352.21,287.66-480.8,454.16-290.78,376.59-429.53,793.07-484.11,995.07-21,77.56-29.54,123.52-29.54,123.52-46,201.52,56.5,321,150.94,385.78C1391.82,2576.52,1324.23,2464.75,1363.22,2294.07Z"/></g><g class="cls-1"><path class="cls-2" d="M2688.39,580.08a58.17,58.17,0,0,0-21.31-41.21c.9,44.1,1.1,92.43.07,143.82-2.59,126.61-12.57,271.38-37.45,415a1043.83,1043.83,0,0,1-82.15,261.9c-74.71,160.69-222.63,483.1-329.54,743.54-18.12,44.18-35.08,86.53-50.3,126-9,23.42-17.44,45.82-25.1,67-126.94,350-336.51,286-567.75,203.39,0,0-183.52-52.18-261.18-207.26-50.93,322.35,290.08,419.24,290.08,419.24,231.25,82.57,440.81,146.6,567.76-203.4,7.66-21.15,16.09-43.55,25.1-67,15.22-39.51,32.18-81.86,50.29-126,148.72-362.28,376.78-844.48,376.78-844.48,51.21-192.84,68.8-401.64,72.36-576C2698.7,762.81,2693.31,650.7,2688.39,580.08Z"/></g><path class="cls-2" d="M1873.32,2796c-90.21,0-185.36-33.92-275.49-66.11-9.22-2.7-97.93-29.92-178.37-98.81C1341.65,2564.4,1258,2445.33,1301,2256.43c2.58-13.45,65.59-334.29,252.31-703.36,111.57-220.52,244.89-415.12,396.26-578.37,189.55-204.43,408-360,649.41-462.37a78.19,78.19,0,0,1,108.63,66.39c10.86,155,26.22,552.54-65.28,896.87a18.42,18.42,0,0,1-1.2,3.28c-3.25,6.87-326.25,690.73-451.47,1035.84C2110.61,2732.56,1996.61,2796,1873.32,2796ZM2629.68,544.59a40.1,40.1,0,0,0-15.66,3.22c-535.18,227-853.24,680.87-1025.82,1021.66-187.59,370.41-248.8,691.23-249.4,694.43,0,.26-.1.51-.16.76-31.14,136.31,4.17,249.45,104.95,336.3,76.73,66.12,164.56,91.76,165.44,92,.4.12.81.25,1.2.39,91.21,32.57,180.32,64.39,262.12,64.39,111.57,0,209.57-59.13,281.07-256.19,122.87-338.63,434.46-1000.17,452.11-1037.56,89.51-338.35,74.33-729.8,63.62-882.58a39,39,0,0,0-18.76-30.92A39.49,39.49,0,0,0,2629.68,544.59Z"/><path class="cls-2" d="M2496.72,1550.82a19.28,19.28,0,0,1-18.67-14.53l-54.91-215.83-266.66,80.87a19.27,19.27,0,0,1-24.59-15.21l-36.4-213.76-246.78,88.27a19.28,19.28,0,0,1-25.69-16.48l-8.7-100.72,38.39-3.32,6.56,75.81,244.87-87.58a19.26,19.26,0,0,1,25.49,14.9l36.58,214.86,265.05-80.37a19.28,19.28,0,0,1,24.27,13.69L2509.6,1504l105.77-50.74L2632,1488l-127,60.91A19.33,19.33,0,0,1,2496.72,1550.82Z"/><path class="cls-2" d="M2177.32,2334.36c-299.76,0-497.75-77.15-613.61-144.67-136.68-79.66-191.7-162.37-194-165.86l32.27-21.08-16.14,10.54,16.11-10.57c.52.79,53.66,80,183.5,155,120.13,69.48,332.36,149.66,661.28,136.69l1.52,38.51Q2211.9,2334.38,2177.32,2334.36Z"/><path class="cls-2" d="M2162,2460.78c-302.86,0-508.52-81-629.17-150.38-136.89-78.76-196.48-158.79-199-162.15l31.06-22.82c.57.77,58.5,78,189.21,152.77,120.78,69.05,330.23,150.11,642.14,143.69l.78,38.54C2185.22,2460.66,2173.49,2460.78,2162,2460.78Z"/><path class="cls-2" d="M1960.12,1812.51c-2.6,17.29-7.85,39.21-18.5,60.6-21.2,42.64-63.78,83.2-149.25,81.33a97.51,97.51,0,0,1-67.68-29.1,181.09,181.09,0,0,1-28.81-38.11c-20.86-37.38-31.17-90.52,4.33-158a45,45,0,0,1,60.41-18.88c39.27,20.23,105.56,50.49,172.71,63.83A34,34,0,0,1,1960.12,1812.51Z"/><path class="cls-7" d="M1941.62,1873.11c-21.2,42.64-63.78,83.2-149.25,81.33a97.51,97.51,0,0,1-67.68-29.1,181.09,181.09,0,0,1-28.81-38.11C1732.63,1846.71,1820.65,1778.64,1941.62,1873.11Z"/><path class="cls-2" d="M1798,1969c-2,0-3.92,0-5.93-.07a111.61,111.61,0,0,1-77.66-33.45c-33.78-34.43-82.2-107.88-27-213,15.08-28.72,50.9-39.94,79.83-25h0c41.75,21.52,105,49.83,168.87,62.51a48.32,48.32,0,0,1,38.27,54.69C1967.45,1861.41,1936.33,1969,1798,1969Zm-58-249.21a30.48,30.48,0,0,0-27,16.18c-44.36,84.4-12.51,144.07,22,179.26a82.78,82.78,0,0,0,57.65,24.8c110.38,2.37,144.14-69.15,153.13-129.6a19.45,19.45,0,0,0-15.31-22.08c-67.21-13.33-133.07-42.79-176.49-65.16h0A30.39,30.39,0,0,0,1740,1719.76Z"/><ellipse class="cls-2" cx="1770.36" cy="1511.53" rx="109.04" ry="79.71" transform="translate(-423.84 2288.94) rotate(-60)"/><ellipse class="cls-5" cx="1799.26" cy="1511.53" rx="39.18" ry="28.64" transform="translate(-409.39 2313.96) rotate(-60)"/><ellipse class="cls-2" cx="2074.9" cy="1635.41" rx="109.04" ry="79.71" transform="translate(-378.85 2614.62) rotate(-60)"/><ellipse class="cls-5" cx="2103.8" cy="1635.41" rx="39.18" ry="28.64" transform="translate(-364.4 2639.66) rotate(-60)"/><path class="cls-9" d="M2357.17,1624.4c-18.31-10.86-27.62-17.2-31-19.6a18.34,18.34,0,0,1-2.77-2.43c-129.74-138.71-290.77-120.16-297.48-118.85a21.81,21.81,0,0,0-12.78,7.72c-.69.84-4.29,5.43-9.56,13a19.2,19.2,0,0,1-26.34,5c-22.85-15-43.2-22.48-59.59-26a19.19,19.19,0,0,1-14.91-22.28v0a20.43,20.43,0,0,0-2.49-13.84c-3.25-5.56-90.67-130.75-269.47-135.73a17.79,17.79,0,0,1-3.71-.48c-3.92-.93-14.18-3.57-33.06-9.65a36.42,36.42,0,0,0-42.47,16.06,77.49,77.49,0,0,0-5.46,11.07,31.43,31.43,0,0,0,9.25,35.7l3.66,3a19.16,19.16,0,0,1,6.27,19.86c-14.8,54.06-27.57,134.62,2.66,195.56a137.66,137.66,0,0,0,18.91,28.79c19.45,22.72,46.11,38.33,79.73,46.7,49.39,12.26,93.71,5.91,131.76-18.84,41.26-26.88,67.25-70.7,83-108.17a19.06,19.06,0,0,1,19.79-11.72c13.39,1.63,34.24,7.46,60,25.6a19.2,19.2,0,0,1,6.57,23.38c-16.57,37.37-29.71,84.28-22.74,131.37,7.09,47.68,33.17,87.39,77.65,118,30.26,20.86,61.5,31.1,93.2,30.59a148,148,0,0,0,36.2-5.21c70-18.94,125.24-86.28,157.76-136.09a19.15,19.15,0,0,1,19-8.46l5.74.9a33.28,33.28,0,0,0,34.89-17.76,86.31,86.31,0,0,0,5-12.08A38.67,38.67,0,0,0,2357.17,1624.4Zm-498.75-153.06c-8.63,32.28-32.15,100.83-82.55,133.59-28.51,18.53-61.06,22.91-99.47,13.41-34.64-8.64-58.14-26.28-71.89-53.95-29.93-60.28-5.91-151.2,8.85-195a20.61,20.61,0,0,1,19.53-14c129-.11,197.38,67.25,221.77,97.74A20.49,20.49,0,0,1,1858.42,1471.34ZM2289.28,1657c-24.42,42.45-79.74,125.5-148.73,144.06-31.66,8.55-62.26,2.3-93.44-19.21-34.6-23.78-54-52.76-59.3-88.47-9.4-63.11,28.54-130,48.16-159.54a21.79,21.79,0,0,1,17-9.77c41.41-2.06,143,4.92,233.69,107.58A21.93,21.93,0,0,1,2289.28,1657Z"/><path class="cls-2" d="M2113.47,1857.81c-32.88,0-65.29-10.86-96.41-32.3-46.71-32.14-74.21-74-81.7-124.52-6.18-41.69,1.71-87.67,23.45-136.69a9.53,9.53,0,0,0-3.3-11.59c-24.33-17.14-43.67-22.46-55.61-23.92a9.45,9.45,0,0,0-9.74,5.89c-14.77,35.21-41.78,83.31-86.6,112.51-40.4,26.28-87.29,33-139.34,20.13-35.51-8.84-64-25.59-84.72-49.79a147.46,147.46,0,0,1-20.25-30.81c-31.25-63-19-144.83-3.3-202.36a9.56,9.56,0,0,0-3.11-9.88l-3.67-3a41,41,0,0,1-12.07-46.68,87.33,87.33,0,0,1,6.1-12.38,46.32,46.32,0,0,1,53.73-20.37c18.8,6,28.89,8.63,32.36,9.46a9.21,9.21,0,0,0,1.78.22c186.85,5.2,276.69,139.14,277.48,140.48a30.16,30.16,0,0,1,3.67,20.36,3.2,3.2,0,0,1-.07.33,9.55,9.55,0,0,0,7.53,10.93c20.88,4.55,42,13.76,62.82,27.4a9.51,9.51,0,0,0,13.14-2.42c5.2-7.5,9-12.39,10-13.64a31.37,31.37,0,0,1,18.37-11.07c1.67-.32,171.25-22.76,306.38,121.71a8.06,8.06,0,0,0,1.31,1.15c3.08,2.18,12.25,8.43,30.36,19.18h0a48,48,0,0,1,21.35,56.31,94,94,0,0,1-5.54,13.48,42.77,42.77,0,0,1-45,22.91l-5.73-.89a9.53,9.53,0,0,0-9.45,4.2c-34.7,53.15-91.21,120.61-163.32,140.12a157.9,157.9,0,0,1-38.55,5.54Zm-214.6-348.36a27.31,27.31,0,0,1,3.36.21c14.13,1.72,36.77,7.86,64.37,27.29a28.83,28.83,0,0,1,9.82,35.16c-20.23,45.63-27.63,88-22,126.05,6.68,45,31.43,82.49,73.57,111.47,28.51,19.66,58,29.31,87.59,28.89a137.75,137.75,0,0,0,33.83-4.88c66.25-17.92,119.34-81.7,152.22-132.05a28.87,28.87,0,0,1,28.55-12.71l5.74.9a23.52,23.52,0,0,0,24.8-12.58,78.3,78.3,0,0,0,4.41-10.76,29.18,29.18,0,0,0-12.88-33.75h0c-18-10.71-27.58-17.14-31.66-20a28.69,28.69,0,0,1-4.25-3.72c-128.53-137.42-287.08-116.23-288.63-116a12.23,12.23,0,0,0-7.09,4.3c-.08.1-3.5,4.33-9.14,12.47a28.68,28.68,0,0,1-39.55,7.57c-18.83-12.34-37.79-20.65-56.35-24.69a28.71,28.71,0,0,1-22.33-33.5s0-.05,0-.07a10.85,10.85,0,0,0-1.34-7.14c-.75-1.22-84.66-126.05-261.42-131a28.72,28.72,0,0,1-5.67-.74c-4.6-1.1-15.07-3.83-33.79-9.86a26.93,26.93,0,0,0-31.22,11.77,68.79,68.79,0,0,0-4.78,9.68,21.74,21.74,0,0,0,6.43,24.8l3.64,3a28.85,28.85,0,0,1,9.42,29.83c-14.86,54.3-26.58,131.12,2,188.73a128.65,128.65,0,0,0,17.6,26.82c18.06,21.09,43.2,35.76,74.74,43.61,46.66,11.6,88.44,5.67,124.18-17.57,40.71-26.53,65.62-71.1,79.34-103.81A28.9,28.9,0,0,1,1898.87,1509.45Zm214.42,305c-24.11,0-47.77-8.17-71.66-24.65-36.9-25.36-57.63-56.43-63.35-95-9.7-65.08,27-132.12,49.67-166.29a31.21,31.21,0,0,1,24.57-14.06c41.34-2,147.57,4.62,241.4,110.81a31.49,31.49,0,0,1,3.72,36.52v0c-27.18,47.27-83.4,129.42-154.57,148.56A113.7,113.7,0,0,1,2113.29,1814.44Zm-49.15-281c-3.93,0-7.49.1-10.65.26a12.08,12.08,0,0,0-9.5,5.48c-17,25.65-55.72,91.89-46.65,152.78,4.89,33,23,59.77,55.22,82,28.7,19.8,56.66,25.64,85.48,17.84,66.86-18,122.17-103.55,142.87-139.53h0a12.23,12.23,0,0,0-1.42-14.18C2198.42,1546.29,2108.2,1533.45,2064.14,1533.45Zm-350.28,99.42a165.91,165.91,0,0,1-39.77-5.17c-37.56-9.37-63.13-28.68-78.21-59-31-62.51-8.09-153.58,8.35-202.31a30.27,30.27,0,0,1,29-20.5c133.49,0,204.59,70.86,229,101.35a30.23,30.23,0,0,1,5.55,26.61h0c-10,37.47-34.62,105.39-86.61,139.18A120.39,120.39,0,0,1,1713.86,1632.87Zm-80.67-267.75a11.07,11.07,0,0,0-10.7,7.4c-12.47,37-38.34,129.2-9.35,187.58,12.41,25,33.87,41,65.59,48.9,35.68,8.81,65.74,4.85,91.89-12.15,48.33-31.41,71-100,78.49-128h0a10.86,10.86,0,0,0-2-9.59C1824.48,1430.94,1758.31,1365.12,1633.19,1365.12Z"/></svg>