<svg id="Object_1" xmlns="http://www.w3.org/2000/svg" viewBox="0 0 3000 3000"><defs><style>.cls-1{fill:#1a1a1a;}.cls-2{fill:#ffc981;}.cls-3{fill:#ffe8b2;}.cls-4{fill:#ffa65d;}.cls-5{fill:#ffc11c;}.cls-6{fill:#ff649d;}.cls-7{fill:#e7418d;}.cls-8{fill:#ffdc6f;}.cls-9{fill:#aeaeae;}.cls-10{fill:#ff9f0a;}.cls-11{fill:#858585;}.cls-12{fill:#fff;}.cls-13{fill:#565656;}</style></defs><path class="cls-1" d="M1735.76,506.31c-33.47.46-70.88,10.65-94.72,41.59L665.73,1814.24l-.65,696,674.27-180.66,975.27-1266.28c23.83-30.94,24.08-69.84,15.84-102.27s-24.61-63.7-46.71-96.3c-44.2-65.21-112.61-135.11-197.61-200.08l-14.63-11.19h-1c-79.78-59-159.39-103.11-229.41-127.17C1803.76,513.49,1769.23,505.85,1735.76,506.31Zm-8.52,108c-3,4-4.23,1,10,.8s39,4,68.43,14.11c58.93,20.25,137.16,62.88,214.36,121.9s138.77,123.26,173.63,174.69c17.43,25.71,27.85,48.37,31.32,62.05a49.81,49.81,0,0,1,1.86,11.11L1275.62,2234,774,2368.44l.48-517.11Z"/><path class="cls-2" d="M1080.39,1998.48c43.13,33.82,77,87.58,82.28,172.63,142.7-4.16,144.81,110.71,144.81,110.71L719.54,2439.35l.57-606.56s111.91-27.7,144.81,110.7C864.92,1943.49,992.07,1929.22,1080.39,1998.48Z"/><path class="cls-3" d="M1265.62,2199.52c41,32.83,41.86,82.3,41.86,82.3L719.54,2439.35l443.13-268.24C1211.73,2169.68,1244.17,2182.32,1265.62,2199.52Z"/><path class="cls-4" d="M810.74,1851.77c22.23,16.19,42.87,44.15,54.18,91.72L719.54,2439.35l.57-606.56S768.31,1820.86,810.74,1851.77Z"/><path class="cls-1" d="M852.71,2263.22A372.93,372.93,0,0,1,953.6,2376.64l-234.06,62.71.23-241.47S784.59,2212.25,852.71,2263.22Z"/><path class="cls-5" d="M1701.3,1164.66c77.89,59.54,144.66,126.95,185.62,187.38s52.76,109,32.79,134.86l-612.23,794.92s-2.11-114.87-144.81-110.71c-16.09-259.22-297.75-227.62-297.75-227.62-32.9-138.4-144.81-110.7-144.81-110.7l612.23-794.92c20-25.92,70.05-27.12,139.24-3.35S1623.4,1105.11,1701.3,1164.66Z"/><path class="cls-6" d="M2053.1,707.88c162.2,124,260,268.28,218.42,322.25l-204.61,265.65c20-25.92,8.17-74.43-32.79-134.86s-107.73-127.84-185.62-187.38S1688,867.18,1618.78,843.4s-119.28-22.57-139.24,3.35l204.6-265.65C1725.71,527.12,1890.9,583.89,2053.1,707.88Z"/><path class="cls-7" d="M1893.83,607.57,1689.14,873.33c-103.12-51-182.83-61.08-209.6-26.58l204.6-265.65C1711.78,545.21,1794.1,558.33,1893.83,607.57Z"/><path class="cls-8" d="M1839.69,1292.08c76.1,86,106.54,160.13,80,194.82l-612.23,794.92s-2.11-114.87-144.81-110.71Z"/><path class="cls-9" d="M2066.92,1295.78c20-25.92,8.16-74.43-32.8-134.86s-107.73-127.84-185.62-187.38S1688,867.18,1618.78,843.4s-119.28-22.57-139.24,3.35Zm0,0-147.2,191.12c41.56-54-56.22-198.24-218.42-322.24s-327.39-180.76-369-126.79l147.2-191.12Z"/><path class="cls-10" d="M1541.93,1064.47l-677,879c-32.9-138.4-144.81-110.7-144.81-110.7l612.23-794.92C1359.12,1003.39,1438.83,1013.51,1541.93,1064.47Z"/><path class="cls-11" d="M1689.14,873.34l-147.2,191.12c-103.11-51-182.83-61.08-209.6-26.59l147.2-191.12C1506.31,812.26,1586,822.37,1689.14,873.34Z"/><path class="cls-12" d="M1986.89,1101c28.19,31.9,50.59,62.73,65.89,90.71L1905.47,1383c-15.23-28-37.58-58.88-65.79-90.85Z"/><path class="cls-1" d="M1736.2,537.39c-28,.39-54.37,8.51-70.52,29.48l-964,1251.69A23.32,23.32,0,1,0,738.58,1847l964-1251.69c4.64-6,14.49-11,34.24-11.31s47.25,4.89,79,15.79c63.4,21.79,143.7,65.88,223.13,126.6s143,126.59,180.48,182c18.76,27.68,30.89,52.8,35.72,71.83s2.54,29.71-2.09,35.72L1289,2267.59A23.32,23.32,0,1,0,1326,2296l964-1251.69c16.15-21,17.22-48.57,10.34-75.64s-21.54-55.89-42.31-86.52c-41.53-61.27-108-129.55-190.76-192.82S1901.09,579.8,1831,555.71C1795.9,543.66,1764.18,537,1736.2,537.39Z"/><path class="cls-13" d="M914.61,2321.27a365.36,365.36,0,0,1,39,55.37l-234.06,62.71Z"/><path class="cls-1" d="M719.89,1817a15.55,15.55,0,0,0-15.32,15.75L704,2459.61l607.53-162.78a15.55,15.55,0,1,0-8-30L735.1,2419.09l.55-586.29A15.54,15.54,0,0,0,719.89,1817Z"/><path class="cls-1" d="M737,1815.15a112,112,0,0,0-20.59,2.55,15.54,15.54,0,1,0,7.46,30.17s23.91-5.78,51.56,3.16,58.92,30.94,74.4,96l3.18,13.39,13.67-1.54s67.56-7.31,136.13,15.89,136.69,73.28,144.38,197.26l.93,15,15-.44c67.18-2,96.63,22.47,112.44,46.74S1292,2282.1,1292,2282.1a15.54,15.54,0,1,0,31.08-.57s-.49-33-21.42-65.11c-19.5-29.94-58.51-58.48-124.82-60.49-13-125.39-90.53-185.69-164-210.56-57-19.28-112.13-19.41-136.48-18.25-19-64.13-57-94.6-91.3-105.67A137.79,137.79,0,0,0,737,1815.15Z"/><path class="cls-1" d="M1858,961.22c82.21,62.85,148.19,130.73,189,191,20.43,30.14,34.68,58.34,41.21,84.06s5.27,50.46-9,68.94l-24.7-18.88c6.55-8.51,8.65-22,3.47-42.42s-17.73-46.13-36.82-74.31C1983,1113.26,1919,1047,1839,985.85S1678.22,880.24,1613.7,858.07c-32.26-11.08-60.47-16.49-81.58-16.2s-33.68,5.81-40.23,14.32l-24.69-18.88c14.23-18.48,37.89-26.1,64.52-26.47s57.64,6,92.15,17.9C1692.89,852.45,1775.77,898.37,1858,961.22Z"/><path class="cls-1" d="M1710.78,1152.35c82.21,62.85,148.19,130.72,189,191,20.43,30.14,34.67,58.33,41.21,84.05s5.27,50.46-9,68.94l-24.7-18.88c6.55-8.51,8.65-22,3.47-42.42s-17.73-46.13-36.82-74.31c-38.2-56.35-102.22-122.61-182.2-183.76S1531,1071.37,1466.5,1049.2c-32.26-11.09-60.47-16.5-81.58-16.21s-33.68,5.81-40.23,14.32l-24.7-18.88c14.24-18.48,37.9-26.1,64.53-26.47s57.64,6,92.15,17.9C1545.69,1043.58,1628.57,1089.5,1710.78,1152.35Z"/><path class="cls-1" d="M723.13,2182.7l-6.72,30.35s143.9,32,223.71,171.32l27-15.46C880.27,2217.41,723.13,2182.7,723.13,2182.7Z"/></svg>