<svg id="Layer_1" data-name="Layer 1" xmlns="http://www.w3.org/2000/svg" viewBox="0 0 4000 4000"><defs><style>.cls-1{fill:#fff;}.cls-2{fill:#371a45;}.cls-3{opacity:0.25;}.cls-4{fill:#ff2c27;}.cls-5{opacity:0.6;}.cls-6{opacity:0.3;}.cls-7{fill:#4089ff;}.cls-8{opacity:0.5;}.cls-9{fill:#ffd39f;}.cls-10{opacity:0.7;}.cls-11{fill:#ffc41d;}.cls-12{fill:#293856;}.cls-13{fill:#21102b;}.cls-14{opacity:0.35;}.cls-15{fill:#22a7f0;}</style></defs><path class="cls-1" d="M1940.9,1757.59,1869,1888.8l-30.89,56.4s-10.29.7-28.15.5c-86.75-1-352.72-24.15-490.23-257.89-113.79-193.45-44.17-284.84,65.49-282.49,26.5.6,51.55,12.48,79.4,32.39,68.58,48.91,154.08,146.19,319.38,241.87A1416,1416,0,0,0,1940.9,1757.59Z"/><path class="cls-2" d="M1476,1863.39a13,13,0,0,1-5-25h0c6.17-2.61,151.11-66.13,165.4-257a13,13,0,1,1,25.91,1.94c-15.52,207.2-174.48,276.18-181.24,279A12.9,12.9,0,0,1,1476,1863.39Z"/><g class="cls-3"><path class="cls-2" d="M1940.9,1757.59,1869,1888.8l-30.89,56.4s-10.29.7-28.15.5c-86.75-1-352.72-24.15-490.23-257.89-52.45-89.14-65.93-156.62-54.5-203.23,7,37.08,24.31,81.25,54.5,132.56C1457.22,1850.87,1723.19,1874,1809.94,1875c17.86.2,28.15-.5,28.15-.5l30.89-56.4,40.68-74.22Q1924.93,1750.81,1940.9,1757.59Z"/></g><path class="cls-2" d="M1816.12,1963.1c-33.83,0-101.18-3.2-179.52-24.15-146.92-39.3-261.66-123.11-331.81-242.37-78.31-133.13-66.74-208.84-43.25-248.92,23.27-39.69,67.48-60.91,124-59.65,53.64,1.15,99.8,41.35,163.68,97,82.76,72.08,196.1,170.79,398.41,256.66a17.33,17.33,0,0,1-13.54,31.9c-207.38-88-323.12-188.83-407.63-262.44-60.56-52.74-100.57-87.59-141.67-88.47-43.66-1-76.78,14.17-93.41,42.53-26.58,45.33-11.22,121.28,43.22,213.83,66.2,112.54,170.43,188.64,309.82,226.18,105,28.27,191.56,22.79,192.42,22.74a17.32,17.32,0,0,1,2.39,34.56C1838.2,1962.56,1830,1963.1,1816.12,1963.1Z"/><path class="cls-1" d="M2548,2395.2c-67.23,77-202.34,96.48-237,148.53-30.39,45.67-19.51,103.87-16.57,164.86,2.5,52.21-6.44,120.53-50.31,179.73-66.43,89.54-192.51,98.87-260.83,41.92-78-65,18.91-228.59,33-248.75,0,0-21.31-26.16-41.13-49.71-14.42-17.17-24.55-41.58-29.85-69.38-158.11-8.73-284.29,118.44-368,141.1-92.93,25.15-193.8-41.48-261.43-171.54-55.6-107-15.12-201.55,67.23-211.48,62.94-7.53,171.64,78.31,171.64,78.31s49.41-215.51,237-190.26c0,0,20.46-106.31,18.17-262.83-.35-24.45-1.25-50.21-2.9-76.91A1548.56,1548.56,0,0,0,1784,1679.58c-1.4-7.19-2.79-14.38-4.24-21.61l591.79-40.28q15.64,17.67,30,35.64,13.7,17.07,26.35,34.28a964.28,964.28,0,0,1,101.72,173.69C2632.12,2088.05,2623.33,2308.8,2548,2395.2Z"/><path class="cls-1" d="M2047.76,2587.56c-206.33-91.19-369.39,88.59-470.46,115.94-92.93,25.15-193.8-41.48-261.43-171.54-20.76-39.93-28.1-78.12-24.91-110.86,5.34-54.9,40.53-94.38,92.14-100.62,62.94-7.53,171.64,78.31,171.64,78.31s49.41-215.51,237-190.26c0,0,48.46-251.75-12-550.56l192,665.91Z"/><g class="cls-3"><path class="cls-2" d="M2047.76,2587.56c-206.33-91.19-369.39,88.59-470.46,115.94-92.93,25.15-193.8-41.48-261.43-171.54-20.76-39.93-28.1-78.12-24.91-110.86,90.19,153.48,390.16,24.66,455.19-29.09,60.54-50.07,229.91-100.22,347.8-96.91Z"/></g><path class="cls-2" d="M1790.43,2606.34a13.55,13.55,0,0,1-1.89-.13,13,13,0,0,1-11-14.74c33.32-228.12-147.35-321.16-149.18-322.07a13,13,0,0,1,11.61-23.26c2.06,1,50.87,25.78,95.58,81.24,41.26,51.18,86.5,139.2,67.7,267.85A13,13,0,0,1,1790.43,2606.34Z"/><path class="cls-2" d="M1537.37,2726.17c-87.51,0-175.22-67.69-236.87-186.23-32.49-62.49-36.58-125.86-11.23-173.87,18.81-35.63,51.39-57.92,91.74-62.77,53.08-6.41,128.2,41.2,164.43,67,20-56.69,83.27-190.48,231.88-180.58,9.06-59.07,36.08-278.23-14.58-528.26a17.32,17.32,0,1,1,34-6.88c60.51,298.7,12.55,554.73,12.06,557.28l-3.1,16.07-16.22-2.18c-169.48-22.81-215.9,168.8-217.79,177l-6.17,26.61-21.45-16.9c-28.7-22.64-113.31-80.06-158.88-74.69-28.73,3.45-51.9,19.27-65.24,44.54-20,37.81-15.83,89.47,11.34,141.71,64.17,123.41,156.72,185.79,241.5,162.84,26.1-7.07,58-26,95-47.88,97.24-57.55,230.39-136.36,387-67.18a17.32,17.32,0,1,1-14,31.69c-140.29-62-259.53,8.59-355.33,65.31-39.17,23.18-73,43.2-103.64,51.5A169.38,169.38,0,0,1,1537.37,2726.17Z"/><path class="cls-4" d="M1200.61,2591.56l-199,43.39c-161,35.12-263.1,194.12-228,355.15h0c35.11,161,194.12,263.1,355.14,228l199-43.39Z"/><g class="cls-5"><path class="cls-1" d="M1327.75,3163l-5.09,1.09-109.11-500.35-199,43.37c-140.75,30.69-236.48,156-234.88,294.57-2.35-7.63-4.34-15.37-6.09-23.3-35.09-161,67-320,228-355.12l199.05-43.42Z"/></g><g class="cls-6"><path class="cls-2" d="M786.38,2938.81c.67,3.76,1.4,7.52,2.22,11.29a298.37,298.37,0,0,0,355.15,228l176.36-38.45-27.19-124.7-199,43.4c-120.8,26.34-240.48-24.52-307.54-119.53Z"/></g><path class="cls-2" d="M1064.54,3242.36a316,316,0,0,1-307.86-248.57c-37.1-170.1,71.11-338.67,241.22-375.76l199-43.4a17.3,17.3,0,0,1,20.62,13.23L1344.69,3171a17.33,17.33,0,0,1-13.23,20.62l-199,43.4A318.91,318.91,0,0,1,1064.54,3242.36Zm122.83-630.19-182.09,39.71c-151.44,33-247.77,183.09-214.76,334.53a281.09,281.09,0,0,0,334.53,214.75l182.1-39.71Z"/><rect class="cls-7" x="1295.99" y="2388.83" width="1729.64" height="597.18" transform="translate(-522.96 522.07) rotate(-12.3)"/><g class="cls-8"><polygon class="cls-1" points="2954.33 2269.89 3069.37 2795.13 3081.89 2792.41 2954.33 2210 1260 2577.84 1272.52 2635.01 2954.33 2269.89"/></g><g class="cls-6"><polygon class="cls-2" points="3030.66 2617.3 1340.72 2985.81 1373.58 3136.54 1370.44 3122.11 3054.39 2754.9 3024.67 2618.61 3030.66 2617.3 3069.39 2794.9 1379.45 3163.41 1379.45 3163.41 3069.39 2794.9 3030.66 2617.3"/></g><path class="cls-2" d="M1379.46,3180.73a17.32,17.32,0,0,1-16.92-13.63l-127.23-583.47a17.33,17.33,0,0,1,13.23-20.62l1689.93-368.5a17.22,17.22,0,0,1,9.06.45l.65.22a17.31,17.31,0,0,1,4.77,30.51A92.26,92.26,0,0,0,2942,2366a38,38,0,0,1,11.31,27.89,37,37,0,0,1-12.55,26.87A108.17,108.17,0,0,0,2981,2605.12a36.9,36.9,0,0,1,22.58,19.21,38,38,0,0,1,1.33,30.07,92.33,92.33,0,0,0,68.34,123.11,17.32,17.32,0,0,1,7.47,30.47l-.08.07a18.58,18.58,0,0,1-7.57,3.78l-1689.93,368.5A17.09,17.09,0,0,1,1379.46,3180.73Zm-106.61-587.56,119.85,549.62L3015.62,2788.9a126.94,126.94,0,0,1-43.09-146.78,3.15,3.15,0,0,0,0-2.54,2.57,2.57,0,0,0-1.63-1.34,142.82,142.82,0,0,1-53.07-243.37,2.49,2.49,0,0,0,.92-1.88,3.07,3.07,0,0,0-1-2.32,126.91,126.91,0,0,1-21.91-151.4Z"/><path class="cls-9" d="M3452,2452.48l-82.44,73.81-168.92,151.17-130.75,117a109.64,109.64,0,0,1-81.13-146.23,20.27,20.27,0,0,0-3.86-21,19.86,19.86,0,0,0-8.93-5.62,125.46,125.46,0,0,1-46.63-213.83,20.08,20.08,0,0,0,.56-29.5,109.54,109.54,0,0,1,13-166.69l167.54,51.94,216.48,67.17,105.74,32.78a51.45,51.45,0,0,1,31.7,27.31C3473.65,2410.62,3470.56,2435.81,3452,2452.48Z"/><g class="cls-10"><path class="cls-1" d="M3460.19,2443.2a3.06,3.06,0,0,0-.25-.6,51.4,51.4,0,0,0-31.7-27.3l-105.71-32.79L3106,2315.38l-167.55-52a109.58,109.58,0,0,0-39.73,54,109.4,109.4,0,0,1,44.07-105.71l167.55,51.91,216.47,67.18,105.76,32.79a51.46,51.46,0,0,1,31.69,27.3A52.28,52.28,0,0,1,3460.19,2443.2Z"/></g><g class="cls-6"><path class="cls-2" d="M3000.09,2747.83a109.92,109.92,0,0,0,39.77,16.66l130.75-117L3350,2500l72-77.52a52.55,52.55,0,0,0,11.48-14.68l1.25-.68-306.09,168.34a484.76,484.76,0,0,1-130.47,48.93l-13.27,2.9a20.27,20.27,0,0,1,3.86,21,109.47,109.47,0,0,0,17.2,107.43C3003.89,2753.16,3001.91,2750.56,3000.09,2747.83Z"/></g><path class="cls-2" d="M3452,2452.48l-82.44,73.81c-22.76-21-41.1-53.3-49.47-91.68s-5.13-75.3,6.78-103.85l105.74,32.78C3471.42,2375.55,3482.27,2425.34,3452,2452.48Z"/><path class="cls-2" d="M3069.86,2811.82a17,17,0,0,1-3.39-.34,127,127,0,0,1-93.94-169.36,3.15,3.15,0,0,0,0-2.54,2.57,2.57,0,0,0-1.63-1.34,142.82,142.82,0,0,1-53.07-243.37,2.49,2.49,0,0,0,.92-1.88,3.07,3.07,0,0,0-1-2.32,126.88,126.88,0,0,1,15-193.07,17.38,17.38,0,0,1,15.27-2.5L3437.71,2347a69.62,69.62,0,0,1,25.82,118.39h0l-382.11,342A17.34,17.34,0,0,1,3069.86,2811.82ZM2946.4,2230.89A92.25,92.25,0,0,0,2942,2366a38,38,0,0,1,11.31,27.89,37,37,0,0,1-12.55,26.87A108.17,108.17,0,0,0,2981,2605.12a36.9,36.9,0,0,1,22.58,19.21,38,38,0,0,1,1.33,30.07,92.32,92.32,0,0,0,60.2,121.09l375.3-335.92h0a35,35,0,0,0-13-59.5ZM3452,2452.48h0Z"/><path class="cls-11" d="M1339.65,3219.45c-63.78,13.91-125.13-16.89-138.2-69.42-16.56-66.49-38.78-158.12-56.85-241s-36-175.45-48.65-242.8c-10-53.2,33-106.75,96.76-120.66h0c66-14.39,128.88,19.07,139.23,74.12,12.58,66.91,30.11,157.1,47.76,238.07S1419,3028,1435.39,3094.09c13.51,54.37-29.73,111-95.74,125.36Z"/><g class="cls-5"><path class="cls-1" d="M1337.18,2647.34c-20.51-28.35-57.45-45.72-98.67-45.72a150.31,150.31,0,0,0-32.24,3.49c-56.7,12.38-97.73,54.56-102.72,101.07-2.7-14.07-5.24-27.45-7.59-40-10-53.21,32.94-106.71,96.73-120.64a146,146,0,0,1,30.75-3.34c53.75,0,99.82,31.09,108.5,77.46C1333.59,2628.52,1335.33,2637.76,1337.18,2647.34Z"/></g><g class="cls-6"><path class="cls-2" d="M1140.62,2884.85c.27,1.16.54,2.31.82,3.47C1141.16,2887.16,1140.89,2886,1140.62,2884.85Z"/></g><g class="cls-6"><path class="cls-2" d="M1137,2869.75v0Z"/></g><g class="cls-6"><path class="cls-2" d="M1132.73,2851.39l.75,3.17Z"/></g><g class="cls-6"><path class="cls-2" d="M1148.49,2917.79c.24,1,.48,2,.73,3C1149,2919.8,1148.73,2918.8,1148.49,2917.79Z"/></g><g class="cls-6"><path class="cls-2" d="M1424.93,3051.69c-6.07-24.84-12.52-51.57-19-79h0C1412.41,3000.12,1418.86,3026.85,1424.93,3051.69Z"/></g><g class="cls-6"><path class="cls-2" d="M1201.46,3150c-.36-1.44-.73-2.94-1.1-4.41.37,1.46.74,3,1.1,4.41a86.61,86.61,0,0,0,24.65,41.82A86.61,86.61,0,0,1,1201.46,3150Z"/></g><g class="cls-6"><path class="cls-2" d="M1156.3,2950c.12.46.23.92.34,1.39C1156.53,2950.94,1156.42,2950.48,1156.3,2950Z"/></g><g class="cls-6"><path class="cls-2" d="M1191.93,3111.51c13.83,51.6,74.56,81.71,137.73,67.94,66-14.39,109.27-71,95.73-125.34-6-24.1-12.67-51.31-19.58-80.06,0-.11,0-.23,0-.34-2.85,45.51-42.33,87.75-98,99.88-63.79,13.91-125.16-16.89-138.2-69.43-3-12-6.2-24.93-9.51-38.42-.15-.54-.36-1-.49-1.58-7.75-31-16.71-67.6-25.92-106.17q-2.29-11-4.58-22h0c5.11,24.58,10.27,49.2,15.46,73,14.87,68.18,32.51,142.25,47.53,203.39Z"/></g><g class="cls-6"><path class="cls-2" d="M1285.5,3220.65a140.32,140.32,0,0,0,54.16-1.2,142.66,142.66,0,0,0,39.69-15,142.66,142.66,0,0,1-39.69,15A140.32,140.32,0,0,1,1285.5,3220.65Z"/></g><g class="cls-6"><path class="cls-2" d="M1264.36,3215.05a120.82,120.82,0,0,1-12.83-5.4A120.82,120.82,0,0,0,1264.36,3215.05Z"/></g><g class="cls-6"><path class="cls-2" d="M1389.19,3198.28q-4.74,3.24-9.84,6.13Q1384.45,3201.53,1389.19,3198.28Z"/></g><g class="cls-6"><path class="cls-2" d="M1195.89,3127.58c-.44-1.78-.88-3.55-1.32-5.35C1195,3124,1195.45,3125.8,1195.89,3127.58Z"/></g><g class="cls-6"><path class="cls-2" d="M1398.27,3191.45c-2.89,2.39-5.93,4.67-9.08,6.83C1392.34,3196.12,1395.38,3193.84,1398.27,3191.45Z"/></g><g class="cls-6"><path class="cls-2" d="M1198.82,3139.42c-.42-1.7-.84-3.42-1.27-5.14C1198,3136,1198.4,3137.72,1198.82,3139.42Z"/></g><g class="cls-6"><path class="cls-2" d="M1226.45,3192.2a100.71,100.71,0,0,0,11.33,9.1A100.71,100.71,0,0,1,1226.45,3192.2Z"/></g><g class="cls-3"><path class="cls-2" d="M1331.45,2617.22c.18.83.3,1.62.48,2.45,8.88,47.26,20.22,106,32.36,165-5.69-24.46-11.2-49-16.39-72.8-8.2-37.6-16.36-77.14-24-115.43A81.85,81.85,0,0,1,1331.45,2617.22Z"/></g><g class="cls-3"><path class="cls-2" d="M1403.57,2948.2a83.11,83.11,0,0,1,2.38,24.46c-9-38-18-77.34-26.24-114.93-5.2-23.85-10.42-48.46-15.42-73.06C1377.8,2843.38,1392,2901.59,1403.57,2948.2Z"/></g><path class="cls-2" d="M1308.49,3237.85c-58.58,0-108.88-33.1-121.6-84.19-15.83-63.6-38.56-157.1-57-241.44s-36.67-178.88-48.73-243.24c-11.57-61.65,36-122.3,108.3-138.07,39.69-8.66,80.14-1.91,111,18.53,24.68,16.35,41.08,40.31,46.18,67.47,11.81,62.84,29.67,155.08,47.68,237.64s40.16,173.84,55.59,235.92c6.66,26.82,1.73,55.43-13.9,80.58-19.54,31.41-53.51,54.4-93.2,63h0A160.83,160.83,0,0,1,1308.49,3237.85Zm31.16-18.4h0Zm-116.13-662.24a129.54,129.54,0,0,0-27.62,3c-55.4,12.08-93.62,58.39-85.21,103.23,12,64.16,30.22,158.29,48.56,242.37s41,177.19,56.75,240.59c11,44.27,65,70.46,120.46,58.39h0c31.82-7,58.83-25,74.11-49.6,11.48-18.45,15-38.33,10.27-57.49-15.48-62.27-37.72-153.91-55.79-236.77s-36-175.45-47.85-238.49c-3.65-19.4-15.15-36-33.27-48C1266.82,2563.12,1245.7,2557.21,1223.52,2557.21Z"/><path class="cls-1" d="M2694.48,1635.7c79.68,59.73,152.7,344.09,134.24,513.6S2510.63,2331.51,2339.27,2326s-170.76-393-168.52-496.74C2174.26,1667.2,2576.4,1547.21,2694.48,1635.7Z"/><g class="cls-3"><path class="cls-2" d="M2339.27,2326c171.36,5.5,471-7.21,489.47-176.72a559.74,559.74,0,0,0,2.71-71.72c-47.32,37.2-113.26,4.09-121.21-41.4-49.09-280.83-153.67-388.6-204.26-425.49-154.16,21.61-332.91,110.77-335.21,218.6C2168.49,1933.06,2167.91,2320.51,2339.27,2326Z"/></g><path class="cls-2" d="M2399.06,2344.32c-20.35,0-40.52-.36-60.34-1-170.78-5.48-189.39-324.66-185.29-514.44,1.41-65.3,57.48-128.17,157.87-177,126.42-61.55,312.83-90.52,393.57-30h0c91.13,68.3,158.91,365.55,141.08,529.34C2828.93,2307.45,2605.73,2344.32,2399.06,2344.32Zm173.82-721.49c-73.73,0-165.92,21-246.41,60.18-86.86,42.27-137.3,95.72-138.4,146.63-2.41,111.17,1.43,474.23,151.76,479.06,169,5.42,455-8.32,471.67-161.27,17.79-163.42-53.66-442.59-127.41-497.86h0C2660,1631.5,2620.23,1622.83,2572.88,1622.83Z"/><path class="cls-1" d="M2677.65,1920.12l76-30.32a30.76,30.76,0,0,1,41.18,20.79c16,61.63,40.58,189.37-21.43,215.52-75.16,31.69-101.8-55-115-174.12A30.73,30.73,0,0,1,2677.65,1920.12Z"/><g class="cls-3"><path class="cls-2" d="M2658.6,1951.8c12.92,119.14,39.37,205.92,114.59,174.38,30.9-12.91,40.39-51.11,40.15-93.77-6.27,12.21-15.26,21.67-27.83,26.92-67.35,28.2-95.64-38.4-110-138.22A30.42,30.42,0,0,0,2658.6,1951.8Z"/></g><path class="cls-2" d="M2744.2,2150.05a64.82,64.82,0,0,1-33.54-9.1c-36.67-21.63-57.4-77.64-69.31-187.27a48.17,48.17,0,0,1,30.14-49.81l76.11-30.14a48.08,48.08,0,0,1,64.29,32.68c23.52,91.58,37.06,206.82-32,235.75C2767.32,2147.43,2755.4,2150.05,2744.2,2150.05ZM2765.32,1905a13.41,13.41,0,0,0-5,1l-76.12,30.15a13.4,13.4,0,0,0-8.44,13.85c3.73,34.41,15.11,139.13,52.46,161.16,10.09,6,22.6,5.66,38.23-.89,41.25-17.28,33.16-112.16,11.84-195.18a13.25,13.25,0,0,0-6.87-8.57A13.69,13.69,0,0,0,2765.32,1905Zm-87.46,15h0Z"/><path class="cls-2" d="M2718.58,1669.17c-18.57,5.59-37.28,11.5-55.82,17.57s-37,12.4-55.27,19.18h0a8.68,8.68,0,0,1-7.21-15.75c17.38-9.55,34.95-18.61,52.61-27.46s35.37-17.46,53.37-25.92a17.37,17.37,0,1,1,14.79,31.43,16.92,16.92,0,0,1-2.29.89Z"/><path class="cls-1" d="M1803.76,1794.83l-24-136.87A989.76,989.76,0,0,1,1803.76,1794.83Z"/><path class="cls-1" d="M1955.68,2026.91c-77.08-23.42,188.46,244.15,115.35,277.58-25.32,11.58-49.8,26.83-70,46.9-74,73.37-76.06,220.69-25.82,280.41,19.8,23.54,41.1,49.68,41.1,49.68-14.07,20.17-111,183.75-33,248.78,68.31,56.94,194.39,47.6,260.82-42,43.9-59.2,52.81-127.49,50.32-179.69-2.92-61-13.84-119.22,16.57-164.9,34.65-52,169.74-71.48,237-148.51,102.78-117.77,81.79-485.53-176.44-777.53"/><path class="cls-1" d="M2304.91,2290.58c-77.08-23.42-160.77-19.52-233.88,13.91-25.32,11.58-49.8,26.83-70,46.9-74,73.37-76.06,220.69-25.82,280.41,19.8,23.54,41.1,49.68,41.1,49.68-14.07,20.17-111,183.75-33,248.78,68.31,56.94,194.39,47.6,260.82-42,43.9-59.2,52.81-127.49,50.32-179.69-2.92-61-13.84-119.22,16.57-164.9,34.65-52,169.74-71.48,237-148.51,102.78-117.77,81.79-485.53-176.44-777.53Z"/><g class="cls-3"><path class="cls-2" d="M2548,2395.2c-67.23,77-202.34,96.48-237,148.53-30.39,45.67-19.51,103.87-16.57,164.86,2.5,52.21-6.44,120.53-50.31,179.73-66.43,89.54-192.51,98.87-260.83,41.92a78.69,78.69,0,0,1-24.91-37.28c76.36,40.93,201.89,47.91,259.89-30.35,43.87-59.19,23.66-135.8,21.16-188-3-61-25.2-148.52,17.39-198.21,68.16-79.52,168.93-38.17,236.16-115.23,95.38-109.25,84.2-433.92-124.38-713.47l2.94-30C2629.72,1909.67,2650.73,2277.41,2548,2395.2Z"/></g><path class="cls-2" d="M2303.23,2296.1c-14.3-1.63-28.29-3.33-42.27-4.26-14-.71-27.85-1.39-41.66-.92s-27.51,1.24-41.07,3a322,322,0,0,0-40.23,7.19c-6.65,1.48-13.12,3.56-19.67,5.32-6.42,2.21-12.93,4.11-19.2,6.7a299.28,299.28,0,0,0-37,16.64,234.75,234.75,0,0,0-33.53,21.58,184.76,184.76,0,0,0-14.85,12.86c-2.21,2.32-4.49,4.55-6.65,6.92s-4.28,4.8-6.24,7.38c-16.05,20.33-27.26,45-34.28,70.94a256.49,256.49,0,0,0-7.92,80.21c1.57,26.76,7.44,53.58,19.39,75.69a102.23,102.23,0,0,0,10.16,15.11l13.78,16.68,27.66,33.43,8.23,9.95-7.45,10.91c-2.46,3.6-5.24,8.14-7.81,12.48s-5.14,8.9-7.59,13.44c-4.93,9.08-9.59,18.34-13.94,27.7a396.77,396.77,0,0,0-21.81,57.4c-5.48,19.42-9.16,39.24-8.67,58.08.28,18.87,5.36,36.25,16.16,48.8l2,2.39c.7.77,1.53,1.43,2.28,2.16,1.63,1.4,2.8,2.93,4.88,4.27,3.84,2.68,7.44,5.68,11.42,8.19,4.14,2.27,8.17,4.73,12.35,6.94l13.13,5.64a163.17,163.17,0,0,0,56.88,9.5,182.79,182.79,0,0,0,57.39-9.75c18.56-6.11,35.67-16,51-27.94,30.76-23.59,52.34-59.1,65.34-96.71a270.77,270.77,0,0,0,12.47-58.86,291.89,291.89,0,0,0,1.53-30.32c.05-5.07-.15-10.14-.32-15.21l-.91-15.73c-1.33-21.08-3.32-42.69-3.39-65.19a245.87,245.87,0,0,1,2.11-34.39,149.11,149.11,0,0,1,8.74-34.91,73.23,73.23,0,0,1,3.6-8.49c1.4-2.76,2.56-5.63,4.19-8.27l4.79-8a92.29,92.29,0,0,1,6.09-8.08c8.71-10.08,18.52-17.51,28.31-23.89,19.68-12.55,39.68-21.56,59.3-30.54,39.17-17.68,77.78-34.33,110.6-57.76,16.22-11.67,31.09-25.08,42.09-40.39,11.24-15.52,19.72-33.71,26.19-52.73A361.64,361.64,0,0,0,2583,2262a530.2,530.2,0,0,0,5.06-61.72c.76-41.51-3-83.27-9.86-124.52-14.34-82.49-41.7-162.84-79.09-238-18.67-37.7-41.63-73-64.31-108.26-22.83-35.31-46.65-69.74-67.61-107.93l0,0a5.91,5.91,0,0,1,8.67-7.61c35.59,26.07,64.3,59.43,89.37,95,25.23,35.63,45.54,74.41,65,113.36,38.7,78,67.2,161.39,82.17,247.63,7.21,43.15,11.16,87,10.34,131.09a564.47,564.47,0,0,1-5.43,66.15,395.88,395.88,0,0,1-15.68,65.39c-7.31,21.42-17,42.54-30.86,61.76-14.08,19.5-31.56,35-50,48.28-37.1,26.38-77.83,43.61-116.48,61.14-19.28,8.78-38.38,17.57-54.8,28.09-8.13,5.25-15.42,11.06-20.7,17.21a56.14,56.14,0,0,0-3.58,4.71l-3.47,5.79c-1.21,1.9-2,4.05-3,6.05a47,47,0,0,0-2.66,6.27c-6.71,17-8.52,36.6-8.55,56.84s1.94,41.38,3.32,63l.95,16.31c.19,5.62.41,11.25.36,16.88a323.14,323.14,0,0,1-1.71,33.76,305.19,305.19,0,0,1-14.12,66.46,276,276,0,0,1-29.89,61.59c-3.35,4.67-6.37,9.49-10,14l-11.15,13.47c-3.82,4.4-8.24,8.27-12.35,12.4s-8.7,7.77-13.29,11.38c-18.35,14.36-38.92,26.13-61.06,33.47a217.76,217.76,0,0,1-68.55,11.66,197.6,197.6,0,0,1-69.05-11.65l-16.37-7c-5.28-2.75-10.43-5.82-15.62-8.76-5.06-3.2-9.78-7-14.65-10.51-2.42-1.6-4.81-4.16-7.18-6.29-1.17-1.13-2.4-2.2-3.5-3.4l-3.19-3.74a98.83,98.83,0,0,1-18.59-33.87c-4-12.12-5.42-24.45-5.74-36.42-.56-24,3.89-46.75,10-68.45a432.39,432.39,0,0,1,23.71-62.51q7-15,14.92-29.63c2.62-4.87,5.37-9.69,8.19-14.5s5.67-9.47,9.24-14.71l.77,20.86-27.43-33.16-13.74-16.62a138.84,138.84,0,0,1-14-20.67c-15.43-28.79-21.68-59.74-23.6-90.3a292.87,292.87,0,0,1,9-91.08c7.67-29.71,20.36-58.69,39.58-84,19.5-25.73,44.84-44.87,71.74-59.67a304.62,304.62,0,0,1,41.83-18.7,294.35,294.35,0,0,1,44-12.3c59.46-12.34,122.8-6.54,176.37,19.15a5.84,5.84,0,0,1-3.17,11.07Z"/><path class="cls-2" d="M2292.81,2604.52a13,13,0,0,1-12.89-14.73c18.7-138.33-62.23-203.13-97.9-224.57-56.87-34.2-126.7-38.5-166-10.26a13,13,0,0,1-15.15-21.11C2049,2299.29,2129,2303,2195.41,2343c40.07,24.08,131,96.69,110.26,250.31A13,13,0,0,1,2292.81,2604.52Z"/><path class="cls-2" d="M2014.74,2652.68l7.25,4.91,7.89,5.08c5.37,3.24,10.74,6.53,16.31,9.37a174,174,0,0,0,34.33,14.28,121.14,121.14,0,0,0,18,3.93,132.06,132.06,0,0,0,18.66,1.54c12.8.55,25.86-1.5,40.4-4.17-9.23,11.44-22.31,20-36.94,24.85s-30.62,5.71-45.94,3.94a150.08,150.08,0,0,1-44.11-12.47,163.08,163.08,0,0,1-20-10.84c-3.18-2.06-6.34-4.15-9.36-6.49a104.78,104.78,0,0,1-9.24-7.74,17.31,17.31,0,0,1,21.54-27Z"/><path class="cls-1" d="M2351.76,1675.51c360.65-153.07,400.73-310,510.38-312.37s161.5,101.43,97.38,242.56c-105.49,232.16-504.93,257.41-504.93,257.41"/><g class="cls-3"><path class="cls-2" d="M2959.53,1605.71c-105.51,232.14-505,257.39-505,257.39h0a29.69,29.69,0,0,1,20-43.37c119.5-24.7,330.46-88.86,418.51-243.42,36-63.23,49.86-133.56,45-192.65C2991.48,1420.39,3006.05,1503.19,2959.53,1605.71Z"/></g><path class="cls-2" d="M2349.51,1670.2c25.39-20.74,52.93-35.51,80.44-50.36,27.39-15,55.25-29,82.49-44.16A926.71,926.71,0,0,0,2591.5,1526q38.34-26.67,74.49-56.4c24.19-19.76,47.56-40.55,71.85-61.37,12.17-10.37,24.69-20.74,38.35-30.43s28.76-18.64,45.89-24.62a128.26,128.26,0,0,1,26.57-6.31c4.53-.55,9.13-.74,13.63-1,4.37.09,8.72-.07,13.11.26,17.49,1.06,35.36,4.46,52,12a123.66,123.66,0,0,1,44,32.49,134.56,134.56,0,0,1,25.75,47.52,172.8,172.8,0,0,1,7.62,51.79,244.31,244.31,0,0,1-5.35,50.67,326.41,326.41,0,0,1-14.07,48l-4.54,11.56-4.91,11.37c-3.6,7.52-7.52,15-11.29,22.47-16.26,29.38-37.43,55.72-61.39,78.56s-50.7,42.35-78.69,59.17c-56.12,33.58-117,56.86-178.92,74.24-15.5,4.32-31.08,8.33-46.75,11.88s-31.24,7.55-47,10.86a308.55,308.55,0,0,1-47.86,6c-16.16.46-32.44-.51-49-5.78a6.19,6.19,0,0,1-1-11.41l.23-.11c14.94-7.62,30.06-12.26,45.22-16q22.78-5.34,45.77-9c15.32-2.49,30.74-4.74,45.87-8.28,15.18-3.37,30.21-7.3,45.16-11.44,59.68-16.74,117.92-39.15,170.41-70.58,26.18-15.73,50.82-33.78,72.62-54.55s40.63-44.31,55-70.28c3.31-6.65,6.76-13.17,10-19.89l4.5-10.39,4.12-10.5a294.57,294.57,0,0,0,12.58-42.87,210.22,210.22,0,0,0,4.63-43.44,138.32,138.32,0,0,0-6-41.66,99.89,99.89,0,0,0-19-35.32,88.92,88.92,0,0,0-31.67-23.34c-12.17-5.58-25.89-8.23-39.87-9.09-3.49-.29-7.06-.12-10.58-.22-3.37.23-6.7.33-10,.73a93.25,93.25,0,0,0-19.44,4.65c-25.58,8.88-49.47,28.69-73.18,48.71-23.71,20.32-47.58,41.56-72.35,61.79s-50.34,39.72-76.67,58-53.5,35.39-80.79,52.21-55.39,32.35-84.58,45.49c-7.34,3.2-14.6,6.55-22,9.58s-15,5.66-22.61,8.16a227.15,227.15,0,0,1-23.25,6.55,204.08,204.08,0,0,1-24,4.45,6,6,0,0,1-6.68-5.26A6.11,6.11,0,0,1,2349.51,1670.2Z"/><path class="cls-1" d="M1532.22,1590c403.25,597.54,1252.88,67.26,928.71-546.65C2062.66,421.92,1184.94,970.87,1532.22,1590Z"/><path class="cls-1" d="M1532.22,1590c403.25,597.54,1252.88,67.26,928.71-546.65C2062.66,421.92,1184.94,970.87,1532.22,1590Z"/><g class="cls-3"><path class="cls-2" d="M2475,1616.39a531.12,531.12,0,0,1-47.07,71.22,537.74,537.74,0,0,1-42.82,48.77c-131.32,132.81-328.36,199.74-516.13,152.42a495.75,495.75,0,0,1-61.94-20c-98.57-39-192.15-112.1-269.37-226.49-39-69.63-62.58-138.31-73.07-204.59,68.58,48.91,154.08,146.19,319.38,241.87-1.4-7.19-2.79-14.38-4.24-21.61l591.79-40.28q15.64,17.67,30,35.64C2427.58,1641.15,2452,1628.82,2475,1616.39Z"/></g><path class="cls-1" d="M1532.22,1590c403.25,597.54,1252.88,67.26,928.71-546.65C2062.66,421.92,1184.94,970.87,1532.22,1590Z"/><path class="cls-2" d="M1986.57,1864.06a517.13,517.13,0,0,1-97.23-9.17c-145.17-27.76-272.2-117-367.36-258l-.53-.87c-82.67-147.37-102.73-301.25-58-445,39.89-128.27,128.5-238.91,249.51-311.54,120.77-72.48,259.22-98,389.81-71.8,147.27,29.53,274.73,122.55,368.59,269l.52.9c77.28,146.33,94.14,298.25,48.77,439.31C2480,1603.08,2392.23,1711.78,2273.36,1783,2184.26,1836.37,2085.11,1864.06,1986.57,1864.06Zm-443.83-280.53c202.16,299.13,506.21,305.11,717.93,178.27,206.86-123.93,354.36-399.62,189.58-712.2-198.58-309.4-514.78-314.86-724.61-188.93C1513.74,987.85,1366.21,1268.28,1542.74,1583.53Z"/><g class="cls-3"><path class="cls-2" d="M1532.22,1590c339.31,522.17,1104.7,191.33,987.11-395.53-24.77,193.61-90.54,205-186.06,308.32-292,337.71-792.08,130-875.55-253.67A539,539,0,0,0,1532.22,1590Z"/></g><path class="cls-12" d="M1986.57,1869a523,523,0,0,1-98.17-9.25c-146.5-28-274.63-118-370.54-260.07l-.75-1.21c-83.34-148.6-103.55-303.84-58.43-448.94,40.24-129.44,129.63-241.07,251.69-314.33,121.83-73.12,261.52-98.83,393.35-72.4,148.62,29.79,277.19,123.57,371.8,271.19l.73,1.26c77.91,147.55,94.89,300.8,49.1,443.16-40.95,127.31-129.53,237-249.43,308.82C2186.05,1841.1,2086,1869,1986.57,1869ZM1547,1580.92c200.34,296.27,501.46,302.23,711.13,176.62,204.88-122.74,351-395.78,187.84-705.43C2249.16,745.67,1936,740.22,1728.2,864.94,1518.34,990.9,1372.22,1268.63,1547,1580.92Z"/><path class="cls-2" d="M1986.57,1869a523,523,0,0,1-98.17-9.25c-146.5-28-274.63-118-370.54-260.07l-.75-1.21c-83.34-148.6-103.55-303.84-58.43-448.94,40.24-129.44,129.63-241.07,251.69-314.33,121.83-73.12,261.52-98.83,393.35-72.4,148.62,29.79,277.19,123.57,371.8,271.19l.73,1.26c77.91,147.55,94.89,300.8,49.1,443.16-40.95,127.31-129.53,237-249.43,308.82C2186.05,1841.1,2086,1869,1986.57,1869ZM1547,1580.92c200.34,296.27,501.46,302.23,711.13,176.62,204.88-122.74,351-395.78,187.84-705.43C2249.16,745.67,1936,740.22,1728.2,864.94,1518.34,990.9,1372.22,1268.63,1547,1580.92Z"/><path class="cls-2" d="M1618.22,1698.05c545.09,321.63,1007.84-314.44,594.39-683.39C1724.39,629.55,1176.36,1229.78,1618.22,1698.05Z"/><path class="cls-13" d="M1472.51,1323.23c-2.39,572,815.7,619.69,903.71,97.06C2114.11,1728.2,1625.83,1600,1472.51,1323.23Z"/><path class="cls-2" d="M1941.33,1852.76a448,448,0,0,1-113.67-14.52c-121.62-31.87-228.15-114.91-308.09-240.15l-.06-.1c-130.73-208.31-108.21-547.89,133.67-721.39l2.19-1.3c131.2-63.75,290.28-68.08,436.46-11.86,145.68,56,260.32,165.08,314.55,299.21,49.17,131.23,47.16,264.09-5.68,384.6-47.89,109.23-134,199.23-242.52,253.43C2089.14,1835.17,2014.81,1852.76,1941.33,1852.76ZM1544.9,1582c175.59,275.07,432.88,275.25,599.88,191.83,191.95-95.88,333.85-332.87,233.65-600.3-51-126.1-159.42-229-297.37-282.1s-287.9-49.31-411.43,10.28C1442.45,1065.61,1421.62,1385.53,1544.9,1582Z"/><path class="cls-2" d="M1916.62,1803.39c-101.21,0-205.77-30.57-307.21-90.42l-2.11-1.25-1.68-1.78c-106.67-113-164.42-242.15-167-373.33a453.62,453.62,0,0,1,119.31-316.49c77.45-84.62,182.42-136,295.6-144.53,125.79-9.51,253.65,33.85,369.8,125.47l.8.68c97.07,86.62,153.5,193.44,163.21,308.91,8.79,104.57-21.82,210.68-86.19,298.81a471.14,471.14,0,0,1-287.69,184.31A487.77,487.77,0,0,1,1916.62,1803.39Zm-287.48-119c277.89,162.78,523.58,69.6,644-95.35,109.34-149.7,129.51-381.2-71.71-561.09-242.34-190.9-485-129.76-618,15.57C1446.82,1192.84,1408.15,1448.7,1629.14,1684.38Z"/><path class="cls-1" d="M2604.1,1421.52c-34.43,251.84-289.73,238.53-281.1-5.21C2349.4,1151,2622.31,1165.23,2604.1,1421.52Z"/><g class="cls-14"><path class="cls-2" d="M2444.69,1605.48c-76.55-3.43-133.1-96.26-120.56-201.93,49.18,110.12,163.64-73.52,171.29-125.9C2692.4,1325.3,2585.17,1614.79,2444.69,1605.48Z"/></g><path class="cls-2" d="M2451,1622.13q-5.32,0-10.56-.44c-70.46-6-139.44-72.09-134.7-206l.08-1.09c14.49-145.62,102.29-215,181.47-208.2,71.58,6.1,144.08,76.41,134.14,216.35l-.11,1.12C2602.4,1561.84,2521.83,1622.13,2451,1622.13ZM2340.3,1417.48c-3.75,110.78,49,165,103.06,169.68,57.29,5,126.63-45.38,143.5-167.43,8.07-116.16-47.46-174.11-102.56-178.81C2422.16,1235.55,2352.72,1294.55,2340.3,1417.48Zm263.8,4h0Z"/><path class="cls-1" d="M2614.13,1435.44c-28.12,204-219.55,197.31-212.6.17C2422.16,1218.13,2630.18,1225.69,2614.13,1435.44Z"/><path class="cls-2" d="M2495.75,1601c-2.57,0-5.11-.11-7.64-.33-53.3-4.6-105.37-57.58-101.57-165.57l.06-.88c11.47-120.93,79.79-178.86,141.5-173.56,54.77,4.69,109.73,61.75,101,175.94l-.09.9C2613.32,1551.19,2550.47,1601,2495.75,1601Zm-79.24-164.4c-3,88,35.08,130.8,74.17,134.18,42.6,3.75,94.7-37.61,108.52-136.92,7-93.53-33.23-139.85-73.66-143.31C2478.92,1286.45,2426.25,1335.39,2416.51,1436.58Zm197.62-1.14h0Z"/><g class="cls-10"><path class="cls-1" d="M2272.78,1307.24c-27.87,103.32-145.79,73.46-136.75-19.91C2154.09,1170.21,2293.63,1203.16,2272.78,1307.24Z"/></g><g class="cls-10"><path class="cls-1" d="M2212.12,1469.65c-12.94,38.9-64.76,26.84-54.61-16.73C2170.45,1414,2222.27,1426.09,2212.12,1469.65Z"/></g><g class="cls-10"><path class="cls-1" d="M1529.05,1363.17c-75.89-401.77,341-462.11,469.28-379C1730.85,1007.72,1615.44,1175.36,1529.05,1363.17Z"/></g><g class="cls-3"><path class="cls-2" d="M2392.13,1481.94c-4.21-28.67-.57-58.59,9-86.07,38.87,137,176.22,73.66,206.49-25.69C2642,1573.2,2436.83,1672.18,2392.13,1481.94Z"/></g><path class="cls-2" d="M2334.17,1267.18a30.3,30.3,0,0,1-12.93-2.87c-22.88-10.72-25.36-46.07-25.57-56.65a17.32,17.32,0,0,1,17-17.67h.35a17.33,17.33,0,0,1,17.32,16.93c.23,9.37,2.67,20.63,5.24,25a29.05,29.05,0,0,0,5.39-3.57,17.32,17.32,0,1,1,21.64,27.06C2351.5,1264.3,2341.93,1267.18,2334.17,1267.18Zm-.18-34.64Z"/><circle class="cls-1" cx="1821.33" cy="2084.06" r="58.66" transform="translate(-940.2 1898.28) rotate(-45)"/><g class="cls-14"><path class="cls-2" d="M1762.84,2088.45a58.67,58.67,0,1,0,117-8.81,58,58,0,0,0-7.51-24.59,58.66,58.66,0,0,1-105.75,8A58,58,0,0,0,1762.84,2088.45Z"/></g><path class="cls-2" d="M1821.28,2157.72a73.69,73.69,0,1,1,5.58-.21Q1824.06,2157.72,1821.28,2157.72Zm.07-117.33q-1.63,0-3.3.12a43.69,43.69,0,0,0-40.27,46.82h0a43.67,43.67,0,1,0,43.57-46.94Z"/><path class="cls-1" d="M1893.24,2224.58l310.09-4.89a67,67,0,0,0,65.72-67.82l-2.61-165a67,67,0,0,0-54.47-64.57,64.75,64.75,0,0,0-13.36-1.15L1888.56,1926a66.92,66.92,0,0,0-65.72,67.83l2,130.7.53,34.32A67,67,0,0,0,1893.24,2224.58Z"/><g class="cls-3"><path class="cls-2" d="M1893.24,2224.58l310.09-4.89a67,67,0,0,0,65.72-67.82l-2.61-165a67,67,0,0,0-54.47-64.57c-17.42,12-28.49,19.63-28.49,19.63-13,132.69-5.64,230.8-211.37,220.41-70.93-3.58-118.72-23.65-147.23-37.77l.53,34.32A67,67,0,0,0,1893.24,2224.58Z"/></g><path class="cls-2" d="M1892.18,2239.6a81.87,81.87,0,0,1-81.76-80.49l-2.6-165.05a81.87,81.87,0,0,1,80.48-83l310.08-4.89a82.05,82.05,0,0,1,83.06,80.49l2.59,165a82,82,0,0,1-80.48,83.06l-310.07,4.88Zm307.49-303.49h-.82L1888.78,1941a52,52,0,0,0-51,52.58l2.6,165a52,52,0,0,0,52.59,51l310.07-4.88a52,52,0,0,0,51-52.59l-2.59-165A51.85,51.85,0,0,0,2199.67,1936.11Z"/><path class="cls-1" d="M1880.77,2223.56a59.51,59.51,0,0,0,12.47,1l310.09-4.89a66.91,66.91,0,0,0,60.13-40.2,65.62,65.62,0,0,0,5.54-27.62l-1.13-73.31-.37-24.19-1.06-67.52a67,67,0,0,0-67.83-65.72l-67,1.08a67,67,0,0,1,55.46,64.68l1.43,89.14,1.18,75.92a67,67,0,0,1-65.71,67.83Z"/><g class="cls-3"><path class="cls-2" d="M1880.77,2223.56a59.51,59.51,0,0,0,12.47,1l310.09-4.89a66.9,66.9,0,0,0,65.67-67.82l-1.5-97.5c-7.53,17.35-21.21,38.72-43.59,41.29-12.28,1.44-24.53-7.22-35.42-19.63l1.18,75.92a67,67,0,0,1-65.71,67.83Z"/></g><path class="cls-2" d="M1891.88,2239.6a77,77,0,0,1-13.84-1.27l2.48-29.75,243.21-3.81a51.92,51.92,0,0,0,50.92-52.58l-2.59-165a51.85,51.85,0,0,0-43-50.18l2.32-29.78,67-1.07a82,82,0,0,1,83.06,80.51l2.6,165a82,82,0,0,1-80.46,83.07l-310.09,4.88Zm291.79-303.25a81.59,81.59,0,0,1,18.39,50.33l2.59,165a81,81,0,0,1-18.71,53.27l17.16-.28a51.92,51.92,0,0,0,50.92-52.57h0l-2.6-165a52,52,0,0,0-51.8-51h-.79Z"/><path class="cls-15" d="M2066.12,2072.69c.13,6.1,9.77,55.17,9.77,55.17l34.76-.74c23.94-.52,42.81-25.72,42.15-56.29s-20.59-54.94-44.53-54.43l-34.76.75S2065.9,2062.75,2066.12,2072.69Z"/><g class="cls-14"><path class="cls-2" d="M2066.12,2072.69c.13,6.1,9.77,55.17,9.77,55.17l34.76-.74c23.94-.52,42.81-25.72,42.15-56.29s-20.59-54.94-44.53-54.43l-34.76.75S2065.9,2062.75,2066.12,2072.69Z"/></g><path class="cls-2" d="M2067.69,2138l-1.62-8.25c-2.3-11.71-9.81-50.43-10-56.89-.22-10.36,6.23-49.63,7.52-57.4l1.37-8.17,43-.93h.94c29,0,53,28.57,53.81,64.22.77,36-22.53,65.88-51.94,66.51Zm8.42-65.59c.17,3.46,4,24.4,8,45.23l26.35-.56c18.38-.4,32.9-21.06,32.36-46.08s-15.91-45.07-34.32-44.64L2082,2027C2079.29,2044.19,2076,2066.8,2076.11,2072.45Z"/><ellipse class="cls-15" cx="2074.7" cy="2072.51" rx="43.35" ry="55.37" transform="translate(-44.06 45.06) rotate(-1.23)"/><g class="cls-14"><path class="cls-2" d="M2118,2071.58c.66,30.56-18.21,55.78-42.14,56.3s-43.9-23.86-44.54-54.46a67.77,67.77,0,0,1,.79-12.08c6.61,20.87,22.79,35.49,41.38,35.07,20.67-.45,37.59-19.3,41.35-44.18A69.54,69.54,0,0,1,2118,2071.58Z"/></g><path class="cls-1" d="M2118,2071.58c.05,2.08,0,4.14-.16,6.17-5.28-23.86-22.67-41.2-42.89-40.76-22.3.5-40.24,22.42-42,50.17a70,70,0,0,1-1.66-13.74c-.67-30.55,18.21-55.77,42.14-56.29S2117.36,2041,2118,2071.58Z"/><path class="cls-2" d="M2075.11,2137.87c-14.34,0-27.79-6.8-38-19.23-9.82-12-15.43-28-15.8-45-.77-36,22.53-65.87,51.94-66.51,14.7-.27,28.55,6.52,38.95,19.23,9.82,12,15.43,28,15.8,45s-4.55,33.22-13.85,45.62c-9.84,13.15-23.37,20.57-38.09,20.88Zm-.87-110.74h-.52c-18.39.4-32.91,21.07-32.37,46.08h0c.27,12.57,4.28,24.2,11.28,32.76,6.42,7.84,14.55,12.17,23,11.88s16.44-4.74,22.51-12.86c6.63-8.85,10.13-20.65,9.86-33.21s-4.27-24.2-11.28-32.76C2090.47,2031.35,2082.49,2027.13,2074.24,2027.13Z"/><path class="cls-2" d="M1989.61,2231.87a10,10,0,0,1-10-9.6l-4.29-109.05-49-29.76a10,10,0,0,1-4.8-8.36l-2.88-149.43a10,10,0,0,1,9.81-10.19h.2a10,10,0,0,1,10,9.81l2.77,143.93,48.93,29.69a10,10,0,0,1,4.8,8.16l4.51,114.41a10,10,0,0,1-9.6,10.38Z"/><path class="cls-1" d="M2581.55,1946.57s32.77,20,33.44,56.77c.78,42.47-29.16,63.23-29.16,63.23s-101.62,73.95-337.34,59.45c0,0-59.59-62.59,9.3-109.9C2257.79,2016.12,2473.21,2051.45,2581.55,1946.57Z"/><g class="cls-3"><path class="cls-2" d="M2615,2002.51h0c1.17,43-29.16,64.07-29.16,64.07s-101.61,73.93-337.33,59.45c0,0-45.54-47.85-11-91.48l.12.78c4.45,26.5,27.53,46,54.39,46.82,213.45,6.48,306.06-60.89,306.06-60.89S2607,2015.06,2615,2002.51Z"/></g><path class="cls-2" d="M2308.82,2142.92c-19.35,0-39.75-.6-61.26-1.93l-5.87-.36-4.07-4.27c-1.3-1.36-31.8-33.91-27.67-73.37,2.4-23,15.65-42.95,39.35-59.23l5-3.41,5.95,1c2.07.34,209.32,32.81,310.89-65.53l8.35-8.08,9.91,6.06c1.63,1,39.81,24.83,40.62,69.29.91,49.93-34.12,74.8-35.61,75.84C2590.69,2081.58,2504,2142.92,2308.82,2142.92Zm-53-31.5c221.83,12.21,320.24-56.32,321.22-57s23.56-17.35,22.95-50.8c-.32-17.22-10.27-30-17.83-37.34-104.93,89.72-284,70.6-320.51,65.59-13.17,10.21-20.52,21.67-21.86,34.11C2237.73,2085.16,2249.63,2103.39,2255.83,2111.42Z"/><path class="cls-2" d="M2817.24,1768.88c-.49,0-1,0-1.48-.08-85.12-9.68-151.94-93.22-193.21-241.59-.74-2.68-1.27-4.65-1.63-5.78a13,13,0,0,1,20.14-15.43c3.35,2.81,4,5,6.53,14.25,37.65,135.36,98.42,214.46,171.11,222.73a13,13,0,0,1-1.46,25.9Zm-192.9-243h0Zm0,0h0Z"/><path class="cls-2" d="M1566.28,2385.85c4.42,4.54,7.8,8.5,11.43,12.84s6.92,8.61,10.22,13a315.85,315.85,0,0,1,18.26,27.36,270.66,270.66,0,0,1,15.21,29.09,244.6,244.6,0,0,1,11.44,30.74,8.66,8.66,0,0,1-16.09,6.31l-.19-.4a225.89,225.89,0,0,0-14.29-26.49,246.23,246.23,0,0,0-17.46-24.5,291.47,291.47,0,0,0-20-22.45c-3.52-3.54-7.09-7-10.74-10.35s-7.56-6.73-10.86-9.27a17.37,17.37,0,0,1,21.15-27.55A18.61,18.61,0,0,1,1566.28,2385.85Z"/><path d="M2827.19,487.18a1.5,1.5,0,0,0,0-3,1.5,1.5,0,0,0,0,3Z"/><path d="M2761.57,735.08a1.5,1.5,0,0,0,0-3,1.5,1.5,0,0,0,0,3Z"/></svg>