<svg id="Layer_1" data-name="Layer 1" xmlns="http://www.w3.org/2000/svg" viewBox="0 0 4000 4000"><defs><style>.cls-1{fill:#fff;}.cls-2{opacity:0.3;}.cls-3{fill:#232323;}.cls-4{fill:#a6aacc;}.cls-5{opacity:0.7;}.cls-6{fill:#22a7f0;}.cls-7{opacity:0.5;}.cls-8{fill:#020202;}</style></defs><path class="cls-1" d="M2449.9,2830.44c216.47,10.76,204.36-244.69,204.36-244.69,36.31-30.93,44.69-138.86,44.69-138.86l37.3-422.78C2695.89,1900.79,2545.43,1857,2545.43,1857l-66.65,57.76"/><g class="cls-2"><path class="cls-3" d="M2714.93,2265.59l-16,181.3s-8.39,107.93-44.7,138.86c0,0,12.11,255.45-204.36,244.69l24.74-783.89C2534.55,2118.88,2630.6,2223.81,2714.93,2265.59Z"/></g><path class="cls-3" d="M2463,2844.91q-6.83,0-13.82-.34a14.14,14.14,0,0,1-13.42-14.83,14,14,0,0,1,14.82-13.42c53.58,2.67,96.74-11.89,128.19-43.27,66.26-66.1,61.41-185.44,61.35-186.64a14.14,14.14,0,0,1,5-11.43c26.06-22.2,37.53-100.78,39.76-129.19l37-420c-38.84-112.57-179-154.79-180.44-155.21a14.14,14.14,0,0,1,7.91-27.15c6.43,1.87,158.11,47.33,200.31,176.26a14,14,0,0,1,.65,5.64L2713,2448.13c-.85,11-9.19,105.63-44.5,143.47.22,27.76-3.44,135.29-69.77,201.47C2564.25,2827.51,2518.63,2844.91,2463,2844.91Z"/><path class="cls-1" d="M2888.21,2245.59l-110.52,139.93c-34.85,44.16-86.1,73.14-142.14,77.61-119.5,9.41-202.11-85.51-267.77-228.3l114.28,279.66.54,1.34-26.89,270.68-17.91,390.82,10.76,221.84c28,19.63,43.56,40.71,51.3,62.71,14,39.9-10.48,83.46-51.68,93-96.21,22.37-194,18.39-292.89-2.37-32.21-6.78-56.14-34.2-57.7-67.06q-2.1-43.32-2.48-86.48-.89-77.85,3.66-155.1a194.2,194.2,0,0,0-13.44-83.31l-64.7-161.66v-.06l-13.07-32.64c-48.51,37.75-81.69,102.5-110.41,175.05a187.69,187.69,0,0,0-13.12,70l1.18,261.86c-6,45-35.06,62.06-74.86,66.31H1491.27c-129.18-13.88-114.39-154.35-19.74-195.76,21.3-9.36,46.63-13.66,75.3-10.38-7.8-254.33-2.91-496.18,30.81-709.9-28.39-98.58,2.64-269.54,2.64-269.54l60.28-237.77q-5.07,1.29-10,2.42c-236.63,56-290.46-62.49-302.57-112.45a122.32,122.32,0,0,1-3.44-20.87l451.76-247.38L2498.41,1907c122.46,63.46,143.75,184.62,143.75,184.62l39.69-24.84q9.84-97.53,57.76-176.83l2-39.64c18.55-76.31,109.6-41.68,102.18,52.44C3006.15,1957.86,2994.75,2113.83,2888.21,2245.59Z"/><g class="cls-2"><path class="cls-3" d="M2448.18,3554.92c-96.21,22.37-194,18.39-292.89-2.37-32.21-6.78-56.14-34.2-57.7-67.06q-2.1-43.32-2.48-86.48l2-.33c28.72,130.91,270.62,122.84,239.8-65.39,0,0,4-228.57-12.85-432.93s38.51-338.82,38.51-338.82l-59.27-24.41-20.6,55.55c-5.25,9.64-10.62,18.46-16.06,26.54a167.89,167.89,0,0,1-190.21,66l-388.91-123.72L1616,2446.89l611.86,17.85,254.16,49.75.54,1.34-26.89,270.68-17.91,390.82,10.76,221.84c28,19.63,43.56,40.71,51.3,62.71C2513.9,3501.78,2489.38,3545.34,2448.18,3554.92Z"/></g><path class="cls-1" d="M2261.4,2314.3l251.69,65.29c10.15,54-.82,99.09-30.47,136.24l-254.74-51.11a24.1,24.1,0,0,1-19.4-24.76c2.07-39.81,9.61-77.32,24.59-111.7A24.3,24.3,0,0,1,2261.4,2314.3Z"/><path class="cls-3" d="M2482.6,2530a13.8,13.8,0,0,1-2.78-.28l-254.27-51-.65-.14a38.52,38.52,0,0,1-30.54-39.33c2.22-43.26,10.88-82.49,25.74-116.63a38.28,38.28,0,0,1,44.85-22l4.34,1.14,247.35,64.15A14.15,14.15,0,0,1,2527,2377c10.7,56.88-.51,106.57-33.34,147.66A14.13,14.13,0,0,1,2482.6,2530Zm-227.27-202.29a10.2,10.2,0,0,0-9.31,6.22c-13.68,31.44-21.34,66.37-23.42,106.78a10.08,10.08,0,0,0,8.11,10.21c.21,0,.41.08.62.14l245.35,49.19c22.27-31.2,30.15-67.09,24-109.23l-242.85-63A10.11,10.11,0,0,0,2255.33,2327.68Z"/><path class="cls-1" d="M2888.21,2245.59l-110.52,139.93c-34.85,44.16-86.1,73.14-142.14,77.61-5,.37-9.9.59-14.68.59-2.15.05-4.31.05-6.4,0h-.59c-64.92-1.83-118.48-35.77-164.25-91.7l-.05-.05c-30.33-37-57.28-83.74-81.8-137.14l20-50.18L2498.41,1907c122.46,63.46,143.75,184.62,143.75,184.62l39.69-24.84q9.84-97.53,57.76-176.83l2-39.64c18.55-76.31,109.6-41.68,102.18,52.44a262.24,262.24,0,0,1,29.58,12l.48.21C3004.21,1978.46,2987.7,2122.59,2888.21,2245.59Z"/><path class="cls-1" d="M2642.16,2091.64l-49.74,41.17s-49.75,157.15,100.84,251.26"/><path class="cls-3" d="M2373,2232.45c12.13,20.44,23.94,40.89,36.86,60.47,6.22,9.95,13.05,19.42,19.65,29,3.26,4.83,7,9.25,10.41,13.94s6.88,9.3,10.68,13.62l11,13.22q5.88,6.23,11.55,12.59c3.7,4.36,7.86,8.15,11.82,12.18a154,154,0,0,0,12.2,11.66c4.28,3.59,8.27,7.64,12.78,10.88l13.52,9.78,14.31,8.35a53.37,53.37,0,0,0,7.39,3.65l7.51,3.35a175.82,175.82,0,0,0,63.79,13.45,179.74,179.74,0,0,0,64.65-10.62,192,192,0,0,0,56.88-33,203,203,0,0,0,23.45-23.38l5.33-6.47,5.53-7,11.07-14,88.5-112.05c14.77-18.42,28.37-36.62,40-56.49s21.56-40.32,28.62-61.72a255,255,0,0,0,8.5-32.46,207.91,207.91,0,0,0,3.22-32.87,164.43,164.43,0,0,0-3-32.28,142.65,142.65,0,0,0-10.21-30.24,135,135,0,0,0-17.39-26.68c-6.83-8.23-15-15.41-23.46-22.15-17.52-13-37.67-22.92-59-30.23l-.07,0-.34-.13a15.15,15.15,0,0,1-9.79-15.25c1-14-.21-28-4.44-40.59s-11.66-23.71-21.25-30.64-20.71-8.69-28.9-4.35c-8.49,4.08-14.93,15.06-18.06,27.89l.41-2.79-2,39.67a15.27,15.27,0,0,1-2.16,7,384.84,384.84,0,0,0-37.42,81.93,429.44,429.44,0,0,0-18.29,88.59,15.14,15.14,0,0,1-7,11.2l-39.66,24.87a15,15,0,0,1-22.63-9.59l-.11-.52c-.78-3.76-2-8.65-3.3-13s-2.85-9-4.37-13.49-3.36-8.9-5.18-13.3c-2-4.33-3.76-8.76-5.9-13a260.1,260.1,0,0,0-30.12-48.51c-11.71-15-24.78-29-39.6-40.9l-5.48-4.56a47.38,47.38,0,0,0-5.67-4.32l-11.71-8.16c-3.8-2.89-8.06-5.06-12.17-7.47l-12.39-7.14,3.48,1.29-722.1-169.2,10.63-1.45-451.75,247.39,7.78-13.88c.08,1.09.28,3.14.52,4.83s.54,3.58.87,5.39c.65,3.63,1.5,7.25,2.42,10.86a159.75,159.75,0,0,0,7.33,21.15,140.42,140.42,0,0,0,23.56,37.56c19.42,22.41,46.33,37.45,75.66,45.61,29.58,7.71,61.14,9.73,92.68,7.35,31.56-2.21,63.14-8,94.31-15.71l.07,0a15,15,0,0,1,18.16,11,15.31,15.31,0,0,1,0,7.28l-31.67,124.94-15.84,62.48-7.92,31.23-4,15.62a58.53,58.53,0,0,0-1.46,7.2L1593,2369a1054.34,1054.34,0,0,0-12,126.61c-.47,21.11-.31,42.18,1.19,63,1.72,20.73,4.57,41.26,9.87,60.6l0,.18a15.39,15.39,0,0,1,.36,6.31c-18.21,116.38-27.21,234.29-31.26,352.34s-2.94,236.45.66,354.75a15,15,0,0,1-14.55,15.46,15.44,15.44,0,0,1-1.93-.06l-.23,0c-26.94-2.83-54.4,1-77.4,14.08-22.92,12.74-41.39,33.83-49.89,58.35-8.63,24.25-7,51.92,7.87,71.14,7.21,9.69,17.24,17.37,28.9,22.69s24.77,8.43,38.26,10.08l-1.6-.08h319.1l-1.6.08c16.53-1.79,32.21-6.18,42.82-15.15a47.61,47.61,0,0,0,12.59-16.45,75.72,75.72,0,0,0,6.16-21.79l-.13,2-.61-135.7-.31-67.85-.15-33.92-.08-17,0-8.57c0-3,.08-6.1.21-9.14a202.27,202.27,0,0,1,4.94-36.24q2-8.94,4.9-17.66c1.88-5.78,4.19-11.66,6.29-16.8,8.57-21.23,17.64-42.38,28.05-63.11s21.88-41.12,35.78-60.33a289,289,0,0,1,22.49-27.8,243.3,243.3,0,0,1,26.65-24.7,14.86,14.86,0,0,1,23.05,6l.1.25,52.4,131,26.24,65.69a208,208,0,0,1,14,74.29c0,13.1-1.14,24.27-1.56,36-.58,11.66-1,23.33-1.42,35q-1.14,35-1.15,70.06t1,70.08c.36,11.68.76,23.35,1.31,35l.19,4.37c.06,1.5.13,3,.26,4l.31,3.47.62,3.42a54.73,54.73,0,0,0,4.38,13.16,57.37,57.37,0,0,0,17.63,21.33,56.37,56.37,0,0,0,12.15,6.91,59.78,59.78,0,0,0,6.62,2.34l3.4.86c1.14.3,2.76.57,4.12.86,22.65,4.67,45.46,8.52,68.36,11.27,45.78,5.51,92,6.82,137.66,2.68a564.73,564.73,0,0,0,67.9-10.29l8.39-1.8,6.8-2a59.11,59.11,0,0,0,12.37-6.31,57.11,57.11,0,0,0,18.59-20.49,58.15,58.15,0,0,0,6.78-26.71c-.05-9.31-2.49-18-7-27.43-8.75-18.23-24-33.55-41.85-46.06a15.15,15.15,0,0,1-6.37-11.55l-10.75-221.85c0-.46,0-1,0-1.41L2438,2845l1.9-41.45c.38-6.91.5-13.83,1.09-20.72l2.05-20.65,8.21-82.62,16.41-165.24a15,15,0,0,1,29.85,3l-16.37,164.76-8.18,82.38-2,20.59c-.59,6.87-.71,13.78-1.08,20.67l-1.9,41.37L2452.78,3178v-1.41l10.76,221.84-6.36-11.55a188,188,0,0,1,29.07,25,133,133,0,0,1,22.55,32.57c5.76,11.68,10.07,26.12,10,40.4a88.22,88.22,0,0,1-10.35,41,87.06,87.06,0,0,1-28.32,31.22,88.51,88.51,0,0,1-19,9.64c-3.33,1.09-6.89,2.11-10.13,3l-8.85,1.9a593.94,593.94,0,0,1-71.51,10.84c-48,4.35-96.37,3-143.95-2.78-23.8-2.85-47.42-6.84-70.82-11.67-1.52-.32-2.81-.52-4.52-.94l-5.14-1.31a87.91,87.91,0,0,1-55.27-46.5,85.14,85.14,0,0,1-6.73-20.21l-.92-5.26-.51-5.31c-.19-1.88-.25-3.36-.31-4.8l-.2-4.43c-.54-11.82-.95-23.65-1.32-35.48q-1.08-35.49-1-71t1.17-71c.4-11.83.85-23.67,1.44-35.49.44-11.75,1.55-24,1.52-34.45a178,178,0,0,0-12-63.61l-26.1-65.34-52.41-131,23.14,6.27a212.85,212.85,0,0,0-23,21.38,261.53,261.53,0,0,0-20.14,24.92c-12.65,17.45-23.38,36.64-33.33,56.28s-18.69,40.16-27,60.87c-2.18,5.32-4,10-5.62,14.95s-3,10-4.17,15a171.94,171.94,0,0,0-4.21,30.9c-.11,2.6-.18,5.21-.18,7.81l0,8.4.08,17,.15,33.93.3,67.85.62,135.7v.11a15.54,15.54,0,0,1-.13,1.94,105.37,105.37,0,0,1-8.81,30.73,77.89,77.89,0,0,1-20.54,26.66,88.05,88.05,0,0,1-28.8,15.6,143,143,0,0,1-30,6.27,13.38,13.38,0,0,1-1.54.09H1491.09a13.2,13.2,0,0,1-1.42-.09c-16-1.94-32.24-5.61-47.66-12.68s-29.82-17.78-40.38-32a95.27,95.27,0,0,1-18.56-48.65,118.67,118.67,0,0,1,6.48-50.38c11.13-31.85,34.54-58.37,63.57-74.56a145.34,145.34,0,0,1,46.65-16.36,179.48,179.48,0,0,1,48.79-1.32l-16.71,15.36c-3.61-118.76-4.67-237.72-.65-356.69s13.14-238,31.61-356l.4,6.49c-12-44.54-13.13-88.95-12.21-132.75a1082.67,1082.67,0,0,1,12.36-130.41l1.3-8.13a79,79,0,0,1,1.74-8.61l4-15.69,8-31.36,15.9-62.74L1626,2112.38l18.21,18.23c-32.51,8-65.71,14.18-99.62,16.55-33.84,2.52-68.67.54-102.64-8.35a205.8,205.8,0,0,1-48.91-20.56,169.09,169.09,0,0,1-69.94-79.7,189.85,189.85,0,0,1-8.76-25.32c-1.12-4.33-2.13-8.7-2.94-13.15-.4-2.23-.78-4.46-1.08-6.75s-.56-4.4-.76-7.41a14.56,14.56,0,0,1,7.53-13.74l.25-.13,451.75-247.39a15,15,0,0,1,10.63-1.45l722.09,169.2.54.12a11.29,11.29,0,0,1,2.94,1.17l13.77,7.9c4.57,2.68,9.28,5.12,13.53,8.31l13,9.09a59.21,59.21,0,0,1,6.32,4.82l6.13,5.08a277.62,277.62,0,0,1,44.14,45.6,289.63,289.63,0,0,1,33.42,53.84c2.37,4.73,4.36,9.64,6.55,14.46,2,4.89,3.92,9.84,5.77,14.81s3.48,10,4.93,15.22,2.81,10.12,4,16.21l-22.75-10.11,39.67-24.87-7,11.2a460,460,0,0,1,19.59-94.78,415,415,0,0,1,40.33-88.3l-2.16,7,2-39.66v-.13a15.25,15.25,0,0,1,.4-2.65,90,90,0,0,1,10.84-26.23c5.31-8.34,12.82-16.42,22.8-21.32a52.56,52.56,0,0,1,31.93-5,64.4,64.4,0,0,1,28.06,11.73c16,11.65,26.27,28.23,32.14,45.37s7.21,35.25,5.94,52.57l-10.12-15.38.07,0c23.64,8.11,46.7,19.31,67.43,34.71,10.14,8,19.91,16.65,28.3,26.74a164.28,164.28,0,0,1,21.46,33,171.94,171.94,0,0,1,12.57,37.19,193.89,193.89,0,0,1,3.68,38.62,236.3,236.3,0,0,1-3.72,38.06,283.44,283.44,0,0,1-9.54,36.52c-15.9,47.47-43,90.09-73.6,127.45l-88.42,111.93-11.05,14-5.53,7-6,7.29a232.34,232.34,0,0,1-27,26.94,221.87,221.87,0,0,1-65.94,38.23,210,210,0,0,1-75.38,12.42,206.13,206.13,0,0,1-74.91-15.79l-8.78-3.92a67.76,67.76,0,0,1-8.58-4.25l-16.57-9.53-15.56-10.89c-5.21-3.6-9.8-7.88-14.72-11.81a271.44,271.44,0,0,1-49.49-55.45,470.75,470.75,0,0,1-36.77-63.13c-10.89-21.63-19.75-44.07-28-66.61a5.72,5.72,0,0,1,10.3-4.88Z"/><path class="cls-3" d="M2651.18,2102.53l-49.75,41.17,4.47-6.63h0c-.46,2.08-1.19,5.07-1.69,7.73l-1.56,8.31c-1,5.58-1.76,11.23-2.47,16.89a268.35,268.35,0,0,0-1.95,34.27,209.57,209.57,0,0,0,11.8,67.48,201.21,201.21,0,0,0,33.9,60.19,254.8,254.8,0,0,0,52.18,47.56l0,0a5.38,5.38,0,0,1-5.72,9.1,261,261,0,0,1-59.09-45.55,217.52,217.52,0,0,1-41.89-63.21,234.28,234.28,0,0,1-18-74.34,230.45,230.45,0,0,1,.09-38.43,175.11,175.11,0,0,1,2.56-19.14c.56-3.18,1.22-6.36,2-9.53s1.57-6.15,2.85-9.88h0a13.71,13.71,0,0,1,4.39-6.57l.07-.06,49.75-41.16a14.14,14.14,0,1,1,18,21.78Z"/><path class="cls-3" d="M2696,2066.68a176,176,0,0,0,.36,18.49c.42,6.32,1.1,12.65,2.07,18.91a170.58,170.58,0,0,0,9.55,36.51,103.34,103.34,0,0,0,19,31.66,72.91,72.91,0,0,0,30.53,20.2l.24.09a5.38,5.38,0,0,1-3.14,10.27,92.62,92.62,0,0,1-20.26-7.39,95.93,95.93,0,0,1-17.94-12.34,120.26,120.26,0,0,1-26.11-34.29,191.55,191.55,0,0,1-15.21-39.72q-2.76-10.23-4.59-20.68a199.63,199.63,0,0,1-2.75-21.53,14.16,14.16,0,1,1,28.26-1.92,11.92,11.92,0,0,1,0,1.58Z"/><path class="cls-3" d="M2847.77,1916.3c-25.95,8.66-48.88,23.57-62.22,45.29-13.41,21.49-17.22,49-11.14,75a126.09,126.09,0,0,0,41.5,68.25c20.94,17.79,48.23,28.2,77.12,30h0a5.39,5.39,0,0,1,.19,10.75,140.35,140.35,0,0,1-46.87-3.53,133.45,133.45,0,0,1-43.62-20c-26.66-18.52-46.56-46.74-55.5-78.63a131.33,131.33,0,0,1-4.21-49.75,116.36,116.36,0,0,1,51.7-84.72,152.45,152.45,0,0,1,45.16-19.88,14.15,14.15,0,0,1,8.07,27.1Z"/><g class="cls-2"><path class="cls-3" d="M2888.21,2245.59l-110.52,139.93c-34.85,44.16-86.1,73.14-142.14,77.61-5,.37-9.9.59-14.68.59h-10.6c-122.72.38-159.56-88.9-160.64-91.7l-.05-.05-125.47-41.41c2.42-63.08,36.46-114.55,63.67-145.91l.56-.64a31.63,31.63,0,0,1,51.66,5.87c41.19,76.9,94.71,114.75,163.17,105.35l115.74-120.36c49.85-33.08,57.65-97.56,57.65-97.56,140.26,32.43,134.77-52.06,96.86-162.52l.48.21C3004.21,1978.46,2987.7,2122.59,2888.21,2245.59Z"/></g><path class="cls-3" d="M1661.51,2034.06l91.82-135.62A8.07,8.07,0,0,1,1767,1907l-81.51,142A14.15,14.15,0,0,1,1661,2035C1661.12,2034.65,1661.32,2034.34,1661.51,2034.06Z"/><path class="cls-3" d="M1719.18,2752.58a135.11,135.11,0,0,0,24.87,24.65,85.76,85.76,0,0,0,7.14,5.36l7.23,5.23c5.09,3.16,10.06,6.45,15.22,9.43a343.08,343.08,0,0,0,65.84,28.41c22.74,7.69,46.47,12.24,69.93,17.67l35.72,6.35,36.16,4.33.38,0a14.13,14.13,0,0,1,12,10.22l27.51,98.15a14.14,14.14,0,0,1-27.22,7.64l-27.51-98.15,12.37,10.27-37.65-4.1q-18.77-2.73-37.52-6c-6.2-1.4-12.4-2.79-18.57-4.33s-12.37-2.88-18.42-5c-12.13-4-24.26-7.81-36-12.89-11.94-4.48-23.39-10.34-34.86-15.94-5.62-3.12-11.16-6.35-16.68-9.57-5.44-3.42-10.71-7.13-16-10.68-5.22-3.74-10.23-7.82-15.3-11.72-4.78-4.37-9.8-8.35-14.18-13.14-9.11-9.26-17.35-18.83-23.84-31.1a5.36,5.36,0,0,1,9-5.72Z"/><path class="cls-3" d="M1553.52,3320.83l58.61,41.33a5.42,5.42,0,0,1-5.08,9.48l-66.88-25.89a14.24,14.24,0,1,1,10.28-26.57A14.81,14.81,0,0,1,1553.52,3320.83Z"/><path class="cls-3" d="M1733.12,3236.63c-72.3,0-151.17-17.5-198-56.21a13.45,13.45,0,0,1,17.14-20.73c58.89,48.71,183.12,60.59,262.19,41.12,32.91-8.1,55.32-21.21,61.5-35.95a13.44,13.44,0,0,1,24.8,10.39c-9.79,23.35-37.4,41.21-79.87,51.67C1795,3233.29,1764.7,3236.63,1733.12,3236.63Z"/><path class="cls-3" d="M2272.64,3263.5c-69.39,0-143.22-15-183.94-47.77a13.45,13.45,0,1,1,16.88-20.94c44.48,35.84,151.6,51.84,238.76,35.67,42.16-7.82,72.32-22.62,82.76-40.62a13.45,13.45,0,1,1,23.26,13.5c-18.7,32.24-65.31,46.92-101.11,53.56A426.42,426.42,0,0,1,2272.64,3263.5Z"/><path class="cls-3" d="M2442,3411.72a118.25,118.25,0,0,0-11.66-5.45c-4.14-1.8-8.48-3.27-12.78-4.82-4.37-1.38-8.75-2.77-13.2-4-4.49-1-8.93-2.36-13.48-3.14a216,216,0,0,0-55.4-4.18c-18.56,1.09-37.29,3.83-55.2,9.74-9.17,2.34-17.75,6.34-26.58,9.81-4.5,1.59-8.53,4.14-12.8,6.23l-12.7,6.59-.45.23a5.36,5.36,0,0,1-5.29-9.32l12.66-7.85c4.28-2.51,8.33-5.49,12.9-7.51,9-4.35,17.76-9.24,27.28-12.47,18.58-7.69,38.43-12.21,58.49-14.89a237.44,237.44,0,0,1,60.91,0c5.09.5,10.09,1.57,15.16,2.35,5,.95,10,2.12,15,3.3,5,1.37,10,2.67,14.9,4.37,2.48.77,5,1.68,7.44,2.62,1.23.45,2.47.92,3.75,1.47s2.47,1,4,1.75a14.15,14.15,0,0,1-12.16,25.55l-.59-.3Z"/><path class="cls-3" d="M1221.62,2055.69a14.14,14.14,0,0,1-5.25-27.27L2750.75,1415.8a14.2,14.2,0,0,1,6.82-.93l125.39,14c.5.06,1,.14,1.51.25,154.15,34.38,290.65,6,374.52-77.85,58.86-58.86,85.53-140.61,73.08-221.59l-231.05,103a14.14,14.14,0,0,1-12.55-.51l-127.73-69.92a14.13,14.13,0,0,1-6.77-16.39l29.58-100.69a14.12,14.12,0,0,1,7.21-8.65l209.13-105.13V881c-96.74-68.93-200.11-91-299.37-63.71-114.69,31.49-216.34,128.39-271.91,259.21a14.11,14.11,0,0,1-7.26,7.38l-1541.54,686.6a14.14,14.14,0,0,1-11.51-25.83l1536.5-684.35C2664.2,924.17,2771.61,823.33,2893,790c109.88-30.17,223.77-5.14,329.36,72.36a14.13,14.13,0,0,1,5.78,11.4v66.33a14.15,14.15,0,0,1-7.79,12.63L3009,1059l-24.65,83.88L3095.91,1204l241-107.4a14.14,14.14,0,0,1,19.56,9.84c21.39,95.95-7.57,195-77.47,264.86-90.71,90.7-236.44,121.89-399.91,85.62L2758,1443.37,1226.86,2054.68A14,14,0,0,1,1221.62,2055.69Z"/><path class="cls-4" d="M2881.38,1442.92l-125.36-14-1534.4,612.61-147.58-284L2615.6,1070.92C2715.73,835.2,2967.32,692.69,3214,873.77v66.31l-216.9,109.06-29.58,100.68,127.73,69.91,247.39-110.25C3387,1308.47,3206.85,1515.52,2881.38,1442.92Z"/><g class="cls-2"><path class="cls-3" d="M2881.38,1442.92l-125.36-14-1534.4,612.61-147.58-284,45.4-20.22L1221.62,1934,2756,1321.38l125.36,14c262.93,58.67,431-65.18,462.51-219.85C3383.36,1312.61,3203.57,1514.77,2881.38,1442.92Z"/></g><g class="cls-5"><path class="cls-1" d="M2635.76,1096.47,1094.21,1783.08l133.11,256.21-5.7,2.26-147.58-284L2615.6,1070.92C2715.73,835.2,2967.32,692.69,3214,873.77v11.45C2973.88,726.09,2733.16,867.15,2635.76,1096.47Z"/></g><g class="cls-5"><path class="cls-1" d="M3347.87,1141.7l-232.44,103.58-127.73-69.92,3.66-12.47,103.9,56.84,247.39-110.25A277.38,277.38,0,0,1,3347.87,1141.7Z"/></g><path class="cls-3" d="M1221.62,2055.69a14.14,14.14,0,0,1-5.25-27.27L2750.75,1415.8a14.2,14.2,0,0,1,6.82-.93l125.39,14c.5.06,1,.14,1.51.25,154.15,34.38,290.65,6,374.52-77.85,58.86-58.86,85.53-140.61,73.08-221.59l-231.05,103a14.14,14.14,0,0,1-12.55-.51l-127.73-69.92a14.13,14.13,0,0,1-6.77-16.39l29.58-100.69a14.12,14.12,0,0,1,7.21-8.65l209.13-105.13V881c-96.74-68.93-200.11-91-299.37-63.71-114.69,31.49-216.34,128.39-271.91,259.21a14.11,14.11,0,0,1-7.26,7.38l-1541.54,686.6a14.14,14.14,0,0,1-11.51-25.83l1536.5-684.35C2664.2,924.17,2771.61,823.33,2893,790c109.88-30.17,223.77-5.14,329.36,72.36a14.13,14.13,0,0,1,5.78,11.4v66.33a14.15,14.15,0,0,1-7.79,12.63L3009,1059l-24.65,83.88L3095.91,1204l241-107.4a14.14,14.14,0,0,1,19.56,9.84c21.39,95.95-7.57,195-77.47,264.86-90.71,90.7-236.44,121.89-399.91,85.62L2758,1443.37,1226.86,2054.68A14,14,0,0,1,1221.62,2055.69Z"/><path class="cls-3" d="M2967.52,1164a14.13,14.13,0,0,1-6.09-1.39l-41-19.59a14.16,14.16,0,0,1-7.52-16.59l40.82-145.32a14.15,14.15,0,0,1,7.8-9.07l246.69-111.14a14.14,14.14,0,1,1,11.62,25.78L2979.17,995.07l-35.81,127.52,30.27,14.47a14.14,14.14,0,0,1-6.11,26.9Z"/><g class="cls-5"><path class="cls-1" d="M1992.61,1653.58,1366,1902.47a56.61,56.61,0,0,1-72.55-29.47,56,56,0,0,1-4.62-28.56,56.47,56.47,0,0,0,64.64,16.78l613.15-243.57Z"/></g><g class="cls-2"><polygon class="cls-3" points="3214.01 873.76 3214.01 940.08 2997.11 1049.14 2967.53 1149.82 2926.5 1130.24 2967.32 984.88 3214.01 873.76"/></g><path class="cls-3" d="M1332.45,1884.08a70.06,70.06,0,0,1-27.23-134.56l592.14-251a13.41,13.41,0,0,1,16.13,4.48l77.45,106.76a13.45,13.45,0,0,1-5.93,20.39L1358.4,1879.08A70.08,70.08,0,0,1,1332.45,1884.08ZM1898,1527.5l-582.29,246.78a43.14,43.14,0,0,0-22.54,57.34h0a43.05,43.05,0,0,0,55.3,22.47L1959,1611.6Z"/><g class="cls-2"><path class="cls-3" d="M1980,1617.7l-5.16,2-52.92-72.93-592.17,250.94a56.54,56.54,0,0,0-34,59.27,56.58,56.58,0,0,1,14.68-95.14L1902.58,1511Z"/></g><path class="cls-4" d="M688.16,2250.52c232.36,202.27,698.55-13.23,474.05-395-61.45-104.51-176.07-168-297.07-160.46-150.64,9.33-303,104.18-285.08,310.27a12.81,12.81,0,0,0,18.91,10c51.3-28,203.92-100.06,203.92-100.06l154.17,53.78L932,2108.9Z"/><g class="cls-2"><path class="cls-3" d="M806.92,1922.44S654.29,1994.56,603,2022.53a12.78,12.78,0,0,1-18.88-10.06,359.34,359.34,0,0,1-.65-56.14c51-25.41,151.87-68.91,192.69-86.36a51.31,51.31,0,0,1,36.09-1.59l129.41,42.19a36,36,0,0,1,15.41,58.5h0Z"/></g><g class="cls-2"><path class="cls-3" d="M701.08,2261.18c242.71,102.56,592-105.73,391.79-446.26a329.26,329.26,0,0,0-83.79-94.71,327.5,327.5,0,0,1,153.11,135.31C1382.64,2230.37,937.23,2444.9,701.08,2261.18Z"/></g><g class="cls-5"><path class="cls-1" d="M616.75,2005.94c-6.77,3.5-12.74,6.67-17.8,9.41a12.77,12.77,0,0,1-18.87-10c-17.91-206.09,134.45-301,285-310.26a315.38,315.38,0,0,1,153.38,29.36,312.75,312.75,0,0,0-115.73-14.62C755.67,1718.92,606.86,1809.65,616.75,2005.94Z"/></g><g class="cls-5"><path class="cls-1" d="M956.8,1970.61h0a47,47,0,0,1,30.82,52.75l-18,100.31-243.78,141.6a305.8,305.8,0,0,0,71.58,46.47,308.93,308.93,0,0,1-109.23-61.21L932,2108.88Z"/></g><path class="cls-3" d="M903.08,2342.13c-84.71,0-164.06-28.59-224.21-81a14.14,14.14,0,0,1,2.19-22.89L919.2,2100,941,1978.44l-137.3-47.89c-27.21,12.89-152.94,72.66-198,97.22A27,27,0,0,1,566,2006.53c-7.64-87.9,13.57-161.58,63-219,53.22-61.78,139-100.63,235.23-106.6,126-7.84,244.83,56.35,310.14,167.42,94,159.94,79.19,314.41-39.75,413.19-59.54,49.44-141.06,78.8-223.65,80.53C908.36,2342.11,905.72,2342.13,903.08,2342.13ZM713,2252.46c125.93,95.32,304.57,69.55,403.62-12.7,109-90.49,121.15-227.94,33.44-377.1-59-100.3-170.51-160.57-284-153.52-88.72,5.5-167.28,40.79-215.56,96.83-43.92,51-62.92,116.93-56.47,196,52.62-28.46,196.69-96.56,202.87-99.47a14.08,14.08,0,0,1,10.7-.57l154.16,53.78a14.14,14.14,0,0,1,9.26,15.84l-25.09,139.83a14.15,14.15,0,0,1-6.82,9.73Z"/><path class="cls-1" d="M1531.66,1553.72c53.95-24,18.81-107.08-33.22-75.84-27.48,11.3-56.73,13.66-87.39,9-132.21-15.9-193.43,106.37-168.13,195.48l45.56-20.29c62.07,51.58,197.32-10.11,191.73-85.4Z"/><g class="cls-2"><path class="cls-3" d="M1531.93,1553.6a.41.41,0,0,0-.22.11c-.21,0-51.52,22.91-51.52,22.91,5.6,75.29-129.66,137-191.72,85.4l-45.55,20.27a153.48,153.48,0,0,1-5.44-48.77l30.93-13.77c62.06,51.57,197.32-10.11,191.72-85.4,0,0,51.31-22.86,51.52-22.91s.22-.11.22-.11c17.1-7.75,25.22-21.51,26.51-35.6C1563.44,1490.68,1569.58,1536.55,1531.93,1553.6Z"/></g><path class="cls-3" d="M1242.92,1696.46a14.13,14.13,0,0,1-13.6-10.28c-15.32-54-1.42-116.67,35.41-159.8,35.66-41.73,88.17-60.78,148-53.58,29.62,4.53,55.47,2,79.41-7.63,18.3-10.59,37.87-11.11,53.85-1.37,17.34,10.56,28.07,32.18,26.68,53.79-1.4,21.81-14.25,39.69-35.27,49.05l-.13.06c-3.4,1.5-29.26,13-42.92,19.11-2.21,34.51-28.26,68.22-70.22,89.83-40.89,21.06-97.85,29.24-137.47,2.67l-38,16.93A14.21,14.21,0,0,1,1242.92,1696.46Zm45.56-48.57a14.2,14.2,0,0,1,9,3.26c29.7,24.7,78.5,17.47,113.67-.65,28.09-14.46,57.26-41.19,54.92-72.82a14.13,14.13,0,0,1,8.35-14l43.63-19.44c2-.87,4-1.79,6.12-2.57a13.6,13.6,0,0,1,1.69-.9l.11.25h0l-.11-.25c14.42-6.43,18-17.16,18.55-25,.72-11.22-4.7-22.67-13.17-27.83-7.3-4.44-15.9-3.75-25.57,2a13.47,13.47,0,0,1-1.9,1c-28.69,11.81-60.63,15.12-94.92,9.86-63.71-7.64-101.92,19.67-122.66,43.94-27.24,31.89-39.53,76.54-33.21,117.6l29.7-13.24A14.11,14.11,0,0,1,1288.48,1647.89Z"/><path class="cls-3" d="M1276.68,1669.82l-13.08-35.71a5.52,5.52,0,0,1,9-5.92l27.71,26a14.53,14.53,0,1,1-19.91,21.17A14.79,14.79,0,0,1,1276.68,1669.82Z"/><path class="cls-3" d="M1466.21,1578.61l2.71-43.51a5.49,5.49,0,0,1,10.65-1.51l14.65,41.06a14.44,14.44,0,0,1-27.19,9.71A14.92,14.92,0,0,1,1466.21,1578.61Z"/><path class="cls-1" d="M2279.15,2261.67,2216.06,2514c-8,32.11-30.17,59.53-61,71.58-15.38,6-31.46,7.91-48,6.94q-39.28-9-77.55-18.34c-154.45-37.54-295.73-79-413.46-127.24a61.94,61.94,0,0,1-38.29-61.21q2.41-38.47,7.91-76.36a915.34,915.34,0,0,1,72.6-247.18,62,62,0,0,1,68.08-35.06c152.15,28.93,298.16,63.57,435.89,105.73h.05c7,2.15,14.1,4.36,21.14,6.56,11.08,4.14,20.92,8,29.74,11.83h.05c47.44,20.44,63.95,37.22,68.47,67.77C2283.83,2233.16,2282.64,2247.74,2279.15,2261.67Z"/><ellipse class="cls-6" cx="2016.83" cy="2237.21" rx="56.78" ry="60.05"/><g class="cls-7"><path class="cls-1" d="M1975.05,2262.21c0-33.16,25.42-60.05,56.78-60.05a54.94,54.94,0,0,1,39,16.45c-7.41-24.05-28.75-41.45-54-41.45-31.36,0-56.78,26.89-56.78,60.05a61.52,61.52,0,0,0,17.81,43.6A62.9,62.9,0,0,1,1975.05,2262.21Z"/></g><g class="cls-2"><path class="cls-3" d="M2279.15,2261.67l-13.45,53.78-4.3-1.13a24.28,24.28,0,0,0-28.34,13.93c-14.95,34.36-22.53,71.9-24.58,111.7a24.21,24.21,0,0,0,19.42,24.79l.43.11-12.27,49.1c-8,32.11-30.17,59.53-61,71.58-15.38,6-31.46,7.91-48,6.94q-39.28-9-77.55-18.34c-154.45-37.54-295.73-79-413.46-127.24a61.94,61.94,0,0,1-38.29-61.21q2.41-38.47,7.91-76.36c158.48,184.62,525.75,105.35,607.66-150.21l19.84-7.91h.05c47.44,20.44,63.95,37.22,68.47,67.77C2283.83,2233.16,2282.64,2247.74,2279.15,2261.67Z"/></g><path class="cls-3" d="M2115.27,2607.71q-4.47,0-9.09-.27a14.67,14.67,0,0,1-2.48-.35c-211.39-48.49-368.15-95-493.35-146.33a76.82,76.82,0,0,1-47.57-76A934.47,934.47,0,0,1,1644.6,2056a76.83,76.83,0,0,1,84.54-43.61c170.28,32.39,320.34,69.27,458.77,112.72.26.08.52.17.77.27,69,25.87,101,45.21,107.84,91.43,2.33,15.44,1.38,31.78-2.82,48.54l-13.44,53.78a15,15,0,0,1-18.35,10.88l-4.31-1.13a9.28,9.28,0,0,0-10.79,5.41c-13.64,31.35-21.28,66.19-23.35,106.48a9.2,9.2,0,0,0,7.42,9.32c.22,0,.44.1.66.15,8,2,13.35,10.26,11.34,18.29l-12.26,49.1c-9.45,37.83-35.65,68.46-70.09,81.92A122.22,122.22,0,0,1,2115.27,2607.71Zm-6.12-30.15c15,.72,28.28-1.23,40.45-6,25.42-9.93,44.82-32.83,51.92-61.25l9.19-36.83a39.37,39.37,0,0,1-17.21-34.28c2.23-43.36,10.91-82.7,25.8-116.94a39.23,39.23,0,0,1,35.17-23.73l10.13-40.5v0c3.23-12.89,4-25.27,2.25-36.8-4-27-18-41.24-88.31-67.65-137.2-43-286-79.6-455-111.75a46.85,46.85,0,0,0-51.62,26.54,904.69,904.69,0,0,0-79.2,318.27,46.86,46.86,0,0,0,29,46.38C1743.44,2482.91,1902.88,2530.2,2109.15,2577.56Z"/><g class="cls-2"><path class="cls-3" d="M2511.59,2458.93a152.9,152.9,0,0,1-29,56.9l-254.7-51.09a24.21,24.21,0,0,1-19.42-24.79c2.05-39.8,9.63-77.34,24.58-111.7a24.34,24.34,0,0,1,6.72-9c-7.1,24.73-11.08,50.82-12.48,78a24.12,24.12,0,0,0,19.42,24.74l254.7,51.14A167.42,167.42,0,0,0,2511.59,2458.93Z"/></g><path class="cls-3" d="M1862.5,2545a12.38,12.38,0,0,1-3.33-.46,12.5,12.5,0,0,1-8.72-15.38l39.1-141.56a74.68,74.68,0,0,0-17.66-71.06l-44.28-47.34a79.26,79.26,0,0,1-19.25-72.73l34.86-146a12.5,12.5,0,1,1,24.31,5.8l-34.86,146a54.35,54.35,0,0,0,13.2,49.85l44.28,47.34a99.56,99.56,0,0,1,23.51,94.76l-39.11,141.6A12.51,12.51,0,0,1,1862.5,2545Z"/><path class="cls-3" d="M2040.15,2585.6a94.59,94.59,0,0,1-12-.78,10.76,10.76,0,0,1,2.73-21.34,66,66,0,0,0,27.89-2.11c17.81-5.43,32.38-19.91,39-38.75a1892.09,1892.09,0,0,0,84.43-341.18,35.06,35.06,0,0,0-23.38-38.46,10.76,10.76,0,1,1,6.94-20.36,56.55,56.55,0,0,1,37.71,62A1913.77,1913.77,0,0,1,2118,2529.73c-8.86,25.28-28.67,44.8-53,52.22A84.92,84.92,0,0,1,2040.15,2585.6Z"/><path class="cls-3" d="M2016.83,2309.77c-38.2,0-69.28-32.55-69.28-72.56s31.08-72.55,69.28-72.55,69.28,32.55,69.28,72.55S2055,2309.77,2016.83,2309.77Zm0-120.11c-24.42,0-44.28,21.33-44.28,47.55s19.86,47.56,44.28,47.56,44.28-21.34,44.28-47.56S2041.24,2189.66,2016.83,2189.66Z"/><g class="cls-2"><path class="cls-3" d="M1744,1928.61l-70.5,97.39-42.87,92.45,0,.05c-236.63,56-290.46-62.49-302.57-112.45l152.2-77.44C1483.74,2052.14,1590,2025.41,1744,1928.61Z"/></g><g class="cls-2"><path class="cls-3" d="M2021,2994.47s-.1,1.56-.37,4.41l-13.07-32.64c-48.51,37.75-81.69,102.5-110.41,175.05a187.69,187.69,0,0,0-13.12,70l1.18,261.86c-6,45-35.06,62.06-74.86,66.31H1491.27c-129.18-13.88-114.39-154.35-19.74-195.76,1.24,2,2.48,4.19,3.61,6.4,96.8,186.24,282.34,74.64,268.84-127.14s33.24-411.9,33.24-411.9L1896,2856l84,21.51Z"/></g><path class="cls-3" d="M2589.78,2606.89c-40.26,0-89.45-8.36-121.37-42.8a14.14,14.14,0,0,1,20.74-19.22c49.41,53.32,160.69,27.39,161.81,27.13a14.14,14.14,0,0,1,6.63,27.49A315.9,315.9,0,0,1,2589.78,2606.89Z"/><path class="cls-1" d="M1505.11,1338.52a687.37,687.37,0,0,0,132.34,324.2,707.06,707.06,0,0,0,48.26,57.56c8.37,9,17.13,17.89,26.11,26.66a707.87,707.87,0,0,0,269.53,162.94q19.25,6.3,38.7,11.56c237.59,63.67,501.46,2.51,685.1-182.75,270.59-272.86,264.5-711.57-13.47-979.88a705.89,705.89,0,0,0-176.85-124.76c-7.39-3.75-14.92-7.3-22.51-10.68q-30.36-13.79-61.64-24.57a716.57,716.57,0,0,0-298.43-35.75q-23.85,2.21-47.57,6a702.51,702.51,0,0,0-386.32,198C1542.7,924,1478.63,1135.82,1505.11,1338.52Z"/><path class="cls-3" d="M2204.69,1947.58a714.36,714.36,0,0,1-185.11-24.39c-13-3.5-26-7.4-38.8-11.58a711.47,711.47,0,0,1-270.22-163.37c-9.87-9.63-18.44-18.37-26.19-26.72a711.61,711.61,0,0,1-48.37-57.71,691.53,691.53,0,0,1-132.69-325c-27.71-212,42.91-420.89,193.75-573A700.25,700.25,0,0,1,2013.67,582.4a708,708,0,0,1,70.71-15.14c15.55-2.51,31.6-4.54,47.71-6a718.14,718.14,0,0,1,299.18,35.84c20.8,7.16,41.59,15.45,61.8,24.63,8.1,3.62,15.49,7.12,22.59,10.71A707.74,707.74,0,0,1,2693,757.5c135.33,130.63,211,305.18,213,491.49,2,184.83-68.84,359.2-199.52,491C2573.1,1874.49,2391.29,1947.58,2204.69,1947.58Zm-697.77-609.29a687.81,687.81,0,0,0,132,323.33A706.22,706.22,0,0,0,1687,1719c7.71,8.31,16.23,17,26,26.59a706.14,706.14,0,0,0,268.83,162.52c12.72,4.17,25.71,8,38.61,11.53,245,65.65,506.8-4.19,683.33-182.28,130-131.08,200.48-304.52,198.47-488.37-2-185.33-77.28-359-211.91-488.91A704.22,704.22,0,0,0,2514,635.68c-7.06-3.57-14.39-7-22.45-10.65-20.12-9.13-40.81-17.38-61.49-24.51a714.93,714.93,0,0,0-297.67-35.66c-16,1.48-32,3.5-47.46,6a707.65,707.65,0,0,0-70.35,15.07,696.52,696.52,0,0,0-315,182.42C1549.61,919.63,1479.36,1127.37,1506.92,1338.29Z"/><g class="cls-2"><path class="cls-3" d="M2705.15,1738.67c-183.63,185.3-447.54,246.46-685.1,182.75q-19.47-5.24-38.69-11.54A709.87,709.87,0,0,1,1711.8,1747c-8.94-8.79-17.71-17.63-26.11-26.64a716.49,716.49,0,0,1-48.23-57.6,687.79,687.79,0,0,1-130.72-514.44,687.05,687.05,0,0,0,130.08,308.35,699.93,699.93,0,0,0,48.23,57.61c8.36,9,17.13,17.85,26.12,26.64a707.39,707.39,0,0,0,269.51,162.93q19.29,6.3,38.73,11.54c237.57,63.71,501.43,2.55,685.11-182.75,107.18-108.06,170.89-242.16,191.55-381.34C2928.19,1358.78,2864.88,1577.63,2705.15,1738.67Z"/></g><path class="cls-3" d="M2204.68,1959.78a726.76,726.76,0,0,1-188.25-24.8c-13.2-3.56-26.46-7.52-39.44-11.78A723.6,723.6,0,0,1,1702.09,1757c-10.07-9.83-18.78-18.71-26.66-27.2a725,725,0,0,1-49.18-58.69,703.78,703.78,0,0,1-135-330.8h0C1463,1124.53,1534.88,912,1688.4,757.18a712.39,712.39,0,0,1,322.13-186.57,723.84,723.84,0,0,1,71.9-15.4c15.83-2.55,32.16-4.61,48.54-6.12a730.69,730.69,0,0,1,304.28,36.45c21.15,7.29,42.31,15.72,62.87,25.06,8.21,3.66,15.78,7.26,23.05,10.94a719.31,719.31,0,0,1,180.24,127.18c137.71,132.92,214.69,310.54,216.76,500.14,2.06,188.12-70.06,365.58-203.06,499.7C2579.44,1885.42,2394.5,1959.78,2204.68,1959.78ZM1519,1336.71a675.71,675.71,0,0,0,129.64,317.58,697,697,0,0,0,47.29,56.42c7.6,8.19,16,16.75,25.66,26.19a693.92,693.92,0,0,0,264.14,159.67c12.49,4.08,25.27,7.9,38,11.33,240.72,64.52,498-4.1,671.48-179.08,127.68-128.75,196.91-299.1,194.93-479.66-2-182-75.92-352.59-208.18-480.26a691.56,691.56,0,0,0-173.33-122.28c-7-3.54-14.13-6.93-22-10.45-19.85-9-40.17-17.11-60.5-24.11a702.75,702.75,0,0,0-292.56-35c-15.75,1.45-31.44,3.44-46.64,5.89a694.85,694.85,0,0,0-69.12,14.8,684.28,684.28,0,0,0-309.47,179.23C1561,925.53,1492,1129.56,1519,1336.71Z"/><path class="cls-3" d="M2204.68,1963.85a731,731,0,0,1-189.31-24.94c-13.27-3.59-26.6-7.57-39.65-11.84A728,728,0,0,1,1699.26,1760c-10.13-9.88-18.88-18.81-26.82-27.36a729.21,729.21,0,0,1-49.44-59,707.78,707.78,0,0,1-135.82-332.72h0C1458.81,1123.8,1531.1,910,1685.51,754.32A721.08,721.08,0,0,1,2081.78,551.2c15.92-2.57,32.34-4.65,48.81-6.16a734.57,734.57,0,0,1,306,36.66c21.28,7.33,42.55,15.81,63.23,25.2,8.25,3.68,15.88,7.3,23.21,11a723.64,723.64,0,0,1,181.23,127.88c138.5,133.69,215.91,312.33,218,503,2.06,189.22-70.47,367.72-204.24,502.62C2581.56,1889.06,2395.56,1963.85,2204.68,1963.85Zm-681.63-627.67a671.55,671.55,0,0,0,128.87,315.67,693.94,693.94,0,0,0,47,56.09c7.56,8.15,15.9,16.65,25.53,26A690.08,690.08,0,0,0,1987,1892.71c12.4,4,25.12,7.85,37.74,11.26,239.33,64.15,495.11-4.07,667.54-178,126.9-128,195.71-297.28,193.75-476.74-2-180.94-75.47-350.48-206.94-477.38a687.77,687.77,0,0,0-172.31-121.57c-6.95-3.52-14-6.89-21.86-10.37-19.75-9-40-17-60.16-24a698.82,698.82,0,0,0-290.86-34.84c-15.67,1.45-31.27,3.41-46.37,5.86a687.24,687.24,0,0,0-68.71,14.71A680.36,680.36,0,0,0,1711.2,779.79c-146.48,147.7-215,350.49-188.15,556.39Z"/><path class="cls-3" d="M1550.84,1510.49c280.48,412.17,876.57,425.24,1082.75-20,140.27-302.94-52.84-673.85-357.14-789.63C2055,616.56,1801.9,629.67,1577.14,932.3c0,0-78.45,149.24-76.19,269.6S1526,1439.06,1526,1439.06Z"/><path class="cls-8" d="M2633.57,1490.45c-206.17,445.27-802.26,432.19-1082.74,20l-5-14.48c393.4,237.13,912,150.44,1128.92-295.9C2688.42,1297,2676.84,1397,2633.57,1490.45Z"/><path class="cls-3" d="M2121.08,1909.92c-111.33,0-225-26-330.29-77.35l-2.2-1.29a723.67,723.67,0,0,1-88.13-72.56c-10.11-9.86-18.84-18.77-26.76-27.3a727.89,727.89,0,0,1-49.33-58.86,706.18,706.18,0,0,1-135.49-331.91h0c-28.3-216.53,43.82-429.8,197.85-585.11a714.63,714.63,0,0,1,323.19-187.18l1.63-.44,1.68-.09c92.33-5.18,190.59,11.78,292,50.37,182.52,69.44,337.12,222.95,413.56,410.63,68.81,168.94,67.7,346.2-3.11,499.12-77.12,166.5-204.71,285.4-369,343.85C2275,1897.3,2198.62,1909.92,2121.08,1909.92Zm-314.8-106.22c170.54,82.72,363.45,96.31,529.47,37.24,155.79-55.43,276.9-168.42,350.24-326.76,67-144.58,67.84-312.57,2.49-473-73.07-179.41-220.68-326.09-394.87-392.37-96.49-36.71-189.64-53-276.88-48.37A681.84,681.84,0,0,0,1710,778.59C1563.13,926.66,1494.37,1130,1521.35,1336.4h0a673.3,673.3,0,0,0,129.19,316.48,695.7,695.7,0,0,0,47.13,56.23c7.58,8.16,15.94,16.69,25.58,26.11A693.52,693.52,0,0,0,1806.28,1803.7Z"/><path class="cls-3" d="M2116.64,1840.15c-225.6,0-444.43-119.15-580.75-319.48l-1.35-2-26.29-76.16c-.94-4.83-23.12-119.73-25.38-240.28-2.33-123.6,75-272.1,78.26-278.36l1.49-2.37c196.59-264.71,438.94-344.66,720.26-237.6,163.28,62.12,301.58,199.41,369.95,367.27,61.59,151.21,60.59,309.91-2.83,446.87-91.91,198.48-267.28,322.39-481.16,340Q2142.71,1840.16,2116.64,1840.15Zm-549.5-337.87c139.64,203.78,368.9,318.55,598.73,299.68,200.53-16.47,365-132.78,451.3-319.11,59.15-127.74,59.91-276.2,2.15-418-64.65-158.73-195.23-288.49-349.3-347.11-263.94-100.42-491.88-25-677.48,224.18-7.25,14.19-75.55,150.94-73.5,259.65,2.08,110.81,22.09,220.09,24.49,232.82Z"/><path class="cls-1" d="M2935.34,1574.12c-41.87,130.08-154.94,214.35-252.59,188.2s-142.85-152.81-101-282.89c.24-.82.54-1.68.84-2.49,42.47-128.66,154.78-211.68,251.74-185.7,75.43,20.19,119.57,100.38,116.46,195.77A319.7,319.7,0,0,1,2935.34,1574.12Z"/><path class="cls-3" d="M2719.06,1770.5a143.51,143.51,0,0,1-37.2-4.84c-39.07-10.47-71-36.71-92.35-75.88-31.12-57.13-35.25-136.16-11-211.41.25-.82.57-1.73.88-2.6,42.86-129.87,157.66-214.16,255.88-187.87,74.42,19.92,122.25,100,119,199.22a323.14,323.14,0,0,1-15.63,88.06h0C2901.48,1690.58,2808.33,1770.5,2719.06,1770.5ZM2798.12,1290c-85.53,0-175.57,77-212.24,188.06-.3.84-.58,1.64-.81,2.4-23.67,73.54-19.74,150.55,10.5,206C2616,1724,2646.44,1749,2683.65,1759c95.69,25.62,207.15-57.76,248.4-185.93a315.58,315.58,0,0,0,15.31-86.16c3.12-96-42.65-173.25-113.91-192.33A136.29,136.29,0,0,0,2798.12,1290Z"/><g class="cls-2"><path class="cls-3" d="M2935.34,1574.12c-41.87,130.08-154.94,214.35-252.59,188.2s-142.85-152.81-101-282.89c.24-.82.54-1.68.84-2.49,6.44,16.23,18.91,33.85,43,35.48,42.15,2.84,140.22-61.75,140.22-61.75s80.34,15.24,185,36.34A319.7,319.7,0,0,1,2935.34,1574.12Z"/></g><path class="cls-3" d="M2718.76,1785.08a156.77,156.77,0,0,1-40.68-5.3c-43-11.53-78.11-40.23-101.42-83-33.49-61.48-37.91-142.73-12.11-222.89,44.72-138.91,167.85-228.68,274.5-200.11,43,11.52,78.11,40.23,101.41,83,33.5,61.49,37.92,142.73,12.12,222.9C2913.47,1701.17,2814.35,1785.08,2718.76,1785.08Zm78.79-480.55c-80,0-164.31,74-198.56,180.43-22.44,69.74-18.91,142.45,9.45,194.51,18.44,33.86,45.76,56.46,79,65.36a124.1,124.1,0,0,0,32.14,4.19c80,0,164.3-74,198.55-180.43h0c22.45-69.75,18.92-142.46-9.44-194.51-18.45-33.86-45.76-56.46-79-65.36A124.1,124.1,0,0,0,2797.55,1304.53Z"/><ellipse class="cls-1" cx="2808.32" cy="1564.26" rx="196.7" ry="148.7" transform="translate(259.45 3523.04) rotate(-66.66)"/><path class="cls-3" d="M2776.2,1756.15c-31.89,0-60.47-11.84-83.17-34.58-60.35-60.42-57.89-180.14,5.47-266.88,35.32-48.34,83.34-78.2,131.75-81.93,36-2.75,68.27,9,93.37,34.18,60.34,60.42,57.88,180.14-5.48,266.87h0c-35.32,48.34-83.34,78.2-131.75,81.93Q2781.25,1756.16,2776.2,1756.15Zm64.22-380q-4.89,0-9.88.38c-47.3,3.65-94.32,33-129,80.4-62.31,85.29-64.94,202.81-5.86,262,24.29,24.32,55.54,35.79,90.4,33.08,47.31-3.64,94.32-33,129-80.4h0c62.31-85.29,64.93-202.81,5.85-262C2899,1387.61,2871.29,1376.15,2840.42,1376.15Z"/><g class="cls-2"><path class="cls-3" d="M2648.88,1601c2.29-37.18,14.92-73.82,34.53-105.77,2,85.24,62.83,139.08,141.92,122,51.12-11,98.1-49.08,128.4-98.54.17,5.38,0,10.93-.31,16.57-5.88,94.67-78.81,186.13-162.92,204.26S2643,1695.6,2648.88,1601Z"/></g><path class="cls-3" d="M2772.48,1770.85a113.61,113.61,0,0,1-28.53-3.6c-31.61-8.21-57.5-29.32-74.87-61.06-26.92-49.18-29.84-118.85-7.82-186.37,37.14-113.82,134-189.11,216-167.84,31.61,8.2,57.5,29.32,74.88,61,26.91,49.19,29.83,118.86,7.81,186.38h0C2927.09,1700.25,2847.27,1770.85,2772.48,1770.85ZM2847.76,1381c-60.56,0-126.89,61.69-155.36,149-19.28,59.09-17.26,119.09,5.41,160.5,12.92,23.62,31.72,39.21,54.37,45.09,65.55,17,144.81-48.62,176.68-146.31,19.28-59.08,17.26-119.09-5.41-160.49-12.92-23.62-31.73-39.21-54.37-45.09A84.7,84.7,0,0,0,2847.76,1381Zm96.67,213.34h0Z"/><g class="cls-7"><path class="cls-1" d="M2386.65,893.86s-294.55-91.35-515.71,11.44l-.7.33A287.17,287.17,0,0,0,1755.11,1003c-38.24,55.49-56.32,99.3-70.73,138.48-43.76,119.17-41.63,183.21-41.63,183.21-45.72-87.88-58.27-173.4-22.81-273q5.28-14.72,12-29.92c1-2.34,2.07-4.63,3.18-6.92,0,0,0-.09.08-.13a703.63,703.63,0,0,1,44.24-73c57.45-83,154.11-183.28,291.12-196.5C2226.69,720.52,2401.19,885,2386.65,893.86Z"/><path class="cls-3" d="M1646.69,1339.74l-7-13.45c-49.75-95.62-56.85-180.67-23-275.78,3.5-9.75,7.55-19.89,12-30.15,1-2.17,1.93-4.32,3-6.47l.18-1.32.71-.39a703.54,703.54,0,0,1,44-72.41c57.44-82.93,155-184.59,293.63-198,128.5-12.39,232.4,22.88,297,54.66,73.59,36.22,118.71,79,123.3,92.82,1.57,4.74-.87,6.84-2,7.52l-1.33.81-1.49-.46c-2.94-.91-295.85-89.77-513.24,11.27l-.69.33A283.79,283.79,0,0,0,1758,1005c-39,56.56-56.75,100.74-70.34,137.72-43,117-41.44,181.27-41.42,181.91Zm-8.69-323c-1,2.13-2,4.26-2.94,6.43-4.44,10.12-8.43,20.11-11.87,29.71-31.71,89.1-26.7,169.26,16.53,258.16,1.63-24.81,9-82.5,41.42-170.71,13.74-37.36,31.7-82,71.13-139.24a290.81,290.81,0,0,1,116.52-98.55l.47-.22c204.48-95,474-24.36,513.53-13.14-2.22-3.8-7.79-11-20.07-22-58.2-52.42-206.26-136.36-391.88-118.43-136,13.12-232,113.3-288.62,195a696.44,696.44,0,0,0-44,72.6Z"/></g><g class="cls-7"><ellipse class="cls-1" cx="2499.55" cy="1258.3" rx="107.89" ry="93.32" transform="translate(1048.66 3651.21) rotate(-85.49)"/><path class="cls-3" d="M2497.43,1369.55q-3.76,0-7.54-.33c-53.13-4.77-92-58.4-86.72-119.56h0c2.79-32.13,17.55-61.58,40.47-80.78,19-15.94,42.35-23.55,65.56-21.49,53.14,4.77,92,58.4,86.73,119.55-2.8,32.14-17.55,61.59-40.47,80.79C2538.48,1361.94,2518.12,1369.55,2497.43,1369.55ZM2410,1250.26c-5,57.38,31.12,107.67,80.49,112.1,21.42,2,42.91-5.15,60.53-19.91,21.53-18,35.39-45.77,38-76.11,5-57.38-31.11-107.66-80.48-112.09-21.44-2-42.91,5.15-60.54,19.91-21.52,18-35.39,45.77-38,76.1Z"/></g><g class="cls-7"><ellipse class="cls-1" cx="2483.16" cy="1453.64" rx="38.77" ry="44.57" transform="translate(-21.26 36.95) rotate(-0.85)"/><path class="cls-3" d="M2483.32,1501.66h-.23c-23.27-.14-42.18-21.79-42.15-48.26,0-13.81,5.26-26.93,14.39-36a39.22,39.22,0,0,1,27.67-11.77h.23c23.28.14,42.18,21.79,42.15,48.26,0,13.81-5.26,26.93-14.39,36A39.17,39.17,0,0,1,2483.32,1501.66Zm-.32-89.13a32.42,32.42,0,0,0-22.81,9.77c-7.83,7.78-12.34,19.12-12.35,31.11h0c0,22.68,15.81,41.23,35.29,41.35a33.35,33.35,0,0,0,23-9.77c7.84-7.79,12.34-19.12,12.35-31.11,0-22.68-15.81-41.23-35.29-41.35Z"/></g></svg>