<svg id="Layer_1" data-name="Layer 1" xmlns="http://www.w3.org/2000/svg" viewBox="0 0 4000 4000"><defs><style>.cls-1{fill:#8cc63f;}.cls-2{fill:#ffcfc0;}.cls-3{fill:#eac357;}.cls-4{fill:#ff48b9;}.cls-5{fill:#fce830;}.cls-6{fill:#666;}.cls-7{fill:#000072;}.cls-8{fill:#eabc92;}.cls-9{opacity:0.3;}.cls-10{opacity:0.4;}.cls-11{fill:#fff;}.cls-12{opacity:0.44;}.cls-13{fill:#f7931e;}.cls-14{fill:#f15a24;}.cls-15{fill:#ddba64;}.cls-16{fill:#f4f4f4;}.cls-17{fill:#89f2f2;}.cls-18{fill:#fbb03b;}.cls-19{fill:#c45fa0;}.cls-20{fill:#ed70c7;}.cls-21{opacity:0.13;}.cls-22{fill:#7ddbd8;}.cls-23{fill:#edefef;}.cls-24{opacity:0.56;}.cls-25{fill:#fcee21;}</style></defs><path class="cls-1" d="M1909.51,1987l193.37-47.27s46.12,83.24,59.21,187.6l-182.94,71S1883,2131.6,1909.51,1987Z"/><path class="cls-2" d="M2118.8,1955.46s72.09-30.81,87.91-80.57,3.95-152.25,27.69-176,48.61-2.8,50.3,31.44c0,0,78.75-83.41,114.63-41.59s98.79,131.35-39.75,235c0,0-111.87,174-197.49,188.15C2162.09,2111.87,2157,2025.38,2118.8,1955.46Z"/><path class="cls-3" d="M1289.55,2836.81s-102.36,260.22,76,387.13h79.75s-215.54-195-62.61-426.08Z"/><path class="cls-4" d="M1289.55,2836.81s-123.14,58-141.84,140,1.56,175.68,61.14,201.85,170.91,48.53,170.91,48.53S1199.92,3150.65,1289.55,2836.81Z"/><path class="cls-5" d="M1382.74,2797.86s1080.9-631.5,1137.21-719.09c0,0-64.8,277.29-36.57,349.27,0,0-921.18,470-1141.94,481.63Z"/><path class="cls-6" d="M1345.05,3068.13S2399.51,2942,2607.79,2856.56c0,0-115.1-210.64-124.41-428.52,0,0-735.36,370.88-1130.54,478.42C1352.84,2906.46,1325.43,3010.64,1345.05,3068.13Z"/><path class="cls-5" d="M2607.79,2856.56S2725.35,3031.22,2767,3054c0,0-780.89,219.7-1321.64,170,0,0-93.77-85.24-100.3-155.81C1734.77,3019.29,2167.1,2959.46,2607.79,2856.56Z"/><path class="cls-7" d="M3081.6,1981.84s-55.29,348.8,239.28,519c0,0,152.77-366.73,152.77-494.49C3473.65,2006.34,3125.77,1979.45,3081.6,1981.84Z"/><path class="cls-8" d="M2520,2078.77S2332.83,2644.52,2767,3054c0,0,367.81-105.39,542.79-559.76,0,0-244.86-131.07-228.18-512.38C3081.6,1981.84,2681.21,2003.7,2520,2078.77Z"/><g class="cls-9"><path class="cls-7" d="M2075.83,1946.36s40.2,119.11,25.28,204.65c0,0-38.6-151.59-89.08-184.62Z"/></g><g class="cls-9"><path class="cls-7" d="M2174.36,1916.12s-3.81,116.78,37.43,176.21l-49.7,19.54s-26-128.33-48.82-151.14Z"/></g><g class="cls-10"><path class="cls-11" d="M2289.34,1745.29s67-46.1,101-12c45.68,45.67,23.29,102-38.14,195.19,0,0,143.9-100.43,79.16-204.45S2289.34,1745.29,2289.34,1745.29Z"/></g><g class="cls-9"><path class="cls-7" d="M1610.9,2658.74c8.34,27.52,37.37,112.08,186.06,82.16l-18.35,130.31-35.44,111.28s6.17,134.79,115.16,157.73,152.79-77.16,152.79-77.16-2-68-35.06-101.1S2007.87,2787,2007.87,2787s59.87-120.94,57.55-170.35c0,0,46.23-60,120-98.78,0,0,61.77-61.33,15.08-136.25l-38.46-62.2Z"/></g><g class="cls-9"><path class="cls-7" d="M1259.51,2969.22s-51.77,163.45,23.23,238.45l82.86,16.27S1259.51,3163.16,1259.51,2969.22Z"/></g><g class="cls-9"><path class="cls-7" d="M1283.65,3113s16.15,14.32,81.95,3.05l45.24,69.81s-62,21.75-83.77,0S1283.65,3113,1283.65,3113Z"/></g><g class="cls-9"><path class="cls-7" d="M1379.76,3137.88s910.39,37.43,2081.16-1133.34c0,0-182,831.73-668.49,991.79-660.37,217.26-1381.59,203.12-1381.59,203.12Z"/></g><g class="cls-10"><path class="cls-11" d="M1181.3,2916.67s16.74-28.22,88.16,13.2l14.19-50.75S2012,2483.33,2500.5,2185.82c342.24-208.45,960.42-181.28,960.42-181.28s-717.84-64.79-941,74.23c-399.61,249-897.06,610-1212.81,746.07C1307.14,2824.84,1204.17,2882.88,1181.3,2916.67Z"/></g><g class="cls-12"><path class="cls-13" d="M1215.91,2890.67s-92.47,177.75,41.22,311.44c0,0-125-51.46-117.86-164.07S1215.91,2890.67,1215.91,2890.67Z"/></g><path class="cls-7" d="M1379.75,3243.41a16.52,16.52,0,0,1-6.65-1.4c-34.87-15.17-83.41-67.58-108.74-138.4-22.28-62.28-35.51-162.53,27.93-286.38a16.69,16.69,0,0,1,29.7,15.22c-58,113.22-46.27,203.84-26.21,259.93,24.56,68.67,68.62,109.46,90.63,119a16.69,16.69,0,0,1-6.66,32Z"/><path class="cls-7" d="M1455.9,3243.9q-37.74,0-76.36-.5a16.69,16.69,0,0,1,.21-33.37h.22q38.44.49,76,.49c822,0,1314.32-175.23,1319.35-177.05,293.15-106.9,462.75-380.24,553.4-590.72,82.88-192.4,116.78-368.89,125.77-422.29-532.15-73.64-891.79,62.62-918.29,73.09-827.63,571.79-1218.57,744.89-1222.43,746.57a16.68,16.68,0,0,1-13.35-30.58c3.84-1.67,392.94-174.12,1218.35-744.5a16.34,16.34,0,0,1,3.07-1.68c3.89-1.62,97.11-40,262-68.48,151.65-26.23,394.85-48.39,692.19-5.06a16.69,16.69,0,0,1,14.13,18.77c-.29,2.1-29.91,212.89-130.44,446.59-59.18,137.59-131,256.3-213.59,352.83-103.7,121.26-224.62,207.67-359.38,256.81C2781.68,3066.68,2284.35,3243.89,1455.9,3243.9Z"/><path class="cls-7" d="M1379.77,3243.4a17.06,17.06,0,0,1-3.23-.31l-113.8-22.34c-39.78-9-74.28-30.85-97.62-61.61-52.44-69.11-56.74-165.88-10.46-235.33,12.44-18.67,29.13-35.19,49.61-49.13l93.48-63.63a16.68,16.68,0,1,1,18.77,27.58L1223,2902.26c-16.9,11.51-30.57,25-40.62,40.06-38.52,57.81-34.71,138.68,9.28,196.65,18.6,24.51,46.28,42,77.94,49.14L1383,3210.34a16.69,16.69,0,0,1-3.2,33.06Z"/><path class="cls-7" d="M1445.35,3240.62a16.61,16.61,0,0,1-11-4.19c-112.93-99.86-124.79-216.41-114.84-296.59,10.67-86,47.42-148,49-150.57a16.68,16.68,0,0,1,28.61,17.17c-.51.85-35.08,59.55-44.62,138.67-12.62,104.55,22.36,194.16,104,266.33a16.68,16.68,0,0,1-11.05,29.18Z"/><path class="cls-7" d="M2767,3070.67a16.61,16.61,0,0,1-11.71-4.81C2523.79,2837.68,2470.09,2580,2465.8,2404c-4.65-190.56,44.75-325.39,46.86-331a16.68,16.68,0,0,1,31.27,11.65c-.5,1.34-49.49,135.47-44.75,319.9,4.36,169.48,56.4,417.68,279.52,637.61a16.69,16.69,0,0,1-11.71,28.57Z"/><path class="cls-7" d="M3320.87,2517.51a16.58,16.58,0,0,1-8.12-2.12c-121.65-67.9-203.07-182.21-235.45-330.58-24.28-111.3-12.74-201.39-12.24-205.17a16.69,16.69,0,1,1,33.08,4.4c-.12.87-11.29,88.94,12,194.71C3141,2319,3214.63,2422.42,3329,2486.26a16.68,16.68,0,0,1-8.14,31.25Z"/><path class="cls-7" d="M2094,2173.66a16.69,16.69,0,0,1-6.57-32l57.93-24.78c2.17-61.75-35.17-132.09-50.24-157.84l-127.52,33.11a16.69,16.69,0,0,1-8.39-32.3l139.5-36.22a16.7,16.7,0,0,1,18.15,7c2.89,4.41,70.62,108.9,61,199.35a16.65,16.65,0,0,1-10,13.58l-67.28,28.77A16.54,16.54,0,0,1,2094,2173.66Z"/><path class="cls-7" d="M2161.24,2128.83a16.69,16.69,0,0,1-4.85-32.65c118.94-36.21,175.19-169.78,175.74-171.13a16.73,16.73,0,0,1,6.7-7.86c58-35.57,90.7-77,94.67-119.7,3-32.52-11.26-66.5-38.2-90.9-6.85-6.2-14.08-8.72-22.72-7.89-28.53,2.69-62.28,39.66-72.87,53.68a16.68,16.68,0,0,1-29.95-8.73c-1.41-17.23-7.92-36-13.39-38.68-.77-.38-3.58.15-8,3.13-3.79,3.15-9.84,17.8-6.89,80,.26,5.46.46,9.86.46,12.68,0,15.23-7.57,79.69-44.64,116.76-31.73,31.73-69,51.84-70.6,52.68a16.69,16.69,0,0,1-15.73-29.43c.79-.42,34.81-18.91,62.74-46.85,26.6-26.6,34.86-77.6,34.86-93.16,0-2.47-.19-6.32-.42-11.09-2.2-46.5-2.35-93.24,21.7-109.29,18.18-12.14,32.4-9.64,41.13-5.39,12.42,6,20.08,18.91,24.79,31.82,18.14-17.78,45-38.57,73.65-41.29,17.84-1.72,34.6,4,48.31,16.37,34.69,31.41,53,75.8,49,118.72-3.41,36.72-24.68,90.93-105.95,142.26-12.18,26.82-73.23,148.3-194.67,185.26A16.75,16.75,0,0,1,2161.24,2128.83Z"/><path class="cls-14" d="M1712.22,2002.89,1619,1985.71s-174.24,55.75-151.5,297.7c21.9,232.94,130.68,414.28,197.41,414.28s112-19.83,141.51-71.21c0,0-131-195.23-145.28-324.89S1712.22,2002.89,1712.22,2002.89Z"/><path class="cls-1" d="M1849.85,1916.12s-176.35-23-193.83,261.7,172.35,473.33,172.35,473.33,107-126.57,235.92-67.26c0,0,34.15-152,121.18-225.68C2185.47,2358.21,2030.84,1941.14,1849.85,1916.12Z"/><path class="cls-15" d="M1609.2,1180.61s-265.73,142.15-223.86,481.93c0,0-76.61-22-154.59,56,0,0-145.54-3.51-216.43-281.1,0,0,72.3-70.43,79.25-92.68,0,0-64-69.94-76.47-119.08,0,0,110.94-24.36,138.88-82.63S1269,895.9,1501.16,895.9c0,0-25-47.48-16.69-104.48,0,0,81.28,30.69,124.73,28.2s296-60.21,392,140c0,0,150.2,20.82,178.79,125.81S2261,1225.17,2261,1225.17s-202,97.76-321.17-147.14c0,0-158.1,161-309.63,161C1630.2,1239.07,1609.2,1216.69,1609.2,1180.61Z"/><path class="cls-2" d="M1385.34,1662.54S1253.72,1633.21,1232,1749s81,214.61,223.57,124.16c0,0,202.29,247.39,542.14,61.58,209.41-114.5,208.33-317.71,181.64-443,0,0,66.8-54.2,48.49-134.76s-56.66-107-115.19-107c0,0-148.22-71.65-172.85-172,0,0-170.61,161-309.63,161,0,0-21-25.16-21-58.46C1609.2,1180.61,1378.57,1287.17,1385.34,1662.54Z"/><path class="cls-2" d="M1833.17,2397.14s80.48,68.12,161.19,101.49c0,0,118.45,98.69,210.23-7.27,73.46-84.81-45.7-125.86-45.7-125.86s-2.55-49-93.23-11.46c0,0-98.39-56.32-124.78-82.72C1940.88,2271.32,1873.49,2356.82,1833.17,2397.14Z"/><path class="cls-2" d="M1754.18,2003.44s146.44,84.45,195.18,27.66c27.22-31.71,0-70.37,0-70.37S1837.47,2003.44,1754.18,2003.44Z"/><path class="cls-14" d="M1955.51,1955s120.41-35.6,137.67,230.13Z"/><path class="cls-1" d="M1658.26,2123.21s76.21-12.63,163.79,18.74l127.31,116.16s-50.85,98.71-121.75,139c0,0-118.85-40.1-172.73-138.22C1654.88,2258.92,1649.32,2152.16,1658.26,2123.21Z"/><path class="cls-14" d="M1701,2522.26s72.44-43.1,132.22-125.12c0,0,23.61,39.48,52.12,39.48,0,0-92.43,84.9-153.61,129.76C1731.68,2566.38,1709.15,2550.06,1701,2522.26Z"/><path class="cls-14" d="M1569.37,2076s-9.38,50.05,0,90.37c0,0,91.41-80.8,252.68-24.41l127.31,116.16-8.48,13.21,32.71,22.94s4-116.88-76.57-171.05S1718.48,2025.32,1569.37,2076Z"/><path class="cls-2" d="M1822.05,2644.84s48.63-85.58,245.36-73.26c0,0,32.21,108.49-140.64,332,0,0,105.9,87.22,91.65,134.49s-52.2,88.88-166.69,46.53-102-121.6-102-121.6l34.4-100.09Z"/><path class="cls-16" d="M1793.12,2767s65.8,105.21,182,69.27l-50.58,73.54s-57.83,24-140.48-46.92Z"/><path class="cls-17" d="M1778.61,2871.21s-39,57.55-28.91,106.45,91,151.55,207.5,122.13,53.1-123.26-30.43-196.25C1926.77,2903.54,1872.45,2937.94,1778.61,2871.21Z"/><path class="cls-18" d="M1763.58,2556.68s73.74-56.95,121.71-120.06c0,0,28.36,38.37,109.07,62,0,0,32.66,36,71.3,38.87v40.76s-140.1-24.31-237.29,72.89Z"/><path class="cls-19" d="M1674.68,1703s200.53-9,377.21-156.67c0,0,100.74,207.18-97.51,291.45C1748.64,1925.2,1674.68,1703,1674.68,1703Z"/><path class="cls-16" d="M1769.41,1686.67s19,105.2,176.29,26.13c97.45-49,66.33-135.72,66.33-135.72S1859.78,1686.67,1769.41,1686.67Z"/><path class="cls-20" d="M1897.72,1855s-7.55-51.4,65.47-85.9c57.86-27.34,90.68-8.34,90.68-8.34S1990.76,1837.68,1897.72,1855Z"/><g class="cls-9"><path class="cls-7" d="M1936.05,1069.46S1886,1230,1589.88,1303c0,0-10.43-10.62-10.43-48.06,0,0-199.53,168.64-141.8,445.84,60.48,290.39,337.36,283.15,482.52,276.63,0,0-223.48,107.08-464.57-104.32,0,0-159.24,99.31-219-46.5-56.48-137.88,106.23-192,146.8-164.91,0,0-46.87-340.75,225.77-481.09,0,0,2,58.37,26.78,58.37S1868,1170.85,1936.05,1069.46Z"/></g><g class="cls-9"><circle class="cls-7" cx="1342.86" cy="1782.28" r="49.01"/></g><g class="cls-9"><path class="cls-7" d="M1022.82,1224.61s256.63,146.34,525.5-1.27c0,0-206.6,173.24-164.89,426.75,0,0-94.76,10.5-152.68,68.42,0,0-160.82-30.39-217.82-287.58,0,0,49.36-27.81,80.64-86.2C1093.57,1344.73,1010.46,1296.34,1022.82,1224.61Z"/></g><g class="cls-9"><path class="cls-7" d="M1797,2447.39s2.15,36.41,36.21,47.65l49.32-52.68-49.32-45.22Z"/></g><g class="cls-9"><path class="cls-7" d="M1658.26,2245.45s36.58,105.12,174.91,151.69c0,0-57,90.68-99.27,103.24C1733.9,2500.38,1660.49,2313.09,1658.26,2245.45Z"/></g><g class="cls-9"><path class="cls-7" d="M1684.38,2399.85s16.57,175.24-31.21,297.84c0,0,118.51-25.86,154.51-61.86C1745.71,2562.58,1715.35,2502.8,1684.38,2399.85Z"/></g><g class="cls-9"><path class="cls-7" d="M1569.37,2166.36s45.2,5.21,85.51,74l3.38-109.14Z"/></g><g class="cls-9"><path class="cls-7" d="M1833.17,2152.1s-170.59,18.28-113.62,178.93c0,0-68-52.76-66.36-145.21S1727.17,2114.89,1833.17,2152.1Z"/></g><g class="cls-9"><path class="cls-7" d="M1858.33,2372.92s109,73.57,152.79,86.78c0,0,61.17,84.18,200.67,22.06,0,0-56.24,118.35-217.43,16.87l-165.71-98.78Z"/></g><g class="cls-9"><path class="cls-7" d="M1909.55,2459.7s-41.76,59.5-87.5,89.07c0,0,2.06,36.95,63.24,49.36l-65.66,60.61-64.86-110,127.72-106.41Z"/></g><g class="cls-9"><path class="cls-7" d="M2007.87,2576s-127.08,54.13-145.85,103.23-49,209.61-49,209.61l-34.36-17.67,43.44-220.06S1927.45,2567.61,2007.87,2576Z"/></g><g class="cls-9"><path class="cls-7" d="M1838.92,2903.54s-75.5,62.47,19.15,190.24c0,0-111.72-49.49-110-123.52s30.59-99.05,30.59-99.05Z"/></g><g class="cls-9"><path class="cls-7" d="M2005.91,1947.87s6.12,44.65,6.12,104.46l-59.34-91.6Z"/></g><g class="cls-9"><path class="cls-7" d="M1931.78,1973.21s-43,69.13-154,96.1c0,0-47.41-22.15-96.27-15.73l23.52-49.72S1852.43,2011.73,1931.78,1973.21Z"/></g><g class="cls-10"><path class="cls-11" d="M1839.73,2166.36c-4,4,69.82,92.56,69.82,92.56s-45,97.26-103.09,128l22.19,12.94s88.12-53.68,117-149.32Z"/></g><g class="cls-10"><path class="cls-11" d="M1926.67,2307.12s102.18,92.45,133.46,85.85,51.15-29.37,62.56-18,7.3,31.54,31.28,31.54,58.78,15.07,65.88,60c0,0,28.82-65.82-50.12-93.63,0,0-27.12-62.55-93.9-20.38,0,0-103.46-27.36-139.78-79.75Z"/></g><g class="cls-10"><path class="cls-11" d="M1955.51,2027.91s115.56,156.17,178.65,309.45l46.38,25.17s-134.16-289.66-206.92-362.43Z"/></g><g class="cls-10"><path class="cls-11" d="M1988.68,1176.51s135.64,266.93,154,379.5c18.95,116-5.51,281.81-166.65,391.86,0,0,264.13-86.06,204.48-391.86s-137.39-349.7-137.39-349.7Z"/></g><g class="cls-10"><path class="cls-11" d="M2030.84,2572.37s1.72,48.34-9.95,90.3c-37.52,134.86-135.6,251.85-135.6,251.85l34.08-1.6s126.64-161.59,142.56-242.07,1.18-103.57,1.18-103.57Z"/></g><g class="cls-10"><path class="cls-11" d="M1945.7,2933.56s45.65,53.09-7,169.84c0,0,88.29-14.35,81.06-74.61S1945.7,2933.56,1945.7,2933.56Z"/></g><g class="cls-9"><path class="cls-7" d="M1672.69,2050.63l12.88-16,17.86-35.4s-77.25-23-92.19-8.09-321.14,160.39,12.41,688.08c0,0-80.94-188.49-98.24-361.69-8.6-86,47-165.56,131.07-185.91l1.78-.42c10-37.89,53.25-77.2,53.25-77.2A241.09,241.09,0,0,0,1672.69,2050.63Z"/></g><g class="cls-10"><path class="cls-11" d="M1777.76,2069.31s145,97.22,183.59,196.87c0,0-18.75-118.86-82.19-154.57S1777.76,2069.31,1777.76,2069.31Z"/></g><g class="cls-9"><path class="cls-7" d="M2103.2,1315.94s28.56-51.48,83.63-40.54c0,0-67.23-34-112.43-34Z"/></g><g class="cls-10"><path class="cls-11" d="M1931.67,1054.2c-30.28,19.34-191.64,135.57-266.66,135.57,0,0-12-23,12.75-63.31,0,0-101.31,4-170.36,128.5l101.8-74.35,16.67,60.83S1869,1186.19,1933.8,1056.1A1.49,1.49,0,0,0,1931.67,1054.2Z"/></g><g class="cls-9"><path class="cls-7" d="M2007.87,1580.75s69.57,32.62,57.79,152.53c0,0,52-85.52-13.77-187Z"/></g><g class="cls-9"><path class="cls-7" d="M1828.65,1666.66s-24.84,132.68,103.13,188.34c0,0-176.46,63.2-257.1-152Z"/></g><g class="cls-10"><path class="cls-11" d="M2172.39,1275.4s38.12,93.64-9.79,185.4l19,42S2248,1430,2223.77,1341C2210.62,1292.6,2172.39,1275.4,2172.39,1275.4Z"/></g><g class="cls-10"><path class="cls-11" d="M2184.42,1101.17c-71.72-165.63-180.35-133.09-180.35-133.09-22.63-41-122.24-155.9-175.07-155.9H1501.35c-3.12-10-4.68-16.41-4.68-16.41a69.7,69.7,0,0,0-12.34,16.41h-1.53c.35.35.69.65,1,1-19.7,38.72,12.92,78.31,12.92,78.31-279.42,36.13-315.46,216.65-315.46,216.65,147.91-192.3,392.94-182.22,392.94-182.22-27.07-16.72-47.94-56.34-59.13-85.45,83.11,43.4,132.16,7.95,259.67,7.95,143.2,0,209.5,159.87,209.5,159.87S2094.64,993,2126.51,1078c63.06,168.22,134.49,147.14,134.49,147.14C2234.23,1216.83,2200.19,1137.59,2184.42,1101.17Z"/></g><path class="cls-7" d="M1240.16,1737a16.73,16.73,0,0,1-2-.12c-7.5-.89-184.19-25.07-241.57-302.62a16.67,16.67,0,0,1,7.75-17.68c.45-.27,43.54-26.61,68-67.58-20.41-17.79-61.44-60.17-71.7-120.6a16.67,16.67,0,0,1,14.24-19.33c4.44-.62,110.55-16.74,166.86-137,57.38-122.57,187.49-183.4,294-191.83-9.21-24-19.16-62.08-6.94-94.67,2.44-6.51,8.22-11.83,15.18-11.83h0c6.77,0,12.41,3.16,14.94,9.34,3.61,4,36.57,34.43,177.41,11.35,172.57-28.29,300.69,57.79,339.33,156.63,38.43.27,148,12.37,182.46,137.62,27.5,100,69.3,121.12,69.72,121.32a16.45,16.45,0,0,1,9.91,14.74,16.7,16.7,0,0,1-9.29,15.32c-3.63,1.84-90.06,44.71-185.28,10.16-62.17-22.56-112.73-72.38-150.57-148.29-34.42,40.71-122.72,121.62-299.52,153.57A16.63,16.63,0,0,1,1621,1253c-4.45-3-16.82-13.83-21.9-45a559,559,0,0,0-107.14,104.45c-81,104.09-111.29,221-90.11,347.34a16.68,16.68,0,1,1-32.91,5.51c-28.46-169.89,37.29-297.34,97.46-374.33,64.87-83,135.66-125.62,138.63-127.4a16.69,16.69,0,0,1,25.22,14.34c0,23.69,4,36.55,7.06,42.87,211.67-41.46,283.72-158.6,284.43-159.8a16.7,16.7,0,0,1,29.69,1.91c35,81.56,83.09,134,142.88,155.82,52.85,19.31,103.84,10.17,133.34,1.27-18.68-19.47-43.28-56-61.57-122.45-34.37-125-155-113.42-160.17-112.85a16.72,16.72,0,0,1-17.71-11.58c-28.39-90.35-145.41-172.13-306.34-145.75-104,17-157.8,6.87-185.26-6,.64,26.48,13,55.22,19.2,66.5a16.7,16.7,0,0,1-14.59,24.77c-100.14,0-233.34,54.33-289.18,173.63-50.54,108-137.43,142.14-174.85,152.16,16.6,56.75,65.59,92.39,66.13,92.78a16.73,16.73,0,0,1,5.39,20.72c-20.44,43.14-58.74,73.79-77,86.66C1086,1680.91,1235.75,1703,1242.19,1703.8a16.69,16.69,0,0,1-2,33.24Zm259.06-953.43Z"/><path class="cls-7" d="M1752.87,2023c-106.23,0-204.75-34.35-272.54-99.15-22.52-21.52-43.91-46.46-65.4-76.25A16.68,16.68,0,0,1,1442,1828.1c20.28,28.12,40.37,51.56,61.39,71.65,92.6,88.5,249.51,114.34,399.78,65.81,143.44-46.32,242.84-148.27,265.9-272.7,28.08-151.52-53.9-316.06-102.88-414.37-10.11-20.27-18.83-37.78-25.41-52.64a16.68,16.68,0,1,1,30.5-13.52c6.28,14.18,14.85,31.37,24.77,51.28,50.84,102,135.94,272.84,105.82,435.33-25.32,136.68-133.15,248.22-288.45,298.37A523.87,523.87,0,0,1,1752.87,2023Z"/><path class="cls-7" d="M1352,1921.32c-21.4,0-42.88-3.61-62.62-12-29-12.29-65.22-39.7-73.52-100.44-8-58.17,3.41-102.22,33.74-130.92,50.93-48.18,135.32-32.5,138.89-31.81a16.68,16.68,0,0,1-6.32,32.76c-.86-.16-71.4-13-109.73,23.38-22,20.89-29.92,55.23-23.52,102.07,5,36.3,23,61.28,53.5,74.25,46.49,19.73,109.38,5.86,143.3-19a16.68,16.68,0,0,1,19.7,26.93C1438.12,1906.58,1395.25,1921.32,1352,1921.32Z"/><ellipse class="cls-7" cx="1625.87" cy="1544.88" rx="75.82" ry="95.49" transform="translate(-367.4 516.77) rotate(-16.25)"/><ellipse class="cls-11" cx="1639.89" cy="1521.25" rx="28" ry="35.27" transform="translate(-360.22 519.75) rotate(-16.25)"/><ellipse class="cls-7" cx="1972.88" cy="1401.22" rx="68.69" ry="86.52" transform="translate(-313.32 608.15) rotate(-16.25)"/><ellipse class="cls-11" cx="1984.28" cy="1371.08" rx="20.61" ry="25.96" transform="matrix(0.96, -0.28, 0.28, 0.96, -304.43, 610.13)"/><path class="cls-7" d="M1864.07,1872.08a169.37,169.37,0,0,1-66.92-13.57c-92-39.13-129.69-148.33-131.25-153a12.52,12.52,0,0,1,11.29-16.49c2-.09,198.62-10.73,369.75-153.78a12.52,12.52,0,0,1,18.95,3.5c2,3.66,49.75,90.63,21,180.41-17.46,54.58-59.21,97.79-124.09,128.46C1928.37,1863.93,1895.36,1872.08,1864.07,1872.08Zm-168.36-159.47c13.28,30,48.74,96.36,111.36,122.93,42.94,18.22,91.74,14.68,145-10.51,58.35-27.59,95.68-65.76,111-113.46,19.24-60.1-1.2-120.6-12.53-146.93C1904.24,1681.15,1747.46,1707.05,1695.71,1712.61Zm-18-11h0Z"/><path class="cls-7" d="M1526.44,1436.24s58.39-94.54,89-64S1607.44,1425.48,1526.44,1436.24Z"/><path class="cls-7" d="M2001.15,1235.82s-106.5-31.69-109,11.49S1933.53,1281.71,2001.15,1235.82Z"/><path class="cls-7" d="M2183.74,1504a16.68,16.68,0,0,1-11.29-29c25.72-23.65,52-67,31.18-139.07-20-69.1-80.68-79.53-128-76.12a16.69,16.69,0,1,1-2.39-33.29c84.32-6.07,142.07,29.5,162.48,100.14,26.93,93.17-13.91,148.32-40.65,172.9A16.59,16.59,0,0,1,2183.74,1504Z"/><path class="cls-7" d="M1931,3121.24a154,154,0,0,1-16.41-.89c-73-7.73-157.08-68.19-174.71-112.27-22.33-55.82,17.18-131.43,27.66-149.86,1.84-59.75,36.89-193.95,38.42-199.78a16.69,16.69,0,0,1,32.28,8.47c-.38,1.42-37.4,143.14-37.4,196a16.62,16.62,0,0,1-2.46,8.71c-12.95,21.26-43.16,85-27.52,124.12,12.51,31.3,83.46,84.73,147.24,91.49,35.17,3.71,61.83-7.52,79.22-33.42,22.7-33.78-49.14-100.28-87.49-127.19a16.69,16.69,0,0,1-3.38-24.15c39.65-49,142.57-191.11,142.57-259.21,0-78.9-5.48-96.05-5.71-96.74a5.16,5.16,0,0,0,.55,1.26l29.88-14.83c5.5,11.07,8.65,51.28,8.65,110.31,0,80-104.64,221.83-139.25,266.54,36.45,28.32,121.52,103.6,81.88,162.61C2003.36,3104.54,1971.07,3121.24,1931,3121.24Z"/><path class="cls-7" d="M1817.88,2413.82a16.51,16.51,0,0,1-5.06-.79c-4.75-1.51-117.14-38.47-169.89-161a16.68,16.68,0,1,1,30.65-13.19c41.26,95.82,125.93,133.38,145.36,140.91,46-12.54,90.74-84.14,110-122l-107.18-100a16.68,16.68,0,0,1,22.77-24.39l116.18,108.44a16.68,16.68,0,0,1,3.79,19.14c-2.56,5.6-63.69,137.28-143.5,152.63A16.72,16.72,0,0,1,1817.88,2413.82Z"/><path class="cls-7" d="M2093.63,2556.87c-36.26,0-75.3-12-108.72-44.14-17.92-7.79-108.48-48.73-163.53-103.8a16.68,16.68,0,0,1,23.59-23.59c55.33,55.33,154.84,97.49,155.84,97.9a16.84,16.84,0,0,1,5.35,3.59c55.22,55.22,120.86,34.09,139.66,26.31,37.51-15.54,62.71-44.84,62.71-72.9,0-20.13-4.73-34.39-14.08-42.39-12.37-10.58-30.3-7.91-30.48-7.89a16.82,16.82,0,0,1-18.91-12.4c-2.91-11.63-7.1-19.38-11.79-21.84-7.13-3.71-21.28,1.64-33.76,6.38-11.18,4.24-22.73,8.63-33.85,8.63-31.54,0-106-59.55-136.55-85.15a16.69,16.69,0,0,1,21.43-25.58c44.22,37.05,101,77,115.14,77.36,5,0,13.63-3.28,22-6.46,18.1-6.86,40.62-15.42,61-4.75,10.86,5.68,19,15.63,24.63,30.27,11.69.59,28.24,3.84,42.38,15.74,17.37,14.6,26.17,37.51,26.17,68.08,0,42-32.7,82.76-83.31,103.72A171.43,171.43,0,0,1,2093.63,2556.87Z"/><path class="cls-7" d="M1935.15,2855.38c-102,0-147-74.77-149-78.24a12.51,12.51,0,0,1,21.58-12.66h0c1.91,3.2,47.81,78.36,154,64.05a12.51,12.51,0,1,1,3.33,24.8A223.55,223.55,0,0,1,1935.15,2855.38Z"/><path class="cls-7" d="M1894.77,2927.43c-75.93,0-118.63-54.38-120.6-56.95a12.51,12.51,0,0,1,19.83-15.26h0c1.84,2.37,46,57.85,123.37,45.34a12.52,12.52,0,1,1,4,24.71A167.37,167.37,0,0,1,1894.77,2927.43Z"/><path class="cls-7" d="M1922.52,3066.57c-85.62,0-178.06-99.17-182-103.47a12.51,12.51,0,0,1,18.39-17c.89,1,87.61,93.94,161.79,95.39,8.37-8.92,28.14-27.81,50.1-33.29.52-15.57-1.6-29.31-6.4-41.78a12.51,12.51,0,0,1,23.35-9c7.12,18.48,9.58,39.67,7.31,63a12.51,12.51,0,0,1-12.45,11.3c-17.11,0-40,22.46-46.74,30.32a12.5,12.5,0,0,1-9,4.41C1925.39,3066.54,1924,3066.57,1922.52,3066.57Z"/><path class="cls-7" d="M1895,3022.2a12.49,12.49,0,0,1-9.27-4.12l-43.27-47.72a12.5,12.5,0,0,1,5-20.16l51-18.46a12.51,12.51,0,0,1,12.37,2.23l38.93,33.09a12.52,12.52,0,0,1-.86,19.73l-46.6,33.09A12.54,12.54,0,0,1,1895,3022.2Zm-21.48-54.83,23.29,25.68,24.43-17.35-21.13-18Z"/><path class="cls-7" d="M1976.05,2318.27a16.68,16.68,0,0,1-16.66-16.19c0-1.15-4.74-118.19-83.77-174.4-144.71-102.93-287.37-34.65-288.79-33.94a16.68,16.68,0,0,1-14.75-29.93c6.54-3.23,162.13-77.67,322.88,36.68,92.71,65.94,97.62,195.13,97.78,200.6a16.68,16.68,0,0,1-16.18,17.17Z"/><path class="cls-7" d="M1569.4,2183a16.65,16.65,0,0,1-11.72-28.51c3.67-3.61,92-87.59,280.76-24.79a16.68,16.68,0,0,1-10.54,31.66c-168.11-56-243.77,14-246.91,17A16.73,16.73,0,0,1,1569.4,2183Z"/><path class="cls-7" d="M1822.06,2679.36a16.66,16.66,0,0,1-14.19-7.9c-22.51-36.31-43.08-72.34-61.15-107.08a16.68,16.68,0,1,1,29.6-15.39c17.68,34,37.84,69.29,59.91,104.89a16.69,16.69,0,0,1-14.17,25.48Z"/><path class="cls-7" d="M1733.91,2517.07a16.7,16.7,0,0,1-15.17-9.71c-67.4-146.31-92.32-274.75-74.08-381.76a16.68,16.68,0,0,1,32.89,5.6c-16.85,98.84,7.87,224.09,71.5,362.2a16.69,16.69,0,0,1-8.17,22.13A16.52,16.52,0,0,1,1733.91,2517.07Z"/><path class="cls-7" d="M1685.59,2066.16a16.5,16.5,0,0,1-7.26-1.67,16.68,16.68,0,0,1-7.75-22.28c15.13-31.29,30.06-46.25,31.72-47.85a16.68,16.68,0,0,1,23.29,23.89c-.38.38-12.52,12.74-25,38.49A16.68,16.68,0,0,1,1685.59,2066.16Z"/><path class="cls-7" d="M1731.7,2583.06a16.68,16.68,0,0,1-8.44-31.07c77.33-45.29,135.86-108.54,146.81-120.77a16.68,16.68,0,1,1,24.85,22.27c-16.2,18.08-75.23,80.69-154.81,127.28A16.49,16.49,0,0,1,1731.7,2583.06Z"/><path class="cls-7" d="M1701,2538.94a16.68,16.68,0,0,1-8.45-31.08c85.45-50,133.34-119.42,133.82-120.12a16.68,16.68,0,1,1,27.57,18.79c-2.11,3.09-52.67,76.34-144.53,130.12A16.52,16.52,0,0,1,1701,2538.94Z"/><path class="cls-7" d="M2185.47,2391.7A16.69,16.69,0,0,1,2169.9,2381c-64-165.81-189.78-348.42-226.81-400.45a16.68,16.68,0,1,1,27.17-19.35c37.61,52.83,165.39,238.34,230.77,407.79a16.69,16.69,0,0,1-15.56,22.69Z"/><path class="cls-7" d="M1884.76,2069c-70.3,0-136-46.83-139.22-49.15a16.68,16.68,0,0,1,19.55-27c1.32.94,80.62,57.06,147.15,39.41,15.86-4.2,26-10.87,30.07-19.8,6.13-13.41-1.18-31.19-4.61-38.22a16.68,16.68,0,0,1,30-14.63c6.84,14,16.57,41.32,5,66.72-8.43,18.45-25.88,31.3-51.86,38.19A140.71,140.71,0,0,1,1884.76,2069Z"/><path class="cls-7" d="M2101.11,2216a16.68,16.68,0,0,1-16.68-16.69c0-147.68-80.92-219.56-105.72-238.07a16.68,16.68,0,0,1,20-26.74c27.94,20.86,119.13,101.61,119.13,264.81A16.69,16.69,0,0,1,2101.11,2216Z"/><path class="cls-7" d="M1822,2679.36a16.69,16.69,0,0,1-15.11-23.73c6.19-13.79,62.35-125,250.81-97.22a16.68,16.68,0,1,1-4.86,33c-167.84-24.73-213.65,73.72-215.52,77.93a16.93,16.93,0,0,1-12,9.69A16.11,16.11,0,0,1,1822,2679.36Z"/><path class="cls-7" d="M1687.37,2714.42a111.73,111.73,0,0,1-37.22-6.3c-49.39-17.28-93.54-98-115.46-144.57-60.17-127.84-104.4-320.9-59.34-442.67C1519.26,2002.21,1625,1976,1629.51,1975a16.68,16.68,0,0,1,7.7,32.46c-3.9,1-93.07,23.72-130.57,125-41.72,112.75.94,295.14,58.24,416.88,38.88,82.62,75.23,119.92,96.29,127.29,64.53,22.58,132.31-50.12,133-50.86a16.68,16.68,0,0,1,24.63,22.51C1815.92,2651.41,1757.48,2714.41,1687.37,2714.42Z"/><g class="cls-21"><circle class="cls-22" cx="1658.26" cy="1371.08" r="716.08"/></g><path class="cls-23" d="M1658.26,2097.58c-400.6,0-726.51-325.91-726.51-726.5s325.91-726.51,726.51-726.51,726.5,325.91,726.5,726.51S2058.85,2097.58,1658.26,2097.58Zm0-1432.15c-389.1,0-705.66,316.55-705.66,705.65s316.56,705.65,705.66,705.65,705.65-316.55,705.65-705.65S2047.35,665.43,1658.26,665.43Z"/><g class="cls-24"><circle class="cls-11" cx="1782.05" cy="834.71" r="97.25" transform="translate(-68.28 1504.58) rotate(-45)"/></g><g class="cls-24"><circle class="cls-11" cx="1920.17" cy="975.78" r="50.09" transform="translate(-127.58 1643.57) rotate(-45)"/></g><g class="cls-21"><path class="cls-22" d="M1040.74,1365s47.27,918.41,912,550C1952.69,1915,1396.64,1915,1040.74,1365Z"/></g><path class="cls-13" d="M1195.05,3231.27c-15.94,39.11-47.72,50.1-95.92,32-77.85,48.66-118.17-8.34-118.17-8.34l-454.61,33.37,364.24-244.36c0-92.08,93.74-92.88,93.74-92.88,45.18-92.24,141.95-41.37,141.95-41.37s-66.08,86.66-56.35,167.29S1149.32,3231.27,1195.05,3231.27Z"/><path class="cls-25" d="M1120.71,3228.33c-23.14,18-54.39,6.83-69.79-8.58-52.83,33-71.35-.67-71.35-.67l-325.15,22.64L912.7,3064.78c0-62.47,62-61.45,62-61.45,30.66-62.59,85.7-41.3,85.7-41.3s-43.8,81.6-37.19,136.31S1089.68,3228.33,1120.71,3228.33Z"/><path class="cls-7" d="M2044.9,3123.54c51.19-11.23,101.82-24.64,152.11-39s100.21-30,149.62-46.9,98.5-34.65,146.89-54c48.56-18.92,96.22-39.89,143.56-61.27l.34-.16a23,23,0,1,1,18.9,41.85c-.49.23-1,.45-1.54.63-49.64,18.2-99.38,35.87-149.77,51.38-50.23,15.94-100.91,30.27-151.8,43.54s-102.06,25.28-153.44,36.05S2096.78,3116.07,2044.9,3123.54Z"/><path class="cls-7" d="M2113.27,3018.48c40.16-12.25,79.91-25.63,119.45-39.56s78.81-28.52,117.77-43.81,77.69-31.07,116-47.72c38.41-16.42,76.22-34.06,113.82-51.92l.26-.12a23,23,0,0,1,19.71,41.5c-.63.29-1.29.57-1.93.8-39.73,14.62-79.49,28.91-119.65,41.91q-60.11,19.84-120.83,37.28-60.66,17.63-121.82,33.06C2195.28,3000.21,2154.38,3009.93,2113.27,3018.48Z"/><path class="cls-7" d="M1190.43,2478.1c40.16-12.25,79.91-25.63,119.45-39.57s78.81-28.51,117.77-43.8,77.69-31.07,116-47.73c38.41-16.41,76.22-34.05,113.82-51.91l.26-.12a23,23,0,1,1,19.71,41.49c-.63.3-1.29.57-1.93.81-39.73,14.61-79.49,28.91-119.65,41.9Q1495.75,2399,1435,2416.45q-60.66,17.63-121.82,33.06C1272.44,2459.82,1231.54,2469.55,1190.43,2478.1Z"/><path class="cls-7" d="M1352.84,2500.39c32.13-10.83,63.69-23.13,95.1-35.71s62.51-25.92,93.46-39.51,61.67-27.68,92.26-42l45.73-21.79,45.49-22.28.21-.1a23,23,0,0,1,20.22,41.28,25.87,25.87,0,0,1-2.39,1l-48.12,17.16-48.29,16.64c-32.26,10.87-64.58,21.5-97.07,31.58s-65.07,19.8-97.82,28.88S1386,2493.24,1352.84,2500.39Z"/><path class="cls-7" d="M2329.31,1792.91c5.3-8.7,10.44-17.45,15.57-26.16s10.2-17.44,15.09-26.26,9.82-17.54,14.55-26.36,9.38-17.62,14-26.39l.06-.12a12.54,12.54,0,1,1,22.19,11.7,15.92,15.92,0,0,1-.85,1.38c-5.94,8.41-12,16.69-18.46,24.67s-13,15.83-19.72,23.5C2358.19,1764.15,2344.24,1779,2329.31,1792.91Z"/><path class="cls-7" d="M2355.25,1809.47a278.17,278.17,0,0,0,19.93-21.21c6.21-7.38,12.29-14.78,17.8-22.59s10.95-15.54,15.81-23.63c5-8,9.53-16.2,14-24.37l.13-.24a12.55,12.55,0,0,1,22,12,13.67,13.67,0,0,1-.9,1.42,266.55,266.55,0,0,1-19,23.48,286.51,286.51,0,0,1-21.34,21.07,279.91,279.91,0,0,1-23.28,18.55A199.8,199.8,0,0,1,2355.25,1809.47Z"/><path class="cls-7" d="M2127,2429.21c8.49.14,16.93-.2,25.27-.69a229.87,229.87,0,0,0,24.6-2.74,126.79,126.79,0,0,0,23-5.64c7.09-2.53,13.61-5.78,18.14-9.72a12.57,12.57,0,1,1,14.79,20.22l-.29.18c-9.35,5.64-19,7.94-28.19,9.17a128,128,0,0,1-26.94.24A209,209,0,0,1,2127,2429.21Z"/><path class="cls-7" d="M2118.8,2474.33c8.44-.35,16.82-.95,25.15-1.58s16.59-1.41,24.74-2.55a229.77,229.77,0,0,0,23.85-4.13c7.58-1.76,15.14-3.91,20.7-6.89a12.58,12.58,0,0,1,11.87,22.18,12.43,12.43,0,0,1-2,.84l-.39.13c-10,3.26-19,3.78-28,4a197.86,197.86,0,0,1-26.08-1.63A317.93,317.93,0,0,1,2118.8,2474.33Z"/><path class="cls-7" d="M2093.18,2513.76c7-.67,14-1.52,21-2.34s13.81-1.71,20.59-2.89,13.49-2.26,20-3.79a156.29,156.29,0,0,0,18.32-5.21,12.57,12.57,0,1,1,6.44,24.2l-.22,0a117.52,117.52,0,0,1-22.77,1.24,215.7,215.7,0,0,1-21.65-2A284.2,284.2,0,0,1,2093.18,2513.76Z"/><path class="cls-7" d="M2382.68,1838.51c5.46-6.17,10.52-12.6,15.5-19s9.78-12.93,14.32-19.6,9.08-13.25,13.31-20,8.41-13.52,12.52-20.27l.08-.13a12.56,12.56,0,1,1,21.45,13.06,13.83,13.83,0,0,1-1.18,1.63c-5.46,6.39-11.09,12.62-17.06,18.5s-12.14,11.54-18.44,17C2410.39,1820.33,2397.12,1830.42,2382.68,1838.51Z"/><path class="cls-23" d="M822.4,2070.2c32.23-10.49,63.91-22.46,95.44-34.71s62.76-25.28,93.85-38.54,62-27.06,92.7-41.07l46-21.32,45.72-21.81,14.76,34.51L1163,1964.89l-48,17.1c-32.11,11.19-64.29,22.14-96.64,32.53s-64.8,20.45-97.42,29.86S855.48,2062.72,822.4,2070.2Z"/><path class="cls-7" d="M3348.15,2836.25c-21.32,39.14-52.43,72.13-84.87,102.57-32.79,30.35-68.8,57-106.05,81.7-74.65,49.27-155.56,88.33-238.44,121.45-82.9,33.32-168.41,59.51-254.65,82.28-43.35,10.39-86.67,21.11-130.45,29.5l-32.75,6.68c-5.47,1.09-10.92,2.28-16.39,3.28l-16.47,2.86L2402.23,3278c-176,28-353.77,42.51-531.49,48s-355.59,1.83-532.76-9.9c177.57-.71,354.89-3.61,531.75-13.44,22.1-1.33,44.23-2.09,66.29-3.89l66.22-4.84c44.18-2.74,88.17-7.46,132.21-11.69l33-3.15,32.94-3.86,65.86-7.76c11-1.17,21.93-2.8,32.86-4.41l32.81-4.75,32.8-4.76c10.94-1.54,21.87-3.14,32.73-5.14,87.29-13.8,173.91-31.22,259.79-51.66a2380,2380,0,0,0,253.14-76.57c10.3-3.89,20.8-7.34,31-11.59l30.6-12.48c20.57-8,40.37-17.62,60.57-26.44,10.16-4.32,19.89-9.47,29.79-14.29s19.83-9.63,29.55-14.81c19.29-10.6,38.84-20.84,57.54-32.47,37.87-22.5,74.41-47.39,108.41-75.51,8.3-7.24,17-14,24.95-21.73l12.12-11.28,11.62-11.79c4-3.85,7.57-8,11.32-12.1s7.34-8.27,10.85-12.55A215.22,215.22,0,0,0,3348.15,2836.25Z"/><g class="cls-10"><path class="cls-11" d="M1018.5,3004.34s-26.42,6.36-26.42,27.67c0,0-51.44,2.27-51.44,36.12L734.89,3213.21,974,3189.57s20,22.73,55.61,10.07c0,0,7.48,4.37,25,0C1054.64,3199.64,972.29,3150.31,1018.5,3004.34Z"/></g></svg>